SplineFontDB: 3.0
FontName: Jost-Bold
FullName: Jost* 700 Bold
FamilyName: Jost*
Weight: Bold
Copyright: Copyright (c) 2018, Owen Earl,,,
UComments: "2018-6-8: Created with FontForge (http://fontforge.org)"
Version: 003.400
ItalicAngle: 0
UnderlinePosition: -100
UnderlineWidth: 50
Ascent: 800
Descent: 200
InvalidEm: 0
LayerCount: 2
Layer: 0 0 "Back" 1
Layer: 1 0 "Fore" 0
XUID: [1021 69 1495626776 12280187]
FSType: 0
OS2Version: 0
OS2_WeightWidthSlopeOnly: 0
OS2_UseTypoMetrics: 0
CreationTime: 1528476916
ModificationTime: 1562964806
PfmFamily: 17
TTFWeight: 700
TTFWidth: 5
LineGap: 100
VLineGap: 0
OS2TypoAscent: 825
OS2TypoAOffset: 0
OS2TypoDescent: -225
OS2TypoDOffset: 0
OS2TypoLinegap: 100
OS2WinAscent: 900
OS2WinAOffset: 0
OS2WinDescent: 300
OS2WinDOffset: 0
HheadAscent: 1030
HheadAOffset: 0
HheadDescent: -350
HheadDOffset: 0
OS2CapHeight: 700
OS2XHeight: 460
OS2Vendor: 'PfEd'
Lookup: 1 0 0 "alt a" { "alt a"  } ['ss01' ('DFLT' <'dflt' > 'latn' <'dflt' > ) ]
Lookup: 1 0 0 "Tabular Numbers lookup" { "Tabular Numbers lookup"  } ['tnum' ('DFLT' <'dflt' > 'grek' <'dflt' > 'latn' <'dflt' > ) ]
Lookup: 258 0 0 "Lets get our kern on" { "kernin like nobodys business" [150,0,0] } ['kern' ('DFLT' <'dflt' > 'latn' <'dflt' > ) ]
MarkAttachClasses: 1
DEI: 91125
KernClass2: 16 14 "kernin like nobodys business"
 43 slash seven V W Wcircumflex uni040E uni0423
 175 quotedbl quotesingle asterisk grave dieresis ordfeminine macron degree acute ordmasculine circumflex breve dotaccent ring tilde quoteleft quoteright quotedblleft quotedblright
 25 nine question F P uni0420
 131 A L backslash Agrave Aacute Acircumflex Atilde Adieresis Aring Amacron Abreve Aogonek Lacute uni013B Lslash uni0410 uni0414 uni041C
 58 three eight B C germandbls uni0411 uni0412 uni0417 uni0421
 29 K X Z uni0416 uni041A uni0425
 157 at D G O Ograve Oacute Ocircumflex Otilde Odieresis Oslash Dcaron Dcroat Gcircumflex Gbreve Gdotaccent uni0122 Omacron Obreve uni041E uni0424 uni042D uni042E

StartChar: H
Encoding: 72 72 0
Width: 785
VWidth: 0
Flags: HMW
LayerCount: 2
Fore
SplineSet
121 294 m 1
 121 444 l 1
 650 444 l 1
 650 294 l 1
 121 294 l 1
544 700 m 1
 712 700 l 1
 712 0 l 1
 544 0 l 1
 544 700 l 1
74 700 m 1
 242 700 l 1
 242 0 l 1
 74 0 l 1
 74 700 l 1
EndSplineSet
EndChar

StartChar: O
Encoding: 79 79 1
Width: 820
VWidth: 0
Flags: HMW
LayerCount: 2
Fore
SplineSet
213 350 m 0
 213 226 291 139 410 139 c 0
 529 139 608 226 608 350 c 0
 608 474 532 561 410 561 c 0
 291 561 213 474 213 350 c 0
34 350 m 0
 34 566 197 716 410 716 c 0
 626 716 787 566 787 350 c 0
 787 134 630 -22 410 -22 c 0
 190 -22 34 134 34 350 c 0
EndSplineSet
EndChar

StartChar: I
Encoding: 73 73 2
Width: 318
VWidth: 0
Flags: HMW
LayerCount: 2
Fore
SplineSet
74 700 m 1
 246 700 l 1
 246 0 l 1
 74 0 l 1
 74 700 l 1
EndSplineSet
EndChar

StartChar: C
Encoding: 67 67 3
Width: 699
VWidth: 0
Flags: HMW
LayerCount: 2
Fore
SplineSet
218 350 m 0
 218 221 314 144 428 144 c 0
 527 144 590 188 636 238 c 1
 636 54 l 1
 580 10 520 -16 418 -16 c 0
 193 -16 34 132 34 350 c 0
 34 568 193 716 418 716 c 0
 520 716 580 690 636 646 c 1
 636 462 l 1
 590 512 527 556 428 556 c 0
 314 556 218 479 218 350 c 0
EndSplineSet
EndChar

StartChar: E
Encoding: 69 69 4
Width: 602
VWidth: 0
Flags: HMW
LayerCount: 2
Fore
SplineSet
186 0 m 1
 186 139 l 1
 539 139 l 1
 539 0 l 1
 186 0 l 1
186 561 m 1
 186 700 l 1
 539 700 l 1
 539 561 l 1
 186 561 l 1
186 300 m 1
 186 436 l 1
 519 436 l 1
 519 300 l 1
 186 300 l 1
74 700 m 1
 236 700 l 1
 236 0 l 1
 74 0 l 1
 74 700 l 1
EndSplineSet
EndChar

StartChar: F
Encoding: 70 70 6
Width: 552
VWidth: 0
Flags: HMW
LayerCount: 2
Fore
SplineSet
186 555 m 1
 186 700 l 1
 499 700 l 1
 499 555 l 1
 186 555 l 1
186 281 m 1
 186 417 l 1
 489 417 l 1
 489 281 l 1
 186 281 l 1
74 700 m 1
 236 700 l 1
 236 0 l 1
 74 0 l 1
 74 700 l 1
EndSplineSet
EndChar

StartChar: G
Encoding: 71 71 7
Width: 813
VWidth: 0
Flags: HMW
LayerCount: 2
Fore
SplineSet
420 254 m 1
 420 382 l 1
 774 382 l 1
 786 160 654 -22 416 -22 c 0
 194 -22 34 128 34 350 c 0
 34 572 200 716 422 716 c 0
 570 716 673 647 739 550 c 1
 589 473 l 1
 557 529 504 569 422 569 c 0
 305 569 210 488 210 350 c 0
 210 212 298 125 422 125 c 0
 525 125 583 180 606 254 c 1
 420 254 l 1
EndSplineSet
EndChar

StartChar: T
Encoding: 84 84 8
Width: 561
VWidth: 0
Flags: HMW
LayerCount: 2
Fore
SplineSet
4 548 m 1
 4 700 l 1
 557 700 l 1
 557 548 l 1
 365 548 l 1
 365 0 l 1
 196 0 l 1
 196 548 l 1
 4 548 l 1
EndSplineSet
EndChar

StartChar: L
Encoding: 76 76 9
Width: 527
VWidth: 0
Flags: HMW
LayerCount: 2
Fore
SplineSet
74 700 m 1
 242 700 l 1
 242 145 l 1
 524 145 l 1
 524 0 l 1
 74 0 l 1
 74 700 l 1
EndSplineSet
EndChar

StartChar: D
Encoding: 68 68 10
Width: 732
VWidth: 0
Flags: HMW
LayerCount: 2
Fore
SplineSet
74 700 m 1
 248 700 l 1
 248 0 l 1
 74 0 l 1
 74 700 l 1
324 0 m 2
 186 0 l 1
 186 150 l 1
 318 150 l 2
 426 150 524 200 524 350 c 0
 524 500 426 550 318 550 c 2
 186 550 l 1
 186 700 l 1
 324 700 l 2
 552 700 699 565 699 350 c 0
 699 135 552 0 324 0 c 2
EndSplineSet
EndChar

StartChar: Q
Encoding: 81 81 11
Width: 863
VWidth: 0
Flags: HMW
LayerCount: 2
Fore
SplineSet
213 350 m 0
 213 214 307 126 426 126 c 0
 545 126 627 208 627 332 c 0
 627 456 548 561 414 561 c 0
 295 561 213 474 213 350 c 0
34 350 m 0
 34 566 201 716 414 716 c 0
 630 716 787 566 787 350 c 0
 787 134 634 -22 414 -22 c 0
 194 -22 34 134 34 350 c 0
356 300 m 1
 532 300 l 1
 869 -12 l 1
 688 -12 l 1
 356 300 l 1
EndSplineSet
EndChar

StartChar: A
Encoding: 65 65 12
Width: 733
VWidth: 0
Flags: HMW
LayerCount: 2
Fore
SplineSet
184 136 m 1
 196 264 l 1
 543 264 l 1
 554 136 l 1
 184 136 l 1
367 443 m 1
 269 218 l 1
 277 180 l 1
 190 0 l 1
 -1 0 l 1
 367 744 l 1
 736 0 l 1
 544 0 l 1
 460 173 l 1
 466 216 l 1
 367 443 l 1
EndSplineSet
EndChar

StartChar: R
Encoding: 82 82 13
Width: 646
VWidth: 0
Flags: HMW
LayerCount: 2
Fore
SplineSet
248 318 m 1
 424 318 l 1
 643 0 l 1
 445 0 l 1
 248 318 l 1
74 700 m 1
 242 700 l 1
 242 0 l 1
 74 0 l 1
 74 700 l 1
180 556 m 1
 180 700 l 1
 329 700 l 2
 507 700 601 607 601 472 c 0
 601 337 507 243 329 243 c 2
 180 243 l 1
 180 374 l 1
 316 374 l 2
 384 374 426 408 426 466 c 0
 426 524 384 556 316 556 c 2
 180 556 l 1
EndSplineSet
EndChar

StartChar: V
Encoding: 86 86 14
Width: 733
VWidth: 0
Flags: HMW
LayerCount: 2
Fore
SplineSet
367 282 m 1
 538 700 l 1
 736 700 l 1
 367 -44 l 1
 -1 700 l 1
 196 700 l 1
 367 282 l 1
EndSplineSet
EndChar

StartChar: M
Encoding: 77 77 15
Width: 890
VWidth: 0
Flags: HMW
LayerCount: 2
Fore
SplineSet
254 357 m 1
 212 0 l 1
 34 0 l 1
 146 735 l 1
 445 308 l 1
 744 735 l 1
 857 0 l 1
 679 0 l 1
 637 357 l 1
 445 65 l 1
 254 357 l 1
EndSplineSet
EndChar

StartChar: W
Encoding: 87 87 16
Width: 1063
VWidth: 0
Flags: HMW
LayerCount: 2
Fore
SplineSet
729 284 m 1
 860 700 l 1
 1060 700 l 1
 758 -41 l 1
 532 382 l 1
 306 -41 l 1
 4 700 l 1
 204 700 l 1
 336 284 l 1
 532 735 l 1
 729 284 l 1
EndSplineSet
EndChar

StartChar: N
Encoding: 78 78 17
Width: 792
VWidth: 0
Flags: HMW
LayerCount: 2
Fore
SplineSet
557 700 m 1
 720 700 l 1
 720 -35 l 1
 236 394 l 1
 236 0 l 1
 74 0 l 1
 74 735 l 1
 557 306 l 1
 557 700 l 1
EndSplineSet
EndChar

StartChar: a
Encoding: 97 97 18
Width: 543
VWidth: 0
Flags: HMW
LayerCount: 2
Fore
SplineSet
176 138 m 0
 176 104 206 88 242 88 c 0
 298 88 345 112 345 186 c 1
 361 130 l 1
 361 41 286 -10 191 -10 c 0
 93 -10 24 39 24 130 c 0
 24 221 102 279 223 279 c 0
 293 279 358 252 378 230 c 1
 378 159 l 1
 344 185 310 198 258 198 c 0
 206 198 176 174 176 138 c 0
117 319 m 1
 66 420 l 1
 118 445 193 473 276 473 c 0
 400 473 490 419 490 324 c 2
 490 0 l 1
 345 0 l 1
 345 294 l 2
 345 333 314 358 264 358 c 0
 198 358 139 332 117 319 c 1
EndSplineSet
Substitution2: "alt a" a.alt
EndChar

StartChar: X
Encoding: 88 88 19
Width: 684
VWidth: 0
Flags: HMW
LayerCount: 2
Fore
SplineSet
458 700 m 1
 666 700 l 1
 448 358 l 1
 681 0 l 1
 472 0 l 1
 344 233 l 1
 212 0 l 1
 4 0 l 1
 244 358 l 1
 29 700 l 1
 237 700 l 1
 346 497 l 1
 458 700 l 1
EndSplineSet
EndChar

StartChar: K
Encoding: 75 75 20
Width: 698
VWidth: 0
Flags: HMW
LayerCount: 2
Fore
SplineSet
74 700 m 1
 248 700 l 1
 248 0 l 1
 74 0 l 1
 74 700 l 1
486 700 m 1
 685 700 l 1
 401 372 l 1
 700 0 l 1
 495 0 l 1
 200 367 l 1
 486 700 l 1
EndSplineSet
EndChar

StartChar: Y
Encoding: 89 89 21
Width: 659
VWidth: 0
Flags: HMW
LayerCount: 2
Fore
SplineSet
466 700 m 1
 660 700 l 1
 416 285 l 1
 416 0 l 1
 244 0 l 1
 244 284 l 1
 -1 700 l 1
 193 700 l 1
 330 436 l 1
 466 700 l 1
EndSplineSet
EndChar

StartChar: B
Encoding: 66 66 22
Width: 663
VWidth: 0
Flags: HMW
LayerCount: 2
Fore
SplineSet
200 348 m 1
 200 422 l 1
 313 422 l 2
 371 422 404 449 404 497 c 0
 404 545 371 569 313 569 c 2
 242 569 l 1
 242 131 l 1
 329 131 l 2
 395 131 444 152 444 220 c 0
 444 282 395 304 329 304 c 2
 200 304 l 1
 200 396 l 1
 348 396 l 2
 483 396 620 338 620 196 c 0
 620 57 514 0 348 0 c 2
 74 0 l 1
 74 700 l 1
 332 700 l 2
 476 700 580 641 580 522 c 0
 580 410 476 348 332 348 c 2
 200 348 l 1
EndSplineSet
EndChar

StartChar: Z
Encoding: 90 90 23
Width: 618
VWidth: 0
Flags: HMW
LayerCount: 2
Fore
SplineSet
56 548 m 1
 56 700 l 1
 606 700 l 1
 274 145 l 1
 570 145 l 1
 570 0 l 1
 9 0 l 1
 336 548 l 1
 56 548 l 1
EndSplineSet
EndChar

StartChar: o
Encoding: 111 111 24
Width: 589
VWidth: 0
Flags: HMW
LayerCount: 2
Fore
SplineSet
32 230 m 0
 32 375 144 470 294 470 c 0
 444 470 557 375 557 230 c 0
 557 85 444 -10 294 -10 c 0
 144 -10 32 85 32 230 c 0
188 230 m 0
 188 158 235 115 294 115 c 0
 353 115 402 158 402 230 c 0
 402 302 353 346 294 346 c 0
 235 346 188 302 188 230 c 0
EndSplineSet
EndChar

StartChar: J
Encoding: 74 74 25
Width: 329
VWidth: 0
Flags: HMW
LayerCount: 2
Fore
SplineSet
-72 -64 m 1
 -52 -82 -21 -97 9 -97 c 0
 39 -97 74 -76 74 -16 c 2
 74 700 l 1
 256 700 l 1
 256 -54 l 2
 256 -188 151 -238 26 -238 c 0
 -52 -238 -124 -208 -164 -182 c 1
 -72 -64 l 1
EndSplineSet
EndChar

StartChar: t
Encoding: 116 116 26
Width: 317
VWidth: 0
Flags: HMW
LayerCount: 2
Fore
SplineSet
5 460 m 1
 312 460 l 1
 312 335 l 1
 5 335 l 1
 5 460 l 1
86 620 m 1
 232 620 l 1
 232 0 l 1
 86 0 l 1
 86 620 l 1
EndSplineSet
EndChar

StartChar: d
Encoding: 100 100 27
Width: 616
VWidth: 0
Flags: HMW
LayerCount: 2
Fore
SplineSet
408 780 m 1
 559 780 l 1
 559 0 l 1
 408 0 l 1
 408 780 l 1
32 230 m 0
 32 385 138 470 250 470 c 0
 365 470 450 379 450 230 c 0
 450 81 365 -10 250 -10 c 0
 138 -10 32 75 32 230 c 0
190 230 m 0
 190 158 240 111 300 111 c 0
 352 111 408 155 408 230 c 0
 408 305 352 349 300 349 c 0
 240 349 190 302 190 230 c 0
EndSplineSet
EndChar

StartChar: l
Encoding: 108 108 28
Width: 270
VWidth: 0
Flags: HMW
LayerCount: 2
Fore
SplineSet
60 780 m 1
 211 780 l 1
 211 0 l 1
 60 0 l 1
 60 780 l 1
EndSplineSet
EndChar

StartChar: i
Encoding: 105 105 29
Width: 275
VWidth: 0
Flags: HMW
LayerCount: 2
Fore
SplineSet
50 632 m 0
 50 680 90 714 138 714 c 0
 186 714 226 680 226 632 c 0
 226 584 186 551 138 551 c 0
 90 551 50 584 50 632 c 0
64 460 m 1
 211 460 l 1
 211 0 l 1
 64 0 l 1
 64 460 l 1
EndSplineSet
EndChar

StartChar: r
Encoding: 114 114 30
Width: 410
VWidth: 0
Flags: HMW
LayerCount: 2
Fore
SplineSet
208 460 m 1
 208 0 l 1
 60 0 l 1
 60 460 l 1
 208 460 l 1
340 304 m 1
 324 320 308 330 282 330 c 0
 238 330 208 293 208 227 c 1
 172 280 l 1
 172 389 246 472 324 472 c 0
 357 472 390 458 406 434 c 1
 340 304 l 1
EndSplineSet
EndChar

StartChar: c
Encoding: 99 99 31
Width: 492
VWidth: 0
Flags: HMW
LayerCount: 2
Fore
SplineSet
186 230 m 0
 186 156 240 110 308 110 c 0
 364 110 417 135 444 179 c 1
 444 32 l 1
 412 6 365 -10 296 -10 c 0
 142 -10 30 85 30 230 c 0
 30 375 142 470 296 470 c 0
 365 470 412 452 444 430 c 1
 444 282 l 1
 417 326 358 350 308 350 c 0
 240 350 186 298 186 230 c 0
EndSplineSet
EndChar

StartChar: b
Encoding: 98 98 32
Width: 616
VWidth: 0
Flags: HMW
LayerCount: 2
Fore
SplineSet
209 780 m 1
 209 0 l 1
 58 0 l 1
 58 780 l 1
 209 780 l 1
585 230 m 0
 585 75 478 -10 366 -10 c 0
 251 -10 167 81 167 230 c 0
 167 379 251 470 366 470 c 0
 478 470 585 385 585 230 c 0
426 230 m 0
 426 302 376 349 316 349 c 0
 264 349 209 305 209 230 c 0
 209 155 264 111 316 111 c 0
 376 111 426 158 426 230 c 0
EndSplineSet
EndChar

StartChar: p
Encoding: 112 112 33
Width: 616
VWidth: 0
Flags: HMW
LayerCount: 2
Fore
SplineSet
209 -220 m 1
 58 -220 l 1
 58 460 l 1
 209 460 l 1
 209 -220 l 1
585 230 m 0
 585 68 478 -16 366 -16 c 0
 245 -16 173 81 173 230 c 0
 173 379 245 476 366 476 c 0
 478 476 585 392 585 230 c 0
426 230 m 0
 426 302 376 342 316 342 c 0
 264 342 209 305 209 230 c 0
 209 155 264 118 316 118 c 0
 376 118 426 158 426 230 c 0
EndSplineSet
EndChar

StartChar: q
Encoding: 113 113 34
Width: 616
VWidth: 0
Flags: HMW
LayerCount: 2
Fore
SplineSet
408 -220 m 1
 408 460 l 1
 559 460 l 1
 559 -220 l 1
 408 -220 l 1
32 230 m 0
 32 392 138 476 250 476 c 0
 371 476 444 379 444 230 c 0
 444 81 371 -16 250 -16 c 0
 138 -16 32 68 32 230 c 0
190 230 m 0
 190 158 240 118 300 118 c 0
 352 118 408 155 408 230 c 0
 408 305 352 342 300 342 c 0
 240 342 190 302 190 230 c 0
EndSplineSet
EndChar

StartChar: h
Encoding: 104 104 35
Width: 568
VWidth: 0
Flags: HMW
LayerCount: 2
Fore
SplineSet
211 780 m 1
 211 0 l 1
 60 0 l 1
 60 780 l 1
 211 780 l 1
358 280 m 2
 358 334 340 365 290 365 c 0
 242 365 211 334 211 280 c 1
 185 280 l 1
 185 389 237 477 351 477 c 0
 465 477 509 415 509 302 c 2
 509 0 l 1
 358 0 l 1
 358 280 l 2
EndSplineSet
EndChar

StartChar: n
Encoding: 110 110 36
Width: 574
VWidth: 0
Flags: HMW
LayerCount: 2
Fore
SplineSet
211 460 m 1
 211 0 l 1
 60 0 l 1
 60 460 l 1
 211 460 l 1
358 280 m 2
 358 334 340 365 290 365 c 0
 242 365 211 334 211 280 c 1
 185 274 l 1
 185 383 237 470 351 470 c 0
 465 470 515 409 515 296 c 2
 515 0 l 1
 358 0 l 1
 358 280 l 2
EndSplineSet
EndChar

StartChar: m
Encoding: 109 109 37
Width: 820
VWidth: 0
Flags: HMW
LayerCount: 2
Fore
SplineSet
332 280 m 2
 332 334 316 365 272 365 c 0
 230 365 205 334 205 280 c 1
 179 274 l 1
 179 383 230 470 338 470 c 0
 446 470 483 415 483 302 c 2
 483 0 l 1
 332 0 l 1
 332 280 l 2
205 460 m 1
 205 0 l 1
 60 0 l 1
 60 460 l 1
 205 460 l 1
761 296 m 2
 761 0 l 1
 610 0 l 1
 610 280 l 2
 610 334 595 365 551 365 c 0
 509 365 483 334 483 280 c 1
 432 274 l 1
 432 383 508 470 616 470 c 0
 724 470 761 409 761 296 c 2
EndSplineSet
EndChar

StartChar: k
Encoding: 107 107 38
Width: 576
VWidth: 0
Flags: HMW
LayerCount: 2
Fore
SplineSet
58 780 m 1
 203 780 l 1
 203 0 l 1
 58 0 l 1
 58 780 l 1
370 460 m 1
 550 460 l 1
 354 270 l 1
 570 0 l 1
 393 0 l 1
 173 270 l 1
 370 460 l 1
EndSplineSet
EndChar

StartChar: u
Encoding: 117 117 39
Width: 574
VWidth: 0
Flags: HMW
LayerCount: 2
Fore
SplineSet
364 0 m 1
 364 460 l 1
 515 460 l 1
 515 0 l 1
 364 0 l 1
217 180 m 2
 217 126 234 95 284 95 c 0
 332 95 364 126 364 180 c 1
 390 186 l 1
 390 77 338 -10 224 -10 c 0
 110 -10 60 51 60 164 c 2
 60 460 l 1
 217 460 l 1
 217 180 l 2
EndSplineSet
EndChar

StartChar: e
Encoding: 101 101 40
Width: 572
VWidth: 0
Flags: HMW
LayerCount: 2
Fore
SplineSet
117 198 m 1
 117 282 l 1
 377 282 l 1
 370 337 342 369 288 369 c 0
 226 369 186 328 186 254 c 1
 184 230 l 1
 184 136 231 99 290 99 c 0
 344 99 384 120 406 158 c 1
 540 126 l 1
 494 44 425 -10 293 -10 c 0
 125 -10 32 91 32 230 c 0
 32 247 33 263 36 279 c 0
 55 392 140 470 290 470 c 0
 451 470 539 382 539 237 c 0
 539 229 540 214 538 198 c 1
 117 198 l 1
EndSplineSet
EndChar

StartChar: g
Encoding: 103 103 41
Width: 610
VWidth: 0
Flags: HMW
LayerCount: 2
Fore
SplineSet
42 -33 m 1
 188 -33 l 1
 192 -90 235 -118 294 -118 c 0
 358 -118 408 -75 408 10 c 2
 408 460 l 1
 553 460 l 1
 553 10 l 2
 553 -168 440 -239 300 -239 c 0
 128 -239 54 -155 42 -33 c 1
32 236 m 0
 32 391 138 470 250 470 c 0
 365 470 450 385 450 236 c 0
 450 87 365 2 250 2 c 0
 138 2 32 81 32 236 c 0
190 236 m 0
 190 164 240 124 300 124 c 0
 352 124 408 161 408 236 c 0
 408 311 352 349 300 349 c 0
 240 349 190 308 190 236 c 0
EndSplineSet
EndChar

StartChar: f
Encoding: 102 102 42
Width: 343
VWidth: 0
Flags: HMW
LayerCount: 2
Fore
SplineSet
18 460 m 1
 332 460 l 1
 332 335 l 1
 18 335 l 1
 18 460 l 1
315 635 m 1
 301 653 287 660 269 660 c 0
 239 660 221 640 221 592 c 2
 221 0 l 1
 76 0 l 1
 76 630 l 2
 76 733 134 796 249 796 c 0
 317 796 355 766 376 746 c 1
 315 635 l 1
EndSplineSet
EndChar

StartChar: s
Encoding: 115 115 43
Width: 455
VWidth: 0
Flags: HMW
LayerCount: 2
Fore
SplineSet
82 175 m 1
 157 109 209 92 236 92 c 0
 262 92 281 105 281 128 c 0
 281 164 235 178 183 196 c 0
 117 220 52 248 52 338 c 0
 52 424 126 470 224 470 c 0
 303 470 370 440 422 402 c 1
 368 304 l 1
 332 340 278 366 241 366 c 0
 209 366 192 354 192 335 c 0
 192 299 247 292 305 270 c 0
 370 244 432 213 432 130 c 0
 432 25 366 -19 258 -19 c 0
 160 -19 84 20 19 76 c 1
 82 175 l 1
EndSplineSet
EndChar

StartChar: y
Encoding: 121 121 44
Width: 520
VWidth: 0
Flags: HMW
LayerCount: 2
Fore
SplineSet
530 460 m 1
 230 -220 l 1
 78 -220 l 1
 190 38 l 1
 -9 460 l 1
 157 460 l 1
 306 91 l 1
 228 92 l 1
 374 460 l 1
 530 460 l 1
EndSplineSet
EndChar

StartChar: w
Encoding: 119 119 45
Width: 760
VWidth: 0
Flags: HMW
LayerCount: 2
Fore
SplineSet
-8 460 m 1
 151 460 l 1
 247 224 l 1
 378 495 l 1
 514 224 l 1
 610 460 l 1
 768 460 l 1
 531 -29 l 1
 379 244 l 1
 230 -29 l 1
 -8 460 l 1
EndSplineSet
EndChar

StartChar: v
Encoding: 118 118 46
Width: 526
VWidth: 0
Flags: HMW
LayerCount: 2
Fore
SplineSet
-3 460 m 1
 158 460 l 1
 263 204 l 1
 368 460 l 1
 530 460 l 1
 263 -54 l 1
 -3 460 l 1
EndSplineSet
EndChar

StartChar: x
Encoding: 120 120 47
Width: 530
VWidth: 0
Flags: HMW
LayerCount: 2
Fore
SplineSet
354 460 m 1
 522 460 l 1
 346 236 l 1
 532 0 l 1
 364 0 l 1
 268 134 l 1
 174 0 l 1
 0 0 l 1
 188 236 l 1
 10 460 l 1
 184 460 l 1
 268 339 l 1
 354 460 l 1
EndSplineSet
EndChar

StartChar: z
Encoding: 122 122 48
Width: 521
VWidth: 0
Flags: HMW
LayerCount: 2
Fore
SplineSet
257 323 m 1
 58 323 l 1
 58 460 l 1
 507 460 l 1
 278 137 l 1
 475 137 l 1
 475 0 l 1
 15 0 l 1
 257 323 l 1
EndSplineSet
EndChar

StartChar: j
Encoding: 106 106 49
Width: 271
VWidth: 0
Flags: HMW
LayerCount: 2
Fore
SplineSet
46 632 m 0
 46 680 86 714 134 714 c 0
 182 714 222 680 222 632 c 0
 222 584 182 551 134 551 c 0
 86 551 46 584 46 632 c 0
-33 -77 m 1
 -19 -95 -4 -103 14 -103 c 0
 44 -103 62 -82 62 -34 c 2
 62 460 l 1
 206 460 l 1
 206 -72 l 2
 206 -175 148 -238 33 -238 c 0
 -35 -238 -73 -208 -94 -188 c 1
 -33 -77 l 1
EndSplineSet
EndChar

StartChar: P
Encoding: 80 80 50
Width: 621
VWidth: 0
Flags: HMW
LayerCount: 2
Fore
SplineSet
74 700 m 1
 242 700 l 1
 242 0 l 1
 74 0 l 1
 74 700 l 1
180 561 m 1
 180 700 l 1
 316 700 l 2
 494 700 588 614 588 472 c 0
 588 330 494 243 316 243 c 2
 180 243 l 1
 180 382 l 1
 316 382 l 2
 384 382 426 414 426 472 c 0
 426 530 384 561 316 561 c 2
 180 561 l 1
EndSplineSet
EndChar

StartChar: U
Encoding: 85 85 51
Width: 699
VWidth: 0
Flags: HMW
LayerCount: 2
Fore
SplineSet
69 700 m 1
 238 700 l 1
 238 242 l 2
 238 170 274 123 350 123 c 0
 426 123 463 170 463 242 c 2
 463 700 l 1
 632 700 l 1
 632 230 l 2
 632 54 508 -28 350 -28 c 0
 192 -28 69 54 69 230 c 2
 69 700 l 1
EndSplineSet
EndChar

StartChar: S
Encoding: 83 83 52
Width: 624
VWidth: 0
Flags: HMW
LayerCount: 2
Fore
SplineSet
153 250 m 1
 201 166 248 124 322 124 c 0
 378 124 408 147 408 193 c 0
 408 252 344 270 264 302 c 0
 196 328 74 378 74 518 c 0
 74 636 179 716 327 716 c 0
 465 716 539 637 577 562 c 1
 450 490 l 1
 420 542 378 573 324 573 c 0
 276 573 247 550 247 514 c 0
 247 466 324 443 408 413 c 0
 506 379 586 317 586 196 c 0
 586 54 472 -22 324 -22 c 0
 196 -22 78 59 34 168 c 1
 153 250 l 1
EndSplineSet
EndChar

StartChar: at
Encoding: 64 64 53
Width: 770
VWidth: 0
Flags: HMW
LayerCount: 2
Fore
SplineSet
316 320 m 0
 316 276 332 252 361 252 c 0
 395 252 435 295 435 364 c 0
 435 411 416 432 388 432 c 0
 348 432 316 382 316 320 c 0
196 312 m 0
 196 451 281 530 360 530 c 0
 432 530 482 455 482 370 c 0
 482 231 410 154 328 154 c 0
 248 154 196 213 196 312 c 0
20 320 m 0
 20 545 185 722 415 722 c 0
 629 722 750 555 750 390 c 0
 750 212 653 144 559 144 c 0
 492 144 438 198 448 264 c 1
 434 294 l 1
 458 520 l 1
 574 520 l 1
 548 308 l 2
 547 301 546 288 546 280 c 0
 546 256 552 240 572 240 c 0
 596 240 640 270 640 390 c 0
 640 517 565 624 415 624 c 0
 239 624 130 497 130 320 c 0
 130 170 214 74 378 74 c 0
 448 74 504 88 562 118 c 1
 600 28 l 1
 540 -6 467 -26 365 -26 c 0
 139 -26 20 121 20 320 c 0
EndSplineSet
EndChar

StartChar: period
Encoding: 46 46 54
Width: 321
VWidth: 0
Flags: HMW
LayerCount: 2
Fore
SplineSet
68 68 m 0
 68 118 108 160 162 160 c 0
 216 160 255 118 255 68 c 0
 255 18 216 -24 162 -24 c 0
 108 -24 68 18 68 68 c 0
EndSplineSet
EndChar

StartChar: comma
Encoding: 44 44 55
Width: 322
VWidth: 0
Flags: HMW
LayerCount: 2
Fore
SplineSet
120 110 m 1
 271 78 l 1
 146 -172 l 1
 32 -149 l 1
 120 110 l 1
EndSplineSet
EndChar

StartChar: colon
Encoding: 58 58 56
Width: 321
VWidth: 0
Flags: HMW
LayerCount: 2
Fore
SplineSet
68 68 m 0
 68 118 108 160 162 160 c 0
 216 160 255 118 255 68 c 0
 255 18 216 -24 162 -24 c 0
 108 -24 68 18 68 68 c 0
68 442 m 0
 68 492 108 534 162 534 c 0
 216 534 255 492 255 442 c 0
 255 392 216 350 162 350 c 0
 108 350 68 392 68 442 c 0
EndSplineSet
EndChar

StartChar: semicolon
Encoding: 59 59 57
Width: 392
VWidth: 0
Flags: HMW
LayerCount: 2
Fore
SplineSet
119 436 m 0
 119 486 159 528 213 528 c 0
 267 528 307 486 307 436 c 0
 307 386 267 344 213 344 c 0
 159 344 119 386 119 436 c 0
142 110 m 1
 293 78 l 1
 168 -172 l 1
 54 -149 l 1
 142 110 l 1
EndSplineSet
EndChar

StartChar: quotedbl
Encoding: 34 34 58
Width: 517
VWidth: 0
Flags: HMW
LayerCount: 2
Fore
SplineSet
106 700 m 1
 265 700 l 1
 160 382 l 1
 62 382 l 1
 106 700 l 1
316 700 m 1
 476 700 l 1
 371 382 l 1
 272 382 l 1
 316 700 l 1
EndSplineSet
EndChar

StartChar: exclam
Encoding: 33 33 59
Width: 343
VWidth: 0
Flags: HMW
LayerCount: 2
Fore
SplineSet
78 700 m 1
 265 700 l 1
 233 231 l 1
 111 231 l 1
 78 700 l 1
78 62 m 0
 78 112 118 148 172 148 c 0
 226 148 266 112 266 62 c 0
 266 12 226 -24 172 -24 c 0
 118 -24 78 12 78 62 c 0
EndSplineSet
EndChar

StartChar: quotesingle
Encoding: 39 39 60
Width: 306
VWidth: 0
Flags: HMW
LayerCount: 2
Fore
SplineSet
106 700 m 1
 265 700 l 1
 160 382 l 1
 62 382 l 1
 106 700 l 1
EndSplineSet
EndChar

StartChar: numbersign
Encoding: 35 35 61
Width: 666
VWidth: 0
Flags: HMW
LayerCount: 2
Fore
SplineSet
75 412 m 1
 75 532 l 1
 632 532 l 1
 632 412 l 1
 477 412 l 0
 448 418 l 0
 244 418 l 0
 218 412 l 0
 75 412 l 1
35 172 m 1
 35 292 l 1
 176 292 l 0
 208 286 l 0
 438 286 l 0
 468 292 l 0
 592 292 l 1
 592 172 l 1
 35 172 l 1
474 700 m 1
 604 700 l 1
 434 0 l 1
 304 0 l 1
 358 224 l 0
 370 250 l 0
 420 456 l 0
 422 486 l 0
 474 700 l 1
232 700 m 1
 363 700 l 1
 312 488 l 0
 298 456 l 0
 248 252 l 0
 248 226 l 0
 193 0 l 1
 62 0 l 1
 232 700 l 1
EndSplineSet
EndChar

StartChar: hyphen
Encoding: 45 45 62
Width: 221
VWidth: 0
Flags: HMW
LayerCount: 2
Fore
SplineSet
5 172 m 1
 5 302 l 1
 218 302 l 1
 218 172 l 1
 5 172 l 1
EndSplineSet
EndChar

StartChar: dollar
Encoding: 36 36 63
Width: 621
VWidth: 0
Flags: HMW
LayerCount: 2
Fore
SplineSet
262 818 m 1
 386 818 l 1
 379 637 l 1
 268 637 l 1
 262 818 l 1
268 62 m 1
 379 62 l 1
 385 -112 l 1
 262 -112 l 1
 268 62 l 1
448 490 m 1
 418 548 378 586 326 586 c 0
 270 586 248 558 248 522 c 0
 248 463 322 446 407 414 c 0
 501 380 586 317 586 196 c 0
 586 64 482 -10 318 -10 c 0
 190 -10 78 72 34 168 c 1
 152 250 l 1
 200 166 248 124 322 124 c 0
 380 124 408 148 408 194 c 0
 408 250 345 270 263 302 c 0
 193 328 74 386 74 522 c 0
 74 624 175 710 320 710 c 0
 464 710 534 638 576 562 c 1
 448 490 l 1
EndSplineSet
EndChar

StartChar: bar
Encoding: 124 124 64
Width: 351
VWidth: 0
Flags: HMW
LayerCount: 2
Fore
SplineSet
100 785 m 1
 252 785 l 1
 252 -215 l 1
 100 -215 l 1
 100 785 l 1
EndSplineSet
EndChar

StartChar: zero
Encoding: 48 48 65
Width: 661
VWidth: 0
Flags: HMW
LayerCount: 2
Fore
SplineSet
202 350 m 0
 202 218 254 132 331 132 c 0
 408 132 460 218 460 350 c 0
 460 482 408 568 331 568 c 0
 254 568 202 482 202 350 c 0
40 350 m 0
 40 578 159 713 331 713 c 0
 509 713 622 578 622 350 c 0
 622 122 509 -13 331 -13 c 0
 159 -13 40 122 40 350 c 0
EndSplineSet
Substitution2: "Tabular Numbers lookup" uniFF10
EndChar

StartChar: one
Encoding: 49 49 66
Width: 508
VWidth: 0
Flags: HMW
LayerCount: 2
Fore
SplineSet
68 498 m 1
 68 646 l 1
 404 713 l 1
 404 0 l 1
 241 0 l 1
 241 541 l 1
 68 498 l 1
EndSplineSet
Substitution2: "Tabular Numbers lookup" uniFF11
EndChar

StartChar: two
Encoding: 50 50 67
Width: 655
VWidth: 0
Flags: HMW
LayerCount: 2
Fore
SplineSet
20 0 m 1
 332 323 l 2
 388 383 422 424 422 480 c 0
 422 525 390 569 326 569 c 0
 260 569 220 517 220 442 c 1
 54 442 l 1
 54 591 149 714 331 714 c 0
 504 714 596 598 596 492 c 0
 596 417 556 353 496 301 c 2
 332 154 l 1
 613 154 l 1
 613 0 l 1
 20 0 l 1
EndSplineSet
Substitution2: "Tabular Numbers lookup" uniFF12
EndChar

StartChar: four
Encoding: 52 52 68
Width: 697
VWidth: 0
Flags: HMW
LayerCount: 2
Fore
SplineSet
14 124 m 1
 420 700 l 1
 545 700 l 1
 545 0 l 1
 370 0 l 1
 370 176 l 1
 389 187 l 1
 389 455 l 1
 238 246 l 1
 495 246 l 1
 512 268 l 1
 655 268 l 1
 655 124 l 1
 14 124 l 1
EndSplineSet
Substitution2: "Tabular Numbers lookup" uniFF14
EndChar

StartChar: slash
Encoding: 47 47 69
Width: 607
VWidth: 0
Flags: HMW
LayerCount: 2
Fore
SplineSet
448 700 m 1
 593 700 l 1
 166 -150 l 1
 15 -150 l 1
 448 700 l 1
EndSplineSet
EndChar

StartChar: backslash
Encoding: 92 92 70
Width: 545
VWidth: 0
Flags: HMW
LayerCount: 2
Fore
SplineSet
15 700 m 1
 162 700 l 1
 531 0 l 1
 384 0 l 1
 15 700 l 1
EndSplineSet
EndChar

StartChar: eight
Encoding: 56 56 71
Width: 626
VWidth: 0
Flags: HMW
LayerCount: 2
Fore
SplineSet
77 531 m 0
 77 649 185 716 313 716 c 0
 441 716 550 649 550 531 c 0
 550 403 428 342 313 342 c 0
 198 342 77 403 77 531 c 0
236 515 m 0
 236 467 269 434 313 434 c 0
 357 434 391 467 391 515 c 0
 391 563 359 595 313 595 c 0
 267 595 236 563 236 515 c 0
52 190 m 0
 52 338 198 396 313 396 c 0
 428 396 574 338 574 190 c 0
 574 62 451 -16 313 -16 c 0
 175 -16 52 62 52 190 c 0
220 216 m 0
 220 154 261 121 313 121 c 0
 365 121 407 154 407 216 c 0
 407 268 365 308 313 308 c 0
 261 308 220 268 220 216 c 0
EndSplineSet
Substitution2: "Tabular Numbers lookup" uniFF18
EndChar

StartChar: nine
Encoding: 57 57 72
Width: 668
VWidth: 0
Flags: HMW
LayerCount: 2
Fore
SplineSet
452 454 m 0
 452 526 401 572 334 572 c 0
 267 572 216 526 216 454 c 0
 216 382 267 335 334 335 c 0
 401 335 452 382 452 454 c 0
336 3 m 1
 122 3 l 1
 349 256 l 1
 383 271 l 1
 345 235 316 227 266 227 c 0
 161 227 50 312 50 454 c 0
 50 626 178 716 334 716 c 0
 490 716 619 626 619 454 c 0
 619 378 584 316 538 260 c 2
 336 3 l 1
EndSplineSet
Substitution2: "Tabular Numbers lookup" uniFF19
EndChar

StartChar: three
Encoding: 51 51 73
Width: 619
VWidth: 0
Flags: HMW
LayerCount: 2
Fore
SplineSet
274 339 m 1
 274 414 l 1
 352 414 404 458 404 508 c 0
 404 550 378 578 325 578 c 0
 273 578 233 543 233 495 c 1
 78 495 l 1
 78 619 175 713 324 713 c 0
 481 713 571 628 571 520 c 0
 571 400 440 339 274 339 c 1
317 -16 m 0
 148 -16 48 98 48 222 c 1
 214 222 l 1
 214 153 265 120 323 120 c 0
 381 120 424 148 424 208 c 0
 424 266 376 306 274 306 c 1
 274 392 l 1
 459 392 591 333 591 191 c 0
 591 69 488 -16 317 -16 c 0
EndSplineSet
Substitution2: "Tabular Numbers lookup" uniFF13
EndChar

StartChar: five
Encoding: 53 53 74
Width: 644
VWidth: 0
Flags: HMW
LayerCount: 2
Fore
SplineSet
604 224 m 0
 604 59 457 -13 322 -13 c 0
 193 -13 106 29 42 78 c 1
 108 217 l 1
 164 169 233 142 285 142 c 0
 369 142 420 174 420 242 c 0
 420 310 353 340 285 340 c 0
 231 340 159 332 88 296 c 1
 186 700 l 1
 590 700 l 1
 590 554 l 1
 310 554 l 1
 270 428 l 1
 307 446 348 453 392 453 c 0
 503 453 604 369 604 224 c 0
EndSplineSet
Substitution2: "Tabular Numbers lookup" uniFF15
EndChar

StartChar: six
Encoding: 54 54 75
Width: 668
VWidth: 0
Flags: HMW
LayerCount: 2
Fore
SplineSet
216 246 m 0
 216 174 267 128 334 128 c 0
 401 128 452 174 452 246 c 0
 452 318 401 365 334 365 c 0
 267 365 216 318 216 246 c 0
333 697 m 1
 547 697 l 1
 320 444 l 1
 286 429 l 1
 324 465 352 473 402 473 c 0
 507 473 619 388 619 246 c 0
 619 74 490 -16 334 -16 c 0
 178 -16 50 74 50 246 c 0
 50 322 85 384 131 440 c 2
 333 697 l 1
EndSplineSet
Substitution2: "Tabular Numbers lookup" uniFF16
EndChar

StartChar: seven
Encoding: 55 55 76
Width: 602
VWidth: 0
Flags: HMW
LayerCount: 2
Fore
SplineSet
30 542 m 1
 30 700 l 1
 600 700 l 1
 262 0 l 1
 80 0 l 1
 353 542 l 1
 30 542 l 1
EndSplineSet
Substitution2: "Tabular Numbers lookup" uniFF17
EndChar

StartChar: plus
Encoding: 43 43 77
Width: 673
VWidth: 0
Flags: HMW
LayerCount: 2
Fore
SplineSet
65 196 m 1
 65 341 l 1
 609 341 l 1
 609 196 l 1
 65 196 l 1
259 540 m 1
 415 540 l 1
 415 -2 l 1
 259 -2 l 1
 259 540 l 1
EndSplineSet
EndChar

StartChar: equal
Encoding: 61 61 78
Width: 625
VWidth: 0
Flags: HMW
LayerCount: 2
Fore
SplineSet
56 84 m 1
 56 215 l 1
 570 215 l 1
 570 84 l 1
 56 84 l 1
56 290 m 1
 56 421 l 1
 570 421 l 1
 570 290 l 1
 56 290 l 1
EndSplineSet
EndChar

StartChar: percent
Encoding: 37 37 79
Width: 917
VWidth: 0
Flags: HMW
LayerCount: 2
Fore
SplineSet
22 534 m 0
 22 636 104 719 212 719 c 0
 320 719 401 636 401 534 c 0
 401 432 320 350 212 350 c 0
 104 350 22 432 22 534 c 0
147 534 m 0
 147 498 174 468 212 468 c 0
 250 468 276 498 276 534 c 0
 276 570 250 601 212 601 c 0
 174 601 147 570 147 534 c 0
518 166 m 0
 518 268 599 351 707 351 c 0
 815 351 896 268 896 166 c 0
 896 64 815 -18 707 -18 c 0
 599 -18 518 64 518 166 c 0
642 166 m 0
 642 130 669 100 707 100 c 0
 745 100 772 130 772 166 c 0
 772 202 745 232 707 232 c 0
 669 232 642 202 642 166 c 0
650 700 m 1
 806 700 l 1
 268 0 l 1
 113 0 l 1
 650 700 l 1
EndSplineSet
EndChar

StartChar: ampersand
Encoding: 38 38 80
Width: 751
VWidth: 0
Flags: HMW
LayerCount: 2
Fore
SplineSet
223 372 m 2
 176 423 126 473 126 544 c 0
 126 632 207 717 341 717 c 0
 471 717 543 632 543 548 c 0
 543 456 483 418 371 344 c 0
 299 298 198 283 198 201 c 0
 198 153 236 114 304 114 c 0
 418 114 528 216 608 340 c 1
 708 263 l 1
 620 135 482 -13 284 -13 c 0
 150 -13 40 63 40 188 c 0
 40 348 221 386 291 420 c 0
 366 456 406 497 406 534 c 0
 406 566 380 597 340 597 c 0
 294 597 272 566 272 534 c 0
 272 494 311 458 365 400 c 2
 735 0 l 1
 562 0 l 1
 223 372 l 2
EndSplineSet
EndChar

StartChar: question
Encoding: 63 63 81
Width: 626
VWidth: 0
Flags: HMW
LayerCount: 2
Fore
SplineSet
420 500 m 0
 420 558 380 592 308 592 c 0
 247 592 187 561 150 505 c 1
 48 589 l 1
 118 671 199 719 318 719 c 0
 449 719 573 638 573 500 c 0
 573 378 464 304 358 286 c 1
 354 201 l 1
 232 201 l 1
 212 379 l 1
 244 379 l 2
 364 379 420 448 420 500 c 0
200 58 m 0
 200 102 239 141 293 141 c 0
 347 141 388 102 388 58 c 0
 388 14 347 -24 293 -24 c 0
 239 -24 200 14 200 58 c 0
EndSplineSet
EndChar

StartChar: parenleft
Encoding: 40 40 82
Width: 340
VWidth: 0
Flags: HMW
LayerCount: 2
Fore
SplineSet
190 780 m 1
 326 780 l 1
 256 630 217 460 217 290 c 0
 217 120 256 -50 326 -200 c 1
 190 -200 l 1
 110 -50 68 120 68 290 c 0
 68 460 110 630 190 780 c 1
EndSplineSet
EndChar

StartChar: parenright
Encoding: 41 41 83
Width: 340
VWidth: 0
Flags: HMW
LayerCount: 2
Fore
SplineSet
151 -200 m 1
 14 -200 l 1
 84 -50 124 120 124 290 c 0
 124 460 84 630 14 780 c 1
 151 780 l 1
 231 630 273 460 273 290 c 0
 273 120 231 -50 151 -200 c 1
EndSplineSet
EndChar

StartChar: asterisk
Encoding: 42 42 84
Width: 592
VWidth: 0
Flags: HMW
LayerCount: 2
Fore
SplineSet
498 604 m 1
 541 472 l 1
 308 429 l 1
 284 500 l 1
 498 604 l 1
490 315 m 1
 378 234 l 1
 266 443 l 1
 326 487 l 1
 490 315 l 1
214 234 m 1
 102 315 l 1
 266 487 l 1
 326 443 l 1
 214 234 l 1
51 472 m 1
 94 604 l 1
 308 500 l 1
 284 429 l 1
 51 472 l 1
227 700 m 1
 365 700 l 1
 334 465 l 1
 258 465 l 1
 227 700 l 1
EndSplineSet
EndChar

StartChar: less
Encoding: 60 60 85
Width: 640
VWidth: 0
Flags: HMW
LayerCount: 2
Fore
SplineSet
280 268 m 1
 575 148 l 1
 575 -0 l 1
 65 214 l 1
 65 314 l 1
 575 528 l 1
 575 380 l 1
 280 268 l 1
EndSplineSet
EndChar

StartChar: greater
Encoding: 62 62 86
Width: 640
VWidth: 0
Flags: HMW
LayerCount: 2
Fore
SplineSet
360 260 m 1
 65 380 l 1
 65 528 l 1
 575 314 l 1
 575 214 l 1
 65 -0 l 1
 65 148 l 1
 360 260 l 1
EndSplineSet
EndChar

StartChar: bracketleft
Encoding: 91 91 87
Width: 361
VWidth: 0
Flags: HMW
LayerCount: 2
Fore
SplineSet
241 649 m 1
 241 -89 l 1
 342 -89 l 1
 342 -220 l 1
 91 -220 l 1
 91 780 l 1
 342 780 l 1
 342 649 l 1
 241 649 l 1
EndSplineSet
EndChar

StartChar: bracketright
Encoding: 93 93 88
Width: 361
VWidth: 0
Flags: HMW
LayerCount: 2
Fore
SplineSet
121 -89 m 1
 121 649 l 1
 20 649 l 1
 20 780 l 1
 272 780 l 1
 272 -220 l 1
 20 -220 l 1
 20 -89 l 1
 121 -89 l 1
EndSplineSet
EndChar

StartChar: asciicircum
Encoding: 94 94 89
Width: 510
VWidth: 0
Flags: HMW
LayerCount: 2
Fore
SplineSet
255 581 m 1
 176 448 l 1
 40 448 l 1
 210 710 l 1
 300 710 l 1
 470 448 l 1
 334 448 l 1
 255 581 l 1
EndSplineSet
EndChar

StartChar: underscore
Encoding: 95 95 90
Width: 530
VWidth: 0
Flags: HMW
LayerCount: 2
Fore
SplineSet
0 -154 m 1
 0 -58 l 1
 531 -58 l 1
 531 -154 l 1
 0 -154 l 1
EndSplineSet
EndChar

StartChar: grave
Encoding: 96 96 91
Width: 375
VWidth: 0
Flags: HMW
LayerCount: 2
Fore
SplineSet
54 654 m 1
 168 706 l 1
 318 546 l 1
 234 504 l 1
 54 654 l 1
EndSplineSet
EndChar

StartChar: braceleft
Encoding: 123 123 92
Width: 397
VWidth: 0
Flags: HMW
LayerCount: 2
Fore
SplineSet
265 610 m 2
 265 490 l 2
 265 401 261 280 121 280 c 1
 121 300 l 1
 261 300 265 179 265 90 c 2
 265 -30 l 2
 265 -56 283 -80 313 -80 c 2
 348 -80 l 1
 348 -200 l 1
 257 -200 l 2
 176 -200 98 -159 98 -60 c 2
 98 126 l 2
 98 202 80 226 38 236 c 1
 38 344 l 1
 80 354 98 378 98 454 c 2
 98 640 l 2
 98 739 176 780 257 780 c 2
 348 780 l 1
 348 660 l 1
 313 660 l 2
 283 660 265 636 265 610 c 2
EndSplineSet
EndChar

StartChar: braceright
Encoding: 125 125 93
Width: 397
VWidth: 0
Flags: HMW
LayerCount: 2
Fore
SplineSet
136 -30 m 2
 136 90 l 2
 136 179 140 300 280 300 c 1
 280 280 l 1
 140 280 136 401 136 490 c 2
 136 610 l 2
 136 636 118 660 88 660 c 2
 54 660 l 1
 54 780 l 1
 144 780 l 2
 225 780 304 739 304 640 c 2
 304 454 l 2
 304 378 322 354 364 344 c 1
 364 236 l 1
 322 226 304 202 304 126 c 2
 304 -60 l 2
 304 -159 225 -200 144 -200 c 2
 54 -200 l 1
 54 -80 l 1
 88 -80 l 2
 118 -80 136 -56 136 -30 c 2
EndSplineSet
EndChar

StartChar: asciitilde
Encoding: 126 126 94
Width: 575
VWidth: 0
Flags: HMW
LayerCount: 2
Fore
SplineSet
156 164 m 1
 37 168 l 1
 35 175 34 183 34 192 c 0
 34 226 42 258 66 288 c 0
 94 322 128 346 194 346 c 0
 239 346 270 330 318 298 c 0
 350 276 372 262 390 262 c 0
 412 262 423 280 423 302 c 0
 423 313 420 326 416 336 c 1
 537 330 l 1
 539 322 541 312 541 302 c 0
 541 270 535 235 512 206 c 0
 486 172 454 154 400 154 c 0
 360 154 325 171 276 203 c 0
 244 225 218 238 193 238 c 0
 161 238 150 214 150 192 c 0
 150 179 153 172 156 164 c 1
EndSplineSet
EndChar

StartChar: exclamdown
Encoding: 161 161 95
Width: 343
VWidth: 0
Flags: HMW
LayerCount: 2
Fore
SplineSet
265 -230 m 1
 78 -230 l 1
 111 240 l 1
 233 240 l 1
 265 -230 l 1
266 409 m 0
 266 359 226 323 172 323 c 0
 118 323 78 359 78 409 c 0
 78 459 118 494 172 494 c 0
 226 494 266 459 266 409 c 0
EndSplineSet
EndChar

StartChar: cent
Encoding: 162 162 96
Width: 580
VWidth: 0
Flags: HMW
LayerCount: 2
Fore
SplineSet
237 38 m 1
 347 38 l 1
 356 -112 l 1
 227 -112 l 1
 237 38 l 1
205 230 m 0
 205 152 262 110 328 110 c 0
 390 110 437 141 464 180 c 1
 464 30 l 1
 432 4 379 -10 316 -10 c 0
 162 -10 50 85 50 230 c 0
 50 375 162 470 316 470 c 0
 379 470 432 454 464 430 c 1
 464 280 l 1
 437 319 390 350 328 350 c 0
 262 350 205 302 205 230 c 0
227 578 m 1
 356 578 l 1
 347 428 l 1
 237 428 l 1
 227 578 l 1
EndSplineSet
EndChar

StartChar: sterling
Encoding: 163 163 97
Width: 610
VWidth: 0
Flags: HMW
LayerCount: 2
Fore
SplineSet
67 370 m 1
 446 370 l 1
 446 270 l 1
 67 270 l 1
 67 370 l 1
434 466 m 1
 430 520 408 576 334 576 c 0
 286 576 243 554 243 496 c 0
 243 411 335 382 335 270 c 0
 335 164 214 70 140 50 c 1
 191 139 l 1
 538 139 l 1
 538 0 l 1
 52 0 l 1
 150 102 190 186 190 286 c 0
 190 380 85 403 85 521 c 0
 85 640 195 710 327 710 c 0
 479 710 566 603 571 517 c 1
 434 466 l 1
EndSplineSet
EndChar

StartChar: currency
Encoding: 164 164 98
Width: 576
VWidth: 0
Flags: HMW
LayerCount: 2
Fore
SplineSet
23 503 m 1
 86 566 l 1
 184 465 l 1
 124 404 l 1
 23 503 l 1
86 34 m 1
 23 97 l 1
 124 196 l 1
 184 135 l 1
 86 34 l 1
454 404 m 1
 392 465 l 1
 492 566 l 1
 554 503 l 1
 454 404 l 1
392 135 m 1
 454 196 l 1
 554 97 l 1
 492 34 l 1
 392 135 l 1
50 300 m 0
 50 439 153 540 288 540 c 0
 423 540 526 439 526 300 c 0
 526 161 423 60 288 60 c 0
 153 60 50 161 50 300 c 0
188 300 m 0
 188 238 229 197 288 197 c 0
 347 197 390 238 390 300 c 0
 390 362 347 403 288 403 c 0
 229 403 188 362 188 300 c 0
EndSplineSet
EndChar

StartChar: yen
Encoding: 165 165 99
Width: 668
VWidth: 0
Flags: HMW
LayerCount: 2
Fore
SplineSet
45 266 m 1
 45 365 l 1
 620 365 l 1
 620 266 l 1
 45 266 l 1
45 116 m 1
 45 215 l 1
 620 215 l 1
 620 116 l 1
 45 116 l 1
471 700 m 1
 664 700 l 1
 421 288 l 1
 421 0 l 1
 248 0 l 1
 248 284 l 1
 2 700 l 1
 197 700 l 1
 333 436 l 1
 471 700 l 1
EndSplineSet
EndChar

StartChar: brokenbar
Encoding: 166 166 100
Width: 351
VWidth: 0
Flags: HMW
LayerCount: 2
Fore
SplineSet
100 695 m 1
 252 695 l 1
 252 430 l 1
 100 430 l 1
 100 695 l 1
252 270 m 1
 252 5 l 1
 100 5 l 1
 100 270 l 1
 252 270 l 1
EndSplineSet
EndChar

StartChar: section
Encoding: 167 167 101
Width: 575
VWidth: 0
Flags: HMW
LayerCount: 2
Fore
SplineSet
400 549 m 1
 372 579 325 598 294 598 c 0
 260 598 242 587 242 569 c 0
 242 543 290 535 344 519 c 0
 420 497 480 451 480 378 c 0
 480 274 376 228 268 228 c 1
 268 270 l 1
 306 276 342 304 342 344 c 0
 342 398 273 416 221 436 c 0
 163 458 99 495 99 578 c 0
 99 674 194 724 284 724 c 0
 364 724 444 689 472 648 c 1
 400 549 l 1
128 174 m 1
 177 124 240 102 278 102 c 0
 316 102 332 115 332 137 c 0
 332 169 289 178 235 194 c 0
 159 214 84 257 84 334 c 0
 84 428 189 480 303 480 c 1
 303 442 l 1
 261 428 226 410 226 369 c 0
 226 309 306 299 357 278 c 0
 422 251 484 210 484 130 c 0
 484 25 384 -22 285 -22 c 0
 175 -22 101 20 56 76 c 1
 128 174 l 1
EndSplineSet
EndChar

StartChar: dieresis
Encoding: 168 168 102
Width: 510
VWidth: 0
Flags: HMW
LayerCount: 2
Fore
SplineSet
289 632 m 0
 289 680 329 714 377 714 c 0
 425 714 465 680 465 632 c 0
 465 584 425 550 377 550 c 0
 329 550 289 584 289 632 c 0
46 632 m 0
 46 680 86 714 134 714 c 0
 182 714 222 680 222 632 c 0
 222 584 182 550 134 550 c 0
 86 550 46 584 46 632 c 0
EndSplineSet
EndChar

StartChar: copyright
Encoding: 169 169 103
Width: 800
VWidth: 0
Flags: HMW
LayerCount: 2
Fore
SplineSet
289 350 m 0
 289 272 345 226 415 226 c 0
 474 226 512 252 540 282 c 1
 540 172 l 1
 506 146 470 130 409 130 c 0
 275 130 178 220 178 350 c 0
 178 480 275 570 409 570 c 0
 470 570 506 554 540 528 c 1
 540 418 l 1
 512 448 474 474 415 474 c 0
 345 474 289 428 289 350 c 0
95 350 m 0
 95 172 227 40 400 40 c 0
 573 40 705 172 705 350 c 0
 705 528 573 660 400 660 c 0
 227 660 95 528 95 350 c 0
40 350 m 0
 40 559 196 710 400 710 c 0
 604 710 760 559 760 350 c 0
 760 141 604 -10 400 -10 c 0
 196 -10 40 141 40 350 c 0
EndSplineSet
EndChar

StartChar: registered
Encoding: 174 174 104
Width: 800
VWidth: 0
Flags: HMW
LayerCount: 2
Fore
SplineSet
376 328 m 1
 470 328 l 1
 589 150 l 1
 470 150 l 1
 376 328 l 1
254 570 m 1
 355 570 l 1
 355 150 l 1
 254 150 l 1
 254 570 l 1
316 484 m 1
 316 570 l 1
 406 570 l 2
 513 570 570 514 570 440 c 0
 570 359 513 302 406 302 c 2
 316 302 l 1
 316 380 l 1
 400 380 l 2
 441 380 466 397 466 432 c 0
 466 467 441 485 400 485 c 2
 316 484 l 1
95 350 m 0
 95 172 227 40 400 40 c 0
 573 40 705 172 705 350 c 0
 705 528 573 660 400 660 c 0
 227 660 95 528 95 350 c 0
40 350 m 0
 40 559 196 710 400 710 c 0
 604 710 760 559 760 350 c 0
 760 141 604 -10 400 -10 c 0
 196 -10 40 141 40 350 c 0
EndSplineSet
EndChar

StartChar: ordfeminine
Encoding: 170 170 105
Width: 269
VWidth: 0
Flags: HMW
LayerCount: 2
Fore
SplineSet
94 530 m 0
 94 514 105 505 127 505 c 0
 153 505 178 516 178 553 c 1
 186 525 l 1
 186 481 150 455 102 455 c 0
 54 455 18 482 18 528 c 0
 18 574 60 603 116 603 c 0
 151 603 184 589 194 579 c 1
 194 543 l 1
 176 556 160 562 134 562 c 0
 110 562 94 548 94 530 c 0
64 624 m 1
 38 678 l 1
 64 690 102 705 144 705 c 0
 206 705 250 678 250 630 c 2
 250 460 l 1
 178 460 l 1
 178 610 l 2
 178 630 163 646 138 646 c 0
 105 646 75 630 64 624 c 1
EndSplineSet
EndChar

StartChar: ordmasculine
Encoding: 186 186 106
Width: 278
VWidth: 0
Flags: HMW
LayerCount: 2
Fore
SplineSet
18 580 m 0
 18 652 74 700 150 700 c 0
 226 700 282 652 282 580 c 0
 282 508 226 460 150 460 c 0
 74 460 18 508 18 580 c 0
96 580 m 0
 96 544 120 522 150 522 c 0
 180 522 204 544 204 580 c 0
 204 616 180 638 150 638 c 0
 120 638 96 616 96 580 c 0
EndSplineSet
EndChar

StartChar: guillemotleft
Encoding: 171 171 107
Width: 540
VWidth: 0
Flags: HMW
LayerCount: 2
Fore
SplineSet
352 259 m 1
 502 65 l 1
 408 2 l 1
 231 255 l 1
 408 508 l 1
 502 445 l 1
 352 259 l 1
148 259 m 1
 298 65 l 1
 206 2 l 1
 28 255 l 1
 206 508 l 1
 298 445 l 1
 148 259 l 1
EndSplineSet
EndChar

StartChar: guillemotright
Encoding: 187 187 108
Width: 540
VWidth: 0
Flags: HMW
LayerCount: 2
Fore
SplineSet
189 251 m 1
 39 445 l 1
 132 508 l 1
 310 255 l 1
 132 2 l 1
 39 65 l 1
 189 251 l 1
392 251 m 1
 242 445 l 1
 336 508 l 1
 513 255 l 1
 336 2 l 1
 242 65 l 1
 392 251 l 1
EndSplineSet
EndChar

StartChar: uni00AD
Encoding: 173 173 109
Width: 210
VWidth: 0
Flags: HMW
LayerCount: 2
Fore
SplineSet
5 200 m 1
 5 275 l 1
 205 275 l 1
 205 200 l 1
 5 200 l 1
EndSplineSet
EndChar

StartChar: logicalnot
Encoding: 172 172 110
Width: 650
VWidth: 0
Flags: HMW
LayerCount: 2
Fore
SplineSet
65 272 m 1
 65 402 l 1
 585 402 l 1
 585 175 l 1
 480 175 l 1
 480 272 l 1
 65 272 l 1
EndSplineSet
EndChar

StartChar: macron
Encoding: 175 175 111
Width: 531
VWidth: 0
Flags: HMW
LayerCount: 2
Fore
SplineSet
80 572 m 1
 80 702 l 1
 452 702 l 1
 452 572 l 1
 80 572 l 1
EndSplineSet
EndChar

StartChar: degree
Encoding: 176 176 112
Width: 295
VWidth: 0
Flags: HMW
LayerCount: 2
Fore
SplineSet
17 597 m 0
 17 669 72 720 148 720 c 0
 224 720 280 669 280 597 c 0
 280 525 224 474 148 474 c 0
 72 474 17 525 17 597 c 0
91 597 m 0
 91 561 116 538 148 538 c 0
 180 538 205 561 205 597 c 0
 205 633 180 656 148 656 c 0
 116 656 91 633 91 597 c 0
EndSplineSet
EndChar

StartChar: plusminus
Encoding: 177 177 113
Width: 632
VWidth: 0
Flags: HMW
LayerCount: 2
Fore
SplineSet
65 6 m 1
 65 136 l 1
 568 136 l 1
 568 6 l 1
 65 6 l 1
65 332 m 1
 65 468 l 1
 568 468 l 1
 568 332 l 1
 65 332 l 1
240 620 m 1
 393 620 l 1
 393 181 l 1
 240 181 l 1
 240 620 l 1
EndSplineSet
EndChar

StartChar: uni00B2
Encoding: 178 178 114
Width: 407
VWidth: 0
Flags: HMW
LayerCount: 2
Fore
SplineSet
25 282 m 1
 212 476 l 2
 246 512 266 536 266 570 c 0
 266 597 248 624 210 624 c 0
 170 624 144 592 144 546 c 1
 45 546 l 1
 45 635 104 710 214 710 c 0
 318 710 370 640 370 575 c 0
 370 531 346 493 310 462 c 2
 213 374 l 1
 381 374 l 1
 381 282 l 1
 25 282 l 1
EndSplineSet
EndChar

StartChar: uni00B3
Encoding: 179 179 115
Width: 364
VWidth: 0
Flags: HMW
LayerCount: 2
Fore
SplineSet
154 483 m 1
 154 528 l 1
 200 528 232 555 232 586 c 0
 232 612 216 627 184 627 c 0
 152 627 129 608 129 578 c 1
 36 578 l 1
 36 652 94 708 184 708 c 0
 278 708 332 656 332 592 c 0
 332 520 254 483 154 483 c 1
180 270 m 0
 78 270 18 340 18 414 c 1
 118 414 l 1
 118 372 149 352 184 352 c 0
 219 352 244 367 244 404 c 0
 244 439 216 464 154 464 c 1
 154 515 l 1
 265 515 344 479 344 395 c 0
 344 323 282 270 180 270 c 0
EndSplineSet
EndChar

StartChar: acute
Encoding: 180 180 116
Width: 375
VWidth: 0
Flags: HMW
LayerCount: 2
Fore
SplineSet
318 654 m 1
 138 504 l 1
 54 546 l 1
 204 706 l 1
 318 654 l 1
EndSplineSet
EndChar

StartChar: mu
Encoding: 181 181 117
Width: 574
VWidth: 0
Flags: HMW
LayerCount: 2
Fore
SplineSet
364 0 m 1
 364 460 l 1
 515 460 l 1
 515 0 l 1
 364 0 l 1
217 180 m 2
 217 126 234 95 284 95 c 0
 332 95 364 126 364 180 c 1
 394 186 l 1
 394 77 338 -10 224 -10 c 0
 110 -10 60 51 60 164 c 2
 60 460 l 1
 217 460 l 1
 217 180 l 2
60 460 m 1
 205 460 l 1
 205 -320 l 1
 60 -320 l 1
 60 460 l 1
EndSplineSet
EndChar

StartChar: paragraph
Encoding: 182 182 118
Width: 670
VWidth: 0
Flags: HMW
LayerCount: 2
Fore
SplineSet
288 608 m 1
 288 700 l 1
 519 700 l 1
 519 608 l 1
 288 608 l 1
479 700 m 1
 611 700 l 1
 611 -220 l 1
 479 -220 l 1
 479 700 l 1
288 700 m 1
 420 700 l 1
 420 -220 l 1
 288 -220 l 1
 288 700 l 1
288 270 m 1
 163 270 60 346 60 485 c 0
 60 624 163 700 288 700 c 1
 288 270 l 1
EndSplineSet
EndChar

StartChar: periodcentered
Encoding: 183 183 119
Width: 321
VWidth: 0
Flags: HMW
LayerCount: 2
Fore
SplineSet
68 268 m 0
 68 318 108 360 162 360 c 0
 216 360 255 318 255 268 c 0
 255 218 216 176 162 176 c 0
 108 176 68 218 68 268 c 0
EndSplineSet
EndChar

StartChar: uni00B9
Encoding: 185 185 120
Width: 481
VWidth: 0
Flags: HMW
LayerCount: 2
Fore
SplineSet
134 572 m 1
 134 661 l 1
 335 702 l 1
 335 274 l 1
 238 274 l 1
 238 599 l 1
 134 572 l 1
EndSplineSet
EndChar

StartChar: cedilla
Encoding: 184 184 121
Width: 393
VWidth: 0
Flags: HMW
LayerCount: 2
Fore
SplineSet
184 72 m 1
 294 68 l 1
 208 -54 l 1
 219 -52 231 -50 244 -50 c 0
 284 -50 335 -82 335 -148 c 0
 335 -220 268 -257 204 -257 c 0
 148 -257 106 -248 60 -218 c 1
 106 -150 l 1
 131 -168 164 -174 184 -174 c 0
 218 -174 238 -164 238 -140 c 0
 238 -114 209 -108 178 -108 c 0
 168 -108 131 -110 96 -124 c 1
 184 72 l 1
EndSplineSet
EndChar

StartChar: questiondown
Encoding: 191 191 122
Width: 626
VWidth: 0
Flags: HMW
LayerCount: 2
Fore
SplineSet
206 200 m 0
 206 142 247 108 319 108 c 0
 380 108 439 139 476 195 c 1
 579 111 l 1
 509 29 428 -19 309 -19 c 0
 178 -19 54 62 54 200 c 0
 54 322 162 396 268 414 c 1
 273 499 l 1
 395 499 l 1
 415 321 l 1
 383 321 l 2
 263 321 206 252 206 200 c 0
427 642 m 0
 427 598 387 559 333 559 c 0
 279 559 239 598 239 642 c 0
 239 686 279 724 333 724 c 0
 387 724 427 686 427 642 c 0
EndSplineSet
EndChar

StartChar: multiply
Encoding: 215 215 123
Width: 596
VWidth: 0
Flags: HMW
LayerCount: 2
Fore
SplineSet
140 4 m 1
 46 96 l 1
 210 255 l 1
 46 414 l 1
 140 506 l 1
 298 344 l 1
 456 506 l 1
 550 414 l 1
 386 255 l 1
 550 96 l 1
 456 4 l 1
 298 166 l 1
 140 4 l 1
EndSplineSet
EndChar

StartChar: Oslash
Encoding: 216 216 124
Width: 790
VWidth: 0
Flags: HMW
LayerCount: 2
Fore
SplineSet
213 350 m 0
 213 223 291 139 410 139 c 0
 529 139 608 223 608 350 c 0
 608 477 529 561 410 561 c 0
 291 561 213 477 213 350 c 0
34 350 m 0
 34 566 194 716 410 716 c 0
 626 716 787 566 787 350 c 0
 787 134 626 -22 410 -22 c 0
 194 -22 34 134 34 350 c 0
697 756 m 1
 768 704 l 1
 120 -56 l 1
 49 -4 l 1
 697 756 l 1
EndSplineSet
EndChar

StartChar: Thorn
Encoding: 222 222 125
Width: 611
VWidth: 0
Flags: HMW
LayerCount: 2
Fore
SplineSet
80 700 m 1
 227 700 l 1
 227 0 l 1
 80 0 l 1
 80 700 l 1
173 446 m 1
 173 578 l 1
 310 578 l 2
 488 578 582 495 582 353 c 0
 582 211 488 128 310 128 c 2
 173 128 l 1
 173 260 l 1
 310 260 l 2
 387 260 432 285 432 353 c 0
 432 421 387 446 310 446 c 2
 173 446 l 1
EndSplineSet
EndChar

StartChar: divide
Encoding: 247 247 126
Width: 639
VWidth: 0
Flags: HMW
LayerCount: 2
Fore
SplineSet
225 552 m 0
 225 602 265 644 319 644 c 0
 373 644 414 602 414 552 c 0
 414 502 373 460 319 460 c 0
 265 460 225 502 225 552 c 0
225 98 m 0
 225 148 265 190 319 190 c 0
 373 190 414 148 414 98 c 0
 414 48 373 6 319 6 c 0
 265 6 225 48 225 98 c 0
26 259 m 1
 26 395 l 1
 613 395 l 1
 613 259 l 1
 26 259 l 1
EndSplineSet
EndChar

StartChar: oslash
Encoding: 248 248 127
Width: 546
VWidth: 0
Flags: HMW
LayerCount: 2
Fore
SplineSet
32 230 m 0
 32 382 146 470 294 470 c 0
 442 470 557 382 557 230 c 0
 557 78 442 -10 294 -10 c 0
 146 -10 32 78 32 230 c 0
175 230 m 0
 175 152 228 108 294 108 c 0
 360 108 414 152 414 230 c 0
 414 302 360 352 294 352 c 0
 228 352 175 302 175 230 c 0
456 506 m 1
 512 474 l 1
 122 -50 l 1
 66 -18 l 1
 456 506 l 1
EndSplineSet
EndChar

StartChar: circumflex
Encoding: 710 710 128
Width: 480
VWidth: 0
Flags: HMW
LayerCount: 2
Fore
SplineSet
240 630 m 1
 148 544 l 1
 43 614 l 1
 240 754 l 1
 437 614 l 1
 332 544 l 1
 240 630 l 1
EndSplineSet
EndChar

StartChar: ogonek
Encoding: 731 731 129
Width: 260
VWidth: 0
Flags: HMW
LayerCount: 2
Fore
SplineSet
194 -112 m 1
 227 -180 l 1
 212 -200 182 -220 126 -220 c 0
 60 -220 10 -185 10 -120 c 0
 10 -55 78 -11 148 25 c 1
 189 0 l 1
 137 -28 108 -63 108 -94 c 0
 108 -118 120 -132 144 -132 c 0
 164 -132 180 -125 194 -112 c 1
EndSplineSet
EndChar

StartChar: tilde
Encoding: 732 732 130
Width: 530
VWidth: 0
Flags: HMW
LayerCount: 2
Fore
SplineSet
76 638 m 1
 86 687 131 732 195 732 c 0
 261 732 275 680 331 680 c 0
 356 680 376 700 396 732 c 1
 467 659 l 1
 451 622 395 574 333 574 c 0
 278 574 244 626 194 626 c 0
 156 626 147 591 147 576 c 1
 76 638 l 1
EndSplineSet
EndChar

StartChar: ring
Encoding: 730 730 131
Width: 327
VWidth: 0
Flags: HMW
LayerCount: 2
Fore
SplineSet
38 770 m 0
 38 838 94 885 164 885 c 0
 234 885 288 838 288 770 c 0
 288 702 234 654 164 654 c 0
 94 654 38 702 38 770 c 0
117 770 m 0
 117 740 139 722 164 722 c 0
 189 722 210 740 210 770 c 0
 210 800 189 818 164 818 c 0
 139 818 117 800 117 770 c 0
EndSplineSet
EndChar

StartChar: dotaccent
Encoding: 729 729 132
Width: 300
VWidth: 0
Flags: HMW
LayerCount: 2
Fore
SplineSet
62 813 m 0
 62 861 102 895 150 895 c 0
 198 895 238 861 238 813 c 0
 238 765 198 731 150 731 c 0
 102 731 62 765 62 813 c 0
EndSplineSet
EndChar

StartChar: uni2010
Encoding: 8208 8208 133
Width: 221
VWidth: 0
Flags: HMW
LayerCount: 2
Fore
SplineSet
5 172 m 1
 5 302 l 1
 218 302 l 1
 218 172 l 1
 5 172 l 1
EndSplineSet
EndChar

StartChar: endash
Encoding: 8211 8211 134
Width: 783
VWidth: 0
Flags: HMW
LayerCount: 2
Fore
SplineSet
70 172 m 1
 70 302 l 1
 707 302 l 1
 707 172 l 1
 70 172 l 1
EndSplineSet
EndChar

StartChar: figuredash
Encoding: 8210 8210 135
Width: 626
VWidth: 0
Flags: HMW
LayerCount: 2
Fore
SplineSet
70 172 m 1
 70 302 l 1
 548 302 l 1
 548 172 l 1
 70 172 l 1
EndSplineSet
EndChar

StartChar: emdash
Encoding: 8212 8212 136
Width: 939
VWidth: 0
Flags: HMW
LayerCount: 2
Fore
SplineSet
70 172 m 1
 70 302 l 1
 866 302 l 1
 866 172 l 1
 70 172 l 1
EndSplineSet
EndChar

StartChar: minus
Encoding: 8722 8722 137
Width: 592
VWidth: 0
Flags: HMW
LayerCount: 2
Fore
SplineSet
58 172 m 1
 58 302 l 1
 536 302 l 1
 536 172 l 1
 58 172 l 1
EndSplineSet
EndChar

StartChar: quoteright
Encoding: 8217 8217 138
Width: 330
VWidth: 0
Flags: HMW
LayerCount: 2
Fore
SplineSet
104 700 m 1
 261 700 l 1
 158 446 l 1
 50 446 l 1
 104 700 l 1
EndSplineSet
EndChar

StartChar: quoteleft
Encoding: 8216 8216 139
Width: 330
VWidth: 0
Flags: HMW
LayerCount: 2
Fore
SplineSet
227 446 m 1
 70 446 l 1
 173 700 l 1
 281 700 l 1
 227 446 l 1
EndSplineSet
EndChar

StartChar: quotesinglbase
Encoding: 8218 8218 140
Width: 330
VWidth: 0
Flags: HMW
LayerCount: 2
Fore
SplineSet
114 80 m 1
 271 80 l 1
 168 -174 l 1
 60 -174 l 1
 114 80 l 1
EndSplineSet
EndChar

StartChar: quotedblleft
Encoding: 8220 8220 141
Width: 561
VWidth: 0
Flags: HMW
LayerCount: 2
Fore
SplineSet
227 446 m 1
 70 446 l 1
 173 700 l 1
 281 700 l 1
 227 446 l 1
458 446 m 1
 301 446 l 1
 404 700 l 1
 512 700 l 1
 458 446 l 1
EndSplineSet
EndChar

StartChar: quotedblright
Encoding: 8221 8221 142
Width: 561
VWidth: 0
Flags: HMW
LayerCount: 2
Fore
SplineSet
104 700 m 1
 261 700 l 1
 158 446 l 1
 50 446 l 1
 104 700 l 1
334 700 m 1
 492 700 l 1
 388 446 l 1
 281 446 l 1
 334 700 l 1
EndSplineSet
EndChar

StartChar: perthousand
Encoding: 8240 8240 143
Width: 1372
VWidth: 0
Flags: HMW
LayerCount: 2
Fore
SplineSet
972 166 m 0
 972 268 1054 351 1162 351 c 0
 1270 351 1350 268 1350 166 c 0
 1350 64 1270 -18 1162 -18 c 0
 1054 -18 972 64 972 166 c 0
1096 166 m 0
 1096 130 1124 100 1162 100 c 0
 1200 100 1226 130 1226 166 c 0
 1226 202 1200 232 1162 232 c 0
 1124 232 1096 202 1096 166 c 0
22 534 m 0
 22 636 104 719 212 719 c 0
 320 719 401 636 401 534 c 0
 401 432 320 350 212 350 c 0
 104 350 22 432 22 534 c 0
147 534 m 0
 147 498 174 468 212 468 c 0
 250 468 276 498 276 534 c 0
 276 570 250 601 212 601 c 0
 174 601 147 570 147 534 c 0
518 166 m 0
 518 268 599 351 707 351 c 0
 815 351 896 268 896 166 c 0
 896 64 815 -18 707 -18 c 0
 599 -18 518 64 518 166 c 0
642 166 m 0
 642 130 669 100 707 100 c 0
 745 100 772 130 772 166 c 0
 772 202 745 232 707 232 c 0
 669 232 642 202 642 166 c 0
650 700 m 1
 806 700 l 1
 268 0 l 1
 113 0 l 1
 650 700 l 1
EndSplineSet
EndChar

StartChar: guilsinglleft
Encoding: 8249 8249 144
Width: 350
VWidth: 0
Flags: HMW
LayerCount: 2
Fore
SplineSet
148 259 m 1
 298 65 l 1
 206 2 l 1
 28 255 l 1
 206 508 l 1
 298 445 l 1
 148 259 l 1
EndSplineSet
EndChar

StartChar: guilsinglright
Encoding: 8250 8250 145
Width: 350
VWidth: 0
Flags: HMW
LayerCount: 2
Fore
SplineSet
202 251 m 1
 52 445 l 1
 144 508 l 1
 322 255 l 1
 144 2 l 1
 52 65 l 1
 202 251 l 1
EndSplineSet
EndChar

StartChar: uni2031
Encoding: 8241 8241 146
Width: 1826
VWidth: 0
Flags: HMW
LayerCount: 2
Fore
SplineSet
1426 166 m 0
 1426 268 1508 351 1616 351 c 0
 1724 351 1804 268 1804 166 c 0
 1804 64 1724 -18 1616 -18 c 0
 1508 -18 1426 64 1426 166 c 0
1550 166 m 0
 1550 130 1578 100 1616 100 c 0
 1654 100 1680 130 1680 166 c 0
 1680 202 1654 232 1616 232 c 0
 1578 232 1550 202 1550 166 c 0
972 166 m 0
 972 268 1054 351 1162 351 c 0
 1270 351 1350 268 1350 166 c 0
 1350 64 1270 -18 1162 -18 c 0
 1054 -18 972 64 972 166 c 0
1096 166 m 0
 1096 130 1124 100 1162 100 c 0
 1200 100 1226 130 1226 166 c 0
 1226 202 1200 232 1162 232 c 0
 1124 232 1096 202 1096 166 c 0
22 534 m 0
 22 636 104 719 212 719 c 0
 320 719 401 636 401 534 c 0
 401 432 320 350 212 350 c 0
 104 350 22 432 22 534 c 0
147 534 m 0
 147 498 174 468 212 468 c 0
 250 468 276 498 276 534 c 0
 276 570 250 601 212 601 c 0
 174 601 147 570 147 534 c 0
518 166 m 0
 518 268 599 351 707 351 c 0
 815 351 896 268 896 166 c 0
 896 64 815 -18 707 -18 c 0
 599 -18 518 64 518 166 c 0
642 166 m 0
 642 130 669 100 707 100 c 0
 745 100 772 130 772 166 c 0
 772 202 745 232 707 232 c 0
 669 232 642 202 642 166 c 0
650 700 m 1
 806 700 l 1
 268 0 l 1
 113 0 l 1
 650 700 l 1
EndSplineSet
EndChar

StartChar: uni203D
Encoding: 8253 8253 147
Width: 626
VWidth: 0
Flags: HMW
LayerCount: 2
Fore
SplineSet
434 482 m 0
 434 556 381 592 300 592 c 0
 239 592 181 567 150 505 c 1
 48 589 l 1
 94 659 191 718 316 718 c 0
 447 718 573 638 573 500 c 0
 573 350 409 278 294 278 c 1
 275 348 l 1
 358 348 434 406 434 482 c 0
216 504 m 1
 360 504 l 1
 333 201 l 1
 243 201 l 1
 216 504 l 1
198 62 m 0
 198 110 239 148 293 148 c 0
 347 148 388 110 388 62 c 0
 388 14 347 -24 293 -24 c 0
 239 -24 198 14 198 62 c 0
EndSplineSet
EndChar

StartChar: Euro
Encoding: 8364 8364 148
Width: 653
VWidth: 0
Flags: HMW
LayerCount: 2
Fore
SplineSet
54 382 m 1
 54 466 l 1
 545 466 l 1
 545 382 l 1
 54 382 l 1
40 250 m 1
 40 334 l 1
 526 334 l 1
 526 250 l 1
 40 250 l 1
248 350 m 0
 248 200 316 120 413 120 c 0
 470 120 522 142 563 182 c 1
 563 22 l 1
 518 -4 467 -19 413 -19 c 0
 221 -19 101 141 101 350 c 0
 101 559 221 720 413 720 c 0
 467 720 518 705 563 679 c 1
 563 518 l 1
 522 558 470 580 413 580 c 0
 316 580 248 500 248 350 c 0
EndSplineSet
EndChar

StartChar: fraction
Encoding: 8260 8260 149
Width: 729
VWidth: 0
Flags: HMW
LayerCount: 2
Fore
SplineSet
580 700 m 1
 701 700 l 1
 181 0 l 1
 60 0 l 1
 580 700 l 1
EndSplineSet
EndChar

StartChar: onequarter
Encoding: 188 188 150
Width: 821
VWidth: 0
Flags: HMW
LayerCount: 2
Fore
SplineSet
630 700 m 1
 726 700 l 1
 206 0 l 1
 110 0 l 1
 630 700 l 1
24 572 m 1
 24 661 l 1
 226 702 l 1
 226 274 l 1
 128 274 l 1
 128 599 l 1
 24 572 l 1
406 75 m 1
 490 148 l 1
 675 148 l 0
 685 160 l 0
 792 160 l 1
 792 75 l 1
 406 75 l 1
509 104 m 1
 406 75 l 1
 651 420 l 1
 726 420 l 1
 726 0 l 1
 621 0 l 1
 621 97 l 0
 632 103 l 0
 632 274 l 1
 509 104 l 1
EndSplineSet
EndChar

StartChar: onehalf
Encoding: 189 189 151
Width: 892
VWidth: 0
Flags: HMW
LayerCount: 2
Fore
SplineSet
630 700 m 1
 726 700 l 1
 206 0 l 1
 110 0 l 1
 630 700 l 1
24 572 m 1
 24 661 l 1
 226 702 l 1
 226 274 l 1
 128 274 l 1
 128 599 l 1
 24 572 l 1
506 2 m 1
 692 196 l 2
 726 232 746 256 746 290 c 0
 746 317 728 344 690 344 c 0
 650 344 625 312 625 266 c 1
 526 266 l 1
 526 355 584 430 694 430 c 0
 798 430 851 360 851 295 c 0
 851 251 827 213 791 182 c 2
 692 94 l 1
 861 94 l 1
 861 2 l 1
 506 2 l 1
EndSplineSet
EndChar

StartChar: threequarters
Encoding: 190 190 152
Width: 878
VWidth: 0
Flags: HMW
LayerCount: 2
Fore
SplineSet
694 700 m 1
 790 700 l 1
 270 0 l 1
 174 0 l 1
 694 700 l 1
162 483 m 1
 162 528 l 1
 208 528 240 555 240 586 c 0
 240 612 224 627 192 627 c 0
 160 627 137 608 137 578 c 1
 44 578 l 1
 44 652 102 708 192 708 c 0
 286 708 340 656 340 592 c 0
 340 520 262 483 162 483 c 1
188 270 m 0
 86 270 26 340 26 414 c 1
 126 414 l 1
 126 372 157 352 192 352 c 0
 227 352 252 367 252 404 c 0
 252 439 224 464 162 464 c 1
 162 515 l 1
 273 515 352 479 352 395 c 0
 352 323 290 270 188 270 c 0
464 75 m 1
 547 148 l 1
 733 148 l 0
 743 160 l 0
 850 160 l 1
 850 75 l 1
 464 75 l 1
566 104 m 1
 464 75 l 1
 708 420 l 1
 784 420 l 1
 784 0 l 1
 678 0 l 1
 678 97 l 0
 690 103 l 0
 690 274 l 1
 566 104 l 1
EndSplineSet
EndChar

StartChar: uni2150
Encoding: 8528 8528 153
Width: 941
VWidth: 0
Flags: HMW
LayerCount: 2
Fore
SplineSet
605 700 m 1
 726 700 l 1
 206 0 l 1
 85 0 l 1
 605 700 l 1
24 572 m 1
 24 661 l 1
 226 702 l 1
 226 274 l 1
 128 274 l 1
 128 599 l 1
 24 572 l 1
577 326 m 1
 577 420 l 1
 920 420 l 1
 716 0 l 1
 608 0 l 1
 770 326 l 1
 577 326 l 1
EndSplineSet
EndChar

StartChar: uni2151
Encoding: 8529 8529 154
Width: 883
VWidth: 0
Flags: HMW
LayerCount: 2
Fore
SplineSet
599 700 m 1
 720 700 l 1
 200 0 l 1
 79 0 l 1
 599 700 l 1
24 572 m 1
 24 661 l 1
 226 702 l 1
 226 274 l 1
 128 274 l 1
 128 599 l 1
 24 572 l 1
760 275 m 0
 760 319 730 345 690 345 c 0
 650 345 619 319 619 275 c 0
 619 231 650 204 690 204 c 0
 730 204 760 231 760 275 c 0
691 4 m 1
 562 4 l 1
 698 156 l 1
 719 164 l 1
 697 142 678 138 648 138 c 0
 586 138 519 191 519 275 c 0
 519 378 596 432 690 432 c 0
 784 432 860 378 860 275 c 0
 860 229 840 192 812 158 c 2
 691 4 l 1
EndSplineSet
EndChar

StartChar: uni2152
Encoding: 8530 8530 155
Width: 1209
VWidth: 0
Flags: HMW
LayerCount: 2
Fore
SplineSet
599 700 m 1
 720 700 l 1
 200 0 l 1
 79 0 l 1
 599 700 l 1
24 572 m 1
 24 661 l 1
 226 702 l 1
 226 274 l 1
 128 274 l 1
 128 599 l 1
 24 572 l 1
550 300 m 1
 550 388 l 1
 752 428 l 1
 752 1 l 1
 654 1 l 1
 654 326 l 1
 550 300 l 1
925 210 m 0
 925 130 956 79 1002 79 c 0
 1048 79 1080 130 1080 210 c 0
 1080 290 1048 341 1002 341 c 0
 956 341 925 290 925 210 c 0
828 210 m 0
 828 346 898 428 1002 428 c 0
 1108 428 1178 346 1178 210 c 0
 1178 74 1108 -8 1002 -8 c 0
 898 -8 828 74 828 210 c 0
EndSplineSet
EndChar

StartChar: onethird
Encoding: 8531 8531 156
Width: 872
VWidth: 0
Flags: HMW
LayerCount: 2
Fore
SplineSet
598 700 m 1
 719 700 l 1
 199 0 l 1
 78 0 l 1
 598 700 l 1
24 572 m 1
 24 661 l 1
 226 702 l 1
 226 274 l 1
 128 274 l 1
 128 599 l 1
 24 572 l 1
658 203 m 1
 658 248 l 1
 704 248 736 275 736 306 c 0
 736 332 720 347 688 347 c 0
 656 347 634 328 634 298 c 1
 540 298 l 1
 540 372 598 428 688 428 c 0
 782 428 836 376 836 312 c 0
 836 240 758 203 658 203 c 1
684 -10 m 0
 582 -10 522 60 522 134 c 1
 622 134 l 1
 622 92 653 72 688 72 c 0
 723 72 748 87 748 124 c 0
 748 159 720 184 658 184 c 1
 658 235 l 1
 769 235 848 199 848 115 c 0
 848 43 786 -10 684 -10 c 0
EndSplineSet
EndChar

StartChar: twothirds
Encoding: 8532 8532 157
Width: 1005
VWidth: 0
Flags: HMW
LayerCount: 2
Fore
SplineSet
745 700 m 1
 866 700 l 1
 346 0 l 1
 225 0 l 1
 745 700 l 1
30 282 m 1
 218 476 l 2
 252 512 272 536 272 570 c 0
 272 597 253 624 215 624 c 0
 175 624 150 592 150 546 c 1
 50 546 l 1
 50 635 108 710 218 710 c 0
 322 710 376 640 376 575 c 0
 376 531 351 493 315 462 c 2
 218 374 l 1
 386 374 l 1
 386 282 l 1
 30 282 l 1
792 203 m 1
 792 248 l 1
 838 248 870 275 870 306 c 0
 870 332 854 347 822 347 c 0
 790 347 767 328 767 298 c 1
 673 298 l 1
 673 372 732 428 822 428 c 0
 916 428 970 376 970 312 c 0
 970 240 892 203 792 203 c 1
817 -10 m 0
 715 -10 655 60 655 134 c 1
 756 134 l 1
 756 92 786 72 821 72 c 0
 856 72 882 87 882 124 c 0
 882 159 854 184 792 184 c 1
 792 235 l 1
 903 235 982 199 982 115 c 0
 982 43 919 -10 817 -10 c 0
EndSplineSet
EndChar

StartChar: uni2155
Encoding: 8533 8533 158
Width: 861
VWidth: 0
Flags: HMW
LayerCount: 2
Fore
SplineSet
599 700 m 1
 720 700 l 1
 200 0 l 1
 79 0 l 1
 599 700 l 1
24 572 m 1
 24 661 l 1
 226 702 l 1
 226 274 l 1
 128 274 l 1
 128 599 l 1
 24 572 l 1
838 132 m 0
 838 33 750 -10 669 -10 c 0
 592 -10 542 14 502 44 c 1
 541 128 l 1
 575 100 615 83 647 83 c 0
 698 83 728 103 728 144 c 0
 728 185 688 202 647 202 c 0
 615 202 572 198 529 176 c 1
 600 226 l 1
 632 260 669 270 711 270 c 0
 777 270 838 219 838 132 c 0
662 330 m 1
 628 226 l 1
 529 176 l 1
 588 418 l 1
 830 418 l 1
 830 330 l 1
 662 330 l 1
EndSplineSet
EndChar

StartChar: uni2156
Encoding: 8534 8534 159
Width: 1004
VWidth: 0
Flags: HMW
LayerCount: 2
Fore
SplineSet
745 700 m 1
 866 700 l 1
 346 0 l 1
 225 0 l 1
 745 700 l 1
30 282 m 1
 218 476 l 2
 252 512 272 536 272 570 c 0
 272 597 253 624 215 624 c 0
 175 624 150 592 150 546 c 1
 50 546 l 1
 50 635 108 710 218 710 c 0
 322 710 376 640 376 575 c 0
 376 531 351 493 315 462 c 2
 218 374 l 1
 386 374 l 1
 386 282 l 1
 30 282 l 1
972 132 m 0
 972 33 883 -10 802 -10 c 0
 725 -10 675 14 635 44 c 1
 674 128 l 1
 708 100 748 83 780 83 c 0
 831 83 862 103 862 144 c 0
 862 185 821 202 780 202 c 0
 748 202 706 198 663 176 c 1
 733 226 l 1
 765 260 802 270 844 270 c 0
 910 270 972 219 972 132 c 0
796 330 m 1
 760 226 l 1
 663 176 l 1
 721 418 l 1
 964 418 l 1
 964 330 l 1
 796 330 l 1
EndSplineSet
EndChar

StartChar: uni2157
Encoding: 8535 8535 160
Width: 930
VWidth: 0
Flags: HMW
LayerCount: 2
Fore
SplineSet
674 700 m 1
 794 700 l 1
 274 0 l 1
 154 0 l 1
 674 700 l 1
159 483 m 1
 159 528 l 1
 205 528 236 555 236 586 c 0
 236 612 220 627 188 627 c 0
 156 627 134 608 134 578 c 1
 40 578 l 1
 40 652 100 708 190 708 c 0
 284 708 337 656 337 592 c 0
 337 520 259 483 159 483 c 1
184 270 m 0
 82 270 22 340 22 414 c 1
 123 414 l 1
 123 372 153 352 188 352 c 0
 223 352 248 367 248 404 c 0
 248 439 221 464 159 464 c 1
 159 515 l 1
 270 515 349 479 349 395 c 0
 349 323 286 270 184 270 c 0
894 132 m 0
 894 33 807 -10 726 -10 c 0
 649 -10 598 14 558 44 c 1
 597 128 l 1
 631 100 671 83 703 83 c 0
 754 83 785 103 785 144 c 0
 785 185 744 202 703 202 c 0
 671 202 629 198 586 176 c 1
 656 226 l 1
 688 260 726 270 768 270 c 0
 834 270 894 219 894 132 c 0
718 330 m 1
 683 226 l 1
 586 176 l 1
 644 418 l 1
 886 418 l 1
 886 330 l 1
 718 330 l 1
EndSplineSet
EndChar

StartChar: uni2158
Encoding: 8536 8536 161
Width: 1014
VWidth: 0
Flags: HMW
LayerCount: 2
Fore
SplineSet
733 700 m 1
 854 700 l 1
 334 -0 l 1
 213 -0 l 1
 733 700 l 1
22 355 m 1
 105 428 l 1
 291 428 l 0
 301 440 l 0
 407 440 l 1
 407 355 l 1
 22 355 l 1
124 384 m 1
 22 355 l 1
 266 700 l 1
 341 700 l 1
 341 280 l 1
 236 280 l 1
 236 377 l 0
 248 383 l 0
 248 554 l 1
 124 384 l 1
985 132 m 0
 985 33 897 -10 816 -10 c 0
 739 -10 688 14 648 44 c 1
 688 128 l 1
 722 100 762 82 794 82 c 0
 845 82 876 102 876 143 c 0
 876 184 835 202 794 202 c 0
 762 202 719 197 676 175 c 1
 746 226 l 1
 778 260 816 270 858 270 c 0
 924 270 985 219 985 132 c 0
809 330 m 1
 774 225 l 1
 676 175 l 1
 734 418 l 1
 977 418 l 1
 977 330 l 1
 809 330 l 1
EndSplineSet
EndChar

StartChar: uni2159
Encoding: 8537 8537 162
Width: 870
VWidth: 0
Flags: HMW
LayerCount: 2
Fore
SplineSet
618 700 m 1
 738 700 l 1
 218 0 l 1
 98 0 l 1
 618 700 l 1
24 572 m 1
 24 661 l 1
 226 702 l 1
 226 274 l 1
 128 274 l 1
 128 599 l 1
 24 572 l 1
600 145 m 0
 600 101 632 75 672 75 c 0
 712 75 742 101 742 145 c 0
 742 189 712 216 672 216 c 0
 632 216 600 189 600 145 c 0
671 416 m 1
 799 416 l 1
 664 264 l 1
 642 256 l 1
 664 278 682 282 712 282 c 0
 774 282 843 229 843 145 c 0
 843 42 766 -12 672 -12 c 0
 578 -12 501 42 501 145 c 0
 501 191 522 228 550 262 c 2
 671 416 l 1
EndSplineSet
EndChar

StartChar: uni215A
Encoding: 8538 8538 163
Width: 929
VWidth: 0
Flags: HMW
LayerCount: 2
Fore
SplineSet
696 700 m 1
 817 700 l 1
 297 0 l 1
 176 0 l 1
 696 700 l 1
367 412 m 0
 367 313 279 270 198 270 c 0
 121 270 70 294 30 324 c 1
 69 408 l 1
 103 380 143 363 175 363 c 0
 226 363 257 383 257 424 c 0
 257 465 216 482 175 482 c 0
 143 482 101 478 58 456 c 1
 128 506 l 1
 160 540 198 550 240 550 c 0
 306 550 367 499 367 412 c 0
190 610 m 1
 156 506 l 1
 58 456 l 1
 116 698 l 1
 358 698 l 1
 358 610 l 1
 190 610 l 1
661 145 m 0
 661 101 692 75 732 75 c 0
 772 75 802 101 802 145 c 0
 802 189 772 216 732 216 c 0
 692 216 661 189 661 145 c 0
731 416 m 1
 859 416 l 1
 723 264 l 1
 703 256 l 1
 725 278 742 282 772 282 c 0
 834 282 902 229 902 145 c 0
 902 42 826 -12 732 -12 c 0
 638 -12 560 42 560 145 c 0
 560 191 582 228 610 262 c 2
 731 416 l 1
EndSplineSet
EndChar

StartChar: oneeighth
Encoding: 8539 8539 164
Width: 889
VWidth: 0
Flags: HMW
LayerCount: 2
Fore
SplineSet
618 700 m 1
 738 700 l 1
 218 0 l 1
 98 0 l 1
 618 700 l 1
24 572 m 1
 24 661 l 1
 226 702 l 1
 226 274 l 1
 128 274 l 1
 128 599 l 1
 24 572 l 1
560 319 m 0
 560 389 624 430 702 430 c 0
 780 430 844 389 844 319 c 0
 844 243 771 206 702 206 c 0
 633 206 560 243 560 319 c 0
656 309 m 0
 656 281 675 260 702 260 c 0
 729 260 749 281 749 309 c 0
 749 337 730 356 702 356 c 0
 674 356 656 337 656 309 c 0
546 114 m 0
 546 202 633 238 702 238 c 0
 771 238 860 202 860 114 c 0
 860 38 784 -10 702 -10 c 0
 620 -10 546 38 546 114 c 0
646 129 m 0
 646 91 672 72 702 72 c 0
 732 72 758 91 758 129 c 0
 758 161 732 184 702 184 c 0
 672 184 646 161 646 129 c 0
EndSplineSet
EndChar

StartChar: threeeighths
Encoding: 8540 8540 165
Width: 952
VWidth: 0
Flags: HMW
LayerCount: 2
Fore
SplineSet
680 700 m 1
 800 700 l 1
 280 0 l 1
 160 0 l 1
 680 700 l 1
159 483 m 1
 159 528 l 1
 205 528 236 555 236 586 c 0
 236 612 220 627 188 627 c 0
 156 627 134 608 134 578 c 1
 40 578 l 1
 40 652 100 708 190 708 c 0
 284 708 337 656 337 592 c 0
 337 520 259 483 159 483 c 1
184 270 m 0
 82 270 22 340 22 414 c 1
 123 414 l 1
 123 372 153 352 188 352 c 0
 223 352 248 367 248 404 c 0
 248 439 221 464 159 464 c 1
 159 515 l 1
 270 515 349 479 349 395 c 0
 349 323 286 270 184 270 c 0
623 319 m 0
 623 389 687 430 765 430 c 0
 843 430 906 389 906 319 c 0
 906 243 834 206 765 206 c 0
 696 206 623 243 623 319 c 0
718 309 m 0
 718 281 738 260 765 260 c 0
 792 260 812 281 812 309 c 0
 812 337 793 356 765 356 c 0
 737 356 718 337 718 309 c 0
608 114 m 0
 608 202 696 238 765 238 c 0
 834 238 922 202 922 114 c 0
 922 38 847 -10 765 -10 c 0
 683 -10 608 38 608 114 c 0
708 129 m 0
 708 91 735 72 765 72 c 0
 795 72 821 91 821 129 c 0
 821 161 795 184 765 184 c 0
 735 184 708 161 708 129 c 0
EndSplineSet
EndChar

StartChar: fiveeighths
Encoding: 8541 8541 166
Width: 968
VWidth: 0
Flags: HMW
LayerCount: 2
Fore
SplineSet
696 700 m 1
 817 700 l 1
 297 0 l 1
 176 0 l 1
 696 700 l 1
360 412 m 0
 360 313 273 270 192 270 c 0
 115 270 64 294 24 324 c 1
 63 408 l 1
 97 380 137 363 169 363 c 0
 220 363 250 383 250 424 c 0
 250 465 210 482 169 482 c 0
 137 482 95 478 52 456 c 1
 122 506 l 1
 154 540 192 550 234 550 c 0
 300 550 360 499 360 412 c 0
184 610 m 1
 150 506 l 1
 52 456 l 1
 110 698 l 1
 352 698 l 1
 352 610 l 1
 184 610 l 1
639 319 m 0
 639 389 703 430 781 430 c 0
 859 430 923 389 923 319 c 0
 923 243 850 206 781 206 c 0
 712 206 639 243 639 319 c 0
734 309 m 0
 734 281 754 260 781 260 c 0
 808 260 828 281 828 309 c 0
 828 337 809 356 781 356 c 0
 753 356 734 337 734 309 c 0
624 114 m 0
 624 202 712 238 781 238 c 0
 850 238 938 202 938 114 c 0
 938 38 863 -10 781 -10 c 0
 699 -10 624 38 624 114 c 0
725 129 m 0
 725 91 751 72 781 72 c 0
 811 72 837 91 837 129 c 0
 837 161 811 184 781 184 c 0
 751 184 725 161 725 129 c 0
EndSplineSet
EndChar

StartChar: seveneighths
Encoding: 8542 8542 167
Width: 858
VWidth: 0
Flags: HMW
LayerCount: 2
Fore
SplineSet
580 700 m 1
 701 700 l 1
 181 0 l 1
 60 0 l 1
 580 700 l 1
23 606 m 1
 23 700 l 1
 366 700 l 1
 163 280 l 1
 54 280 l 1
 217 606 l 1
 23 606 l 1
529 319 m 0
 529 389 593 430 671 430 c 0
 749 430 813 389 813 319 c 0
 813 243 740 206 671 206 c 0
 602 206 529 243 529 319 c 0
624 309 m 0
 624 281 644 260 671 260 c 0
 698 260 718 281 718 309 c 0
 718 337 699 356 671 356 c 0
 643 356 624 337 624 309 c 0
514 114 m 0
 514 202 602 238 671 238 c 0
 740 238 828 202 828 114 c 0
 828 38 753 -10 671 -10 c 0
 589 -10 514 38 514 114 c 0
615 129 m 0
 615 91 641 72 671 72 c 0
 701 72 727 91 727 129 c 0
 727 161 701 184 671 184 c 0
 641 184 615 161 615 129 c 0
EndSplineSet
EndChar

StartChar: uni2074
Encoding: 8308 8308 168
Width: 426
VWidth: 0
Flags: HMW
LayerCount: 2
Fore
SplineSet
16 355 m 1
 99 428 l 1
 284 428 l 0
 294 440 l 0
 401 440 l 1
 401 355 l 1
 16 355 l 1
118 384 m 1
 16 355 l 1
 260 700 l 1
 335 700 l 1
 335 280 l 1
 230 280 l 1
 230 377 l 0
 242 383 l 0
 242 554 l 1
 118 384 l 1
EndSplineSet
EndChar

StartChar: uni2075
Encoding: 8309 8309 169
Width: 386
VWidth: 0
Flags: HMW
LayerCount: 2
Fore
SplineSet
360 412 m 0
 360 313 273 270 192 270 c 0
 115 270 64 294 24 324 c 1
 63 408 l 1
 97 380 137 363 169 363 c 0
 220 363 250 383 250 424 c 0
 250 465 210 482 169 482 c 0
 137 482 95 478 52 456 c 1
 122 506 l 1
 154 540 192 550 234 550 c 0
 300 550 360 499 360 412 c 0
184 610 m 1
 150 506 l 1
 52 456 l 1
 110 698 l 1
 352 698 l 1
 352 610 l 1
 184 610 l 1
EndSplineSet
EndChar

StartChar: uni2076
Encoding: 8310 8310 170
Width: 382
VWidth: 0
Flags: HMW
LayerCount: 2
Fore
SplineSet
122 425 m 0
 122 381 154 355 194 355 c 0
 234 355 264 381 264 425 c 0
 264 469 234 496 194 496 c 0
 154 496 122 469 122 425 c 0
192 696 m 1
 320 696 l 1
 184 544 l 1
 164 536 l 1
 186 558 204 562 234 562 c 0
 296 562 364 509 364 425 c 0
 364 322 288 268 194 268 c 0
 100 268 22 322 22 425 c 0
 22 471 44 508 72 542 c 2
 192 696 l 1
EndSplineSet
EndChar

StartChar: uni2077
Encoding: 8311 8311 171
Width: 378
VWidth: 0
Flags: HMW
LayerCount: 2
Fore
SplineSet
23 606 m 1
 23 700 l 1
 366 700 l 1
 163 280 l 1
 54 280 l 1
 217 606 l 1
 23 606 l 1
EndSplineSet
EndChar

StartChar: uni2078
Encoding: 8312 8312 172
Width: 361
VWidth: 0
Flags: HMW
LayerCount: 2
Fore
SplineSet
38 599 m 0
 38 669 102 710 180 710 c 0
 258 710 322 669 322 599 c 0
 322 523 249 486 180 486 c 0
 111 486 38 523 38 599 c 0
133 589 m 0
 133 561 153 540 180 540 c 0
 207 540 226 561 226 589 c 0
 226 617 208 636 180 636 c 0
 152 636 133 617 133 589 c 0
22 394 m 0
 22 482 111 518 180 518 c 0
 249 518 336 482 336 394 c 0
 336 318 262 270 180 270 c 0
 98 270 22 318 22 394 c 0
124 409 m 0
 124 371 150 352 180 352 c 0
 210 352 236 371 236 409 c 0
 236 441 210 464 180 464 c 0
 150 464 124 441 124 409 c 0
EndSplineSet
EndChar

StartChar: uni2079
Encoding: 8313 8313 173
Width: 379
VWidth: 0
Flags: HMW
LayerCount: 2
Fore
SplineSet
264 555 m 0
 264 599 234 625 194 625 c 0
 154 625 124 599 124 555 c 0
 124 511 154 484 194 484 c 0
 234 484 264 511 264 555 c 0
196 284 m 1
 66 284 l 1
 202 436 l 1
 223 444 l 1
 201 422 183 418 153 418 c 0
 91 418 24 471 24 555 c 0
 24 658 100 712 194 712 c 0
 288 712 365 658 365 555 c 0
 365 509 344 472 316 438 c 2
 196 284 l 1
EndSplineSet
EndChar

StartChar: uni2070
Encoding: 8304 8304 174
Width: 389
VWidth: 0
Flags: HMW
LayerCount: 2
Fore
SplineSet
118 490 m 0
 118 410 149 359 195 359 c 0
 241 359 272 410 272 490 c 0
 272 570 241 621 195 621 c 0
 149 621 118 570 118 490 c 0
21 490 m 0
 21 626 91 708 195 708 c 0
 301 708 370 626 370 490 c 0
 370 354 301 272 195 272 c 0
 91 272 21 354 21 490 c 0
EndSplineSet
EndChar

StartChar: uni2080
Encoding: 8320 8320 175
Width: 389
VWidth: 0
Flags: HMW
LayerCount: 2
Fore
SplineSet
118 210 m 0
 118 130 149 79 195 79 c 0
 241 79 272 130 272 210 c 0
 272 290 241 341 195 341 c 0
 149 341 118 290 118 210 c 0
21 210 m 0
 21 346 91 428 195 428 c 0
 301 428 370 346 370 210 c 0
 370 74 301 -8 195 -8 c 0
 91 -8 21 74 21 210 c 0
EndSplineSet
EndChar

StartChar: uni2084
Encoding: 8324 8324 176
Width: 430
VWidth: 0
Flags: HMW
LayerCount: 2
Fore
SplineSet
14 75 m 1
 98 148 l 1
 283 148 l 0
 293 160 l 0
 400 160 l 1
 400 75 l 1
 14 75 l 1
117 104 m 1
 14 75 l 1
 258 420 l 1
 334 420 l 1
 334 0 l 1
 228 0 l 1
 228 97 l 0
 240 103 l 0
 240 274 l 1
 117 104 l 1
EndSplineSet
EndChar

StartChar: uni2085
Encoding: 8325 8325 177
Width: 395
VWidth: 0
Flags: HMW
LayerCount: 2
Fore
SplineSet
364 132 m 0
 364 33 275 -10 194 -10 c 0
 117 -10 67 14 27 44 c 1
 66 128 l 1
 100 100 140 83 172 83 c 0
 223 83 254 103 254 144 c 0
 254 185 213 202 172 202 c 0
 140 202 97 198 54 176 c 1
 125 226 l 1
 157 260 194 270 236 270 c 0
 302 270 364 219 364 132 c 0
188 330 m 1
 152 226 l 1
 54 176 l 1
 112 418 l 1
 355 418 l 1
 355 330 l 1
 188 330 l 1
EndSplineSet
EndChar

StartChar: uni2086
Encoding: 8326 8326 178
Width: 393
VWidth: 0
Flags: HMW
LayerCount: 2
Fore
SplineSet
126 145 m 0
 126 101 156 75 196 75 c 0
 236 75 268 101 268 145 c 0
 268 189 236 216 196 216 c 0
 156 216 126 189 126 145 c 0
196 416 m 1
 324 416 l 1
 188 264 l 1
 168 256 l 1
 190 278 207 282 237 282 c 0
 299 282 367 229 367 145 c 0
 367 42 290 -12 196 -12 c 0
 102 -12 26 42 26 145 c 0
 26 191 46 228 74 262 c 2
 196 416 l 1
EndSplineSet
EndChar

StartChar: uni2087
Encoding: 8327 8327 179
Width: 383
VWidth: 0
Flags: HMW
LayerCount: 2
Fore
SplineSet
27 326 m 1
 27 420 l 1
 370 420 l 1
 166 0 l 1
 58 0 l 1
 220 326 l 1
 27 326 l 1
EndSplineSet
EndChar

StartChar: uni2088
Encoding: 8328 8328 180
Width: 367
VWidth: 0
Flags: HMW
LayerCount: 2
Fore
SplineSet
42 319 m 0
 42 389 106 430 184 430 c 0
 262 430 326 389 326 319 c 0
 326 243 253 206 184 206 c 0
 115 206 42 243 42 319 c 0
137 309 m 0
 137 281 157 260 184 260 c 0
 211 260 230 281 230 309 c 0
 230 337 212 356 184 356 c 0
 156 356 137 337 137 309 c 0
27 114 m 0
 27 202 115 238 184 238 c 0
 253 238 341 202 341 114 c 0
 341 38 266 -10 184 -10 c 0
 102 -10 27 38 27 114 c 0
128 129 m 0
 128 91 154 72 184 72 c 0
 214 72 240 91 240 129 c 0
 240 161 214 184 184 184 c 0
 154 184 128 161 128 129 c 0
EndSplineSet
EndChar

StartChar: uni2089
Encoding: 8329 8329 181
Width: 397
VWidth: 0
Flags: HMW
LayerCount: 2
Fore
SplineSet
266 275 m 0
 266 319 236 345 196 345 c 0
 156 345 125 319 125 275 c 0
 125 231 156 204 196 204 c 0
 236 204 266 231 266 275 c 0
197 4 m 1
 68 4 l 1
 204 156 l 1
 224 164 l 1
 202 142 184 138 154 138 c 0
 92 138 25 191 25 275 c 0
 25 378 102 432 196 432 c 0
 290 432 367 378 367 275 c 0
 367 229 345 192 317 158 c 2
 197 4 l 1
EndSplineSet
EndChar

StartChar: uni2081
Encoding: 8321 8321 182
Width: 360
VWidth: 0
Flags: HMW
LayerCount: 2
Fore
SplineSet
90 300 m 1
 90 388 l 1
 292 428 l 1
 292 1 l 1
 194 1 l 1
 194 326 l 1
 90 300 l 1
EndSplineSet
EndChar

StartChar: uni2082
Encoding: 8322 8322 183
Width: 410
VWidth: 0
Flags: HMW
LayerCount: 2
Fore
SplineSet
28 2 m 1
 216 196 l 2
 250 232 270 256 270 290 c 0
 270 317 252 344 214 344 c 0
 174 344 148 312 148 266 c 1
 48 266 l 1
 48 355 106 430 216 430 c 0
 320 430 374 360 374 295 c 0
 374 251 349 213 313 182 c 2
 216 94 l 1
 384 94 l 1
 384 2 l 1
 28 2 l 1
EndSplineSet
EndChar

StartChar: uni2083
Encoding: 8323 8323 184
Width: 371
VWidth: 0
Flags: HMW
LayerCount: 2
Fore
SplineSet
158 203 m 1
 158 248 l 1
 204 248 236 275 236 306 c 0
 236 332 220 347 188 347 c 0
 156 347 134 328 134 298 c 1
 40 298 l 1
 40 372 99 428 189 428 c 0
 283 428 336 376 336 312 c 0
 336 240 258 203 158 203 c 1
184 -10 m 0
 82 -10 22 60 22 134 c 1
 122 134 l 1
 122 92 153 72 188 72 c 0
 223 72 248 87 248 124 c 0
 248 159 220 184 158 184 c 1
 158 235 l 1
 269 235 348 199 348 115 c 0
 348 43 286 -10 184 -10 c 0
EndSplineSet
EndChar

StartChar: Agrave
Encoding: 192 192 185
Width: 733
VWidth: 0
Flags: HMW
LayerCount: 2
Fore
SplineSet
184 136 m 1
 196 264 l 1
 543 264 l 1
 554 136 l 1
 184 136 l 1
367 443 m 1
 269 218 l 1
 277 180 l 1
 190 0 l 1
 -1 0 l 1
 367 744 l 1
 736 0 l 1
 544 0 l 1
 460 173 l 1
 466 216 l 1
 367 443 l 1
206 954 m 1
 321 1006 l 1
 471 846 l 1
 386 804 l 1
 206 954 l 1
EndSplineSet
EndChar

StartChar: Aacute
Encoding: 193 193 186
Width: 733
VWidth: 0
Flags: HMW
LayerCount: 2
Fore
SplineSet
184 136 m 1
 196 264 l 1
 543 264 l 1
 554 136 l 1
 184 136 l 1
367 443 m 1
 269 218 l 1
 277 180 l 1
 190 0 l 1
 -1 0 l 1
 367 744 l 1
 736 0 l 1
 544 0 l 1
 460 173 l 1
 466 216 l 1
 367 443 l 1
525 954 m 1
 345 804 l 1
 260 846 l 1
 410 1006 l 1
 525 954 l 1
EndSplineSet
EndChar

StartChar: Acircumflex
Encoding: 194 194 187
Width: 733
VWidth: 0
Flags: HMW
LayerCount: 2
Fore
SplineSet
184 136 m 1
 196 264 l 1
 543 264 l 1
 554 136 l 1
 184 136 l 1
367 443 m 1
 269 218 l 1
 277 180 l 1
 190 0 l 1
 -1 0 l 1
 367 744 l 1
 736 0 l 1
 544 0 l 1
 460 173 l 1
 466 216 l 1
 367 443 l 1
367 874 m 1
 276 789 l 1
 170 860 l 1
 367 1000 l 1
 564 860 l 1
 458 789 l 1
 367 874 l 1
EndSplineSet
EndChar

StartChar: Atilde
Encoding: 195 195 188
Width: 733
VWidth: 0
Flags: HMW
LayerCount: 2
Fore
SplineSet
184 136 m 1
 196 264 l 1
 543 264 l 1
 554 136 l 1
 184 136 l 1
367 443 m 1
 269 218 l 1
 277 180 l 1
 190 0 l 1
 -1 0 l 1
 367 744 l 1
 736 0 l 1
 544 0 l 1
 460 173 l 1
 466 216 l 1
 367 443 l 1
171 862 m 1
 181 911 226 957 290 957 c 0
 356 957 371 904 427 904 c 0
 452 904 472 926 492 958 c 1
 564 884 l 1
 548 847 491 798 429 798 c 0
 374 798 340 852 290 852 c 0
 252 852 242 815 242 800 c 1
 171 862 l 1
EndSplineSet
EndChar

StartChar: Adieresis
Encoding: 196 196 189
Width: 733
VWidth: 0
Flags: HMW
LayerCount: 2
Fore
SplineSet
184 136 m 1
 196 264 l 1
 543 264 l 1
 554 136 l 1
 184 136 l 1
367 443 m 1
 269 218 l 1
 277 180 l 1
 190 0 l 1
 -1 0 l 1
 367 744 l 1
 736 0 l 1
 544 0 l 1
 460 173 l 1
 466 216 l 1
 367 443 l 1
420 830 m 0
 420 878 460 912 508 912 c 0
 556 912 596 878 596 830 c 0
 596 782 556 749 508 749 c 0
 460 749 420 782 420 830 c 0
133 836 m 0
 133 884 173 918 221 918 c 0
 269 918 308 884 308 836 c 0
 308 788 269 755 221 755 c 0
 173 755 133 788 133 836 c 0
EndSplineSet
EndChar

StartChar: Aring
Encoding: 197 197 190
Width: 733
VWidth: 0
Flags: HMW
LayerCount: 2
Fore
SplineSet
184 136 m 1
 196 264 l 1
 543 264 l 1
 554 136 l 1
 184 136 l 1
367 443 m 1
 269 218 l 1
 277 180 l 1
 190 0 l 1
 -1 0 l 1
 367 744 l 1
 736 0 l 1
 544 0 l 1
 460 173 l 1
 466 216 l 1
 367 443 l 1
242 800 m 0
 242 868 297 916 367 916 c 0
 437 916 492 868 492 800 c 0
 492 732 437 685 367 685 c 0
 297 685 242 732 242 800 c 0
320 800 m 0
 320 770 342 754 367 754 c 0
 392 754 414 770 414 800 c 0
 414 830 392 848 367 848 c 0
 342 848 320 830 320 800 c 0
EndSplineSet
EndChar

StartChar: AE
Encoding: 198 198 191
Width: 1083
VWidth: 0
Flags: HMW
LayerCount: 2
Fore
SplineSet
270 151 m 1
 276 306 l 1
 576 306 l 1
 576 151 l 1
 270 151 l 1
438 700 m 1
 600 660 l 1
 228 0 l 1
 14 0 l 1
 438 700 l 1
630 0 m 1
 630 139 l 1
 1014 139 l 1
 1014 0 l 1
 630 0 l 1
638 561 m 1
 438 700 l 1
 1014 700 l 1
 1014 561 l 1
 638 561 l 1
630 300 m 1
 630 436 l 1
 994 436 l 1
 994 300 l 1
 630 300 l 1
549 700 m 1
 730 700 l 1
 730 0 l 1
 549 0 l 1
 549 700 l 1
EndSplineSet
EndChar

StartChar: Ccedilla
Encoding: 199 199 192
Width: 699
VWidth: 0
Flags: HMW
LayerCount: 2
Fore
SplineSet
218 350 m 0
 218 221 314 144 428 144 c 0
 527 144 590 188 636 238 c 1
 636 54 l 1
 580 10 520 -16 418 -16 c 0
 193 -16 34 132 34 350 c 0
 34 568 193 716 418 716 c 0
 520 716 580 690 636 646 c 1
 636 462 l 1
 590 512 527 556 428 556 c 0
 314 556 218 479 218 350 c 0
358 48 m 1
 468 44 l 1
 382 -77 l 1
 393 -75 405 -74 418 -74 c 0
 458 -74 510 -105 510 -171 c 0
 510 -243 443 -280 379 -280 c 0
 323 -280 280 -270 234 -240 c 1
 280 -172 l 1
 305 -190 339 -198 359 -198 c 0
 393 -198 414 -186 414 -162 c 0
 414 -136 383 -130 352 -130 c 0
 342 -130 305 -132 270 -146 c 1
 358 48 l 1
EndSplineSet
EndChar

StartChar: Egrave
Encoding: 200 200 193
Width: 602
VWidth: 0
Flags: HMW
LayerCount: 2
Fore
SplineSet
186 0 m 1
 186 139 l 1
 539 139 l 1
 539 0 l 1
 186 0 l 1
186 561 m 1
 186 700 l 1
 539 700 l 1
 539 561 l 1
 186 561 l 1
186 300 m 1
 186 436 l 1
 519 436 l 1
 519 300 l 1
 186 300 l 1
74 700 m 1
 236 700 l 1
 236 0 l 1
 74 0 l 1
 74 700 l 1
146 932 m 1
 260 984 l 1
 410 824 l 1
 326 782 l 1
 146 932 l 1
EndSplineSet
EndChar

StartChar: Eacute
Encoding: 201 201 194
Width: 602
VWidth: 0
Flags: HMW
LayerCount: 2
Fore
SplineSet
186 0 m 1
 186 139 l 1
 539 139 l 1
 539 0 l 1
 186 0 l 1
186 561 m 1
 186 700 l 1
 539 700 l 1
 539 561 l 1
 186 561 l 1
186 300 m 1
 186 436 l 1
 519 436 l 1
 519 300 l 1
 186 300 l 1
74 700 m 1
 236 700 l 1
 236 0 l 1
 74 0 l 1
 74 700 l 1
464 932 m 1
 284 782 l 1
 200 824 l 1
 350 984 l 1
 464 932 l 1
EndSplineSet
EndChar

StartChar: Ecircumflex
Encoding: 202 202 195
Width: 602
VWidth: 0
Flags: HMW
LayerCount: 2
Fore
SplineSet
186 0 m 1
 186 139 l 1
 539 139 l 1
 539 0 l 1
 186 0 l 1
186 561 m 1
 186 700 l 1
 539 700 l 1
 539 561 l 1
 186 561 l 1
186 300 m 1
 186 436 l 1
 519 436 l 1
 519 300 l 1
 186 300 l 1
74 700 m 1
 236 700 l 1
 236 0 l 1
 74 0 l 1
 74 700 l 1
310 884 m 1
 200 788 l 1
 150 828 l 1
 310 968 l 1
 470 828 l 1
 420 788 l 1
 310 884 l 1
EndSplineSet
EndChar

StartChar: Edieresis
Encoding: 203 203 196
Width: 602
VWidth: 0
Flags: HMW
LayerCount: 2
Fore
SplineSet
186 0 m 1
 186 139 l 1
 539 139 l 1
 539 0 l 1
 186 0 l 1
186 561 m 1
 186 700 l 1
 539 700 l 1
 539 561 l 1
 186 561 l 1
186 300 m 1
 186 436 l 1
 519 436 l 1
 519 300 l 1
 186 300 l 1
74 700 m 1
 236 700 l 1
 236 0 l 1
 74 0 l 1
 74 700 l 1
344 866 m 0
 344 914 384 947 432 947 c 0
 480 947 520 914 520 866 c 0
 520 818 480 784 432 784 c 0
 384 784 344 818 344 866 c 0
101 866 m 0
 101 914 140 947 188 947 c 0
 236 947 276 914 276 866 c 0
 276 818 236 784 188 784 c 0
 140 784 101 818 101 866 c 0
EndSplineSet
EndChar

StartChar: Igrave
Encoding: 204 204 197
Width: 318
VWidth: 0
Flags: HMW
LayerCount: 2
Fore
SplineSet
74 700 m 1
 246 700 l 1
 246 0 l 1
 74 0 l 1
 74 700 l 1
-8 932 m 1
 108 984 l 1
 258 824 l 1
 172 782 l 1
 -8 932 l 1
EndSplineSet
EndChar

StartChar: Iacute
Encoding: 205 205 198
Width: 318
VWidth: 0
Flags: HMW
LayerCount: 2
Fore
SplineSet
74 700 m 1
 246 700 l 1
 246 0 l 1
 74 0 l 1
 74 700 l 1
312 932 m 1
 132 782 l 1
 46 824 l 1
 196 984 l 1
 312 932 l 1
EndSplineSet
EndChar

StartChar: Icircumflex
Encoding: 206 206 199
Width: 318
VWidth: 0
Flags: HMW
LayerCount: 2
Fore
SplineSet
74 700 m 1
 246 700 l 1
 246 0 l 1
 74 0 l 1
 74 700 l 1
153 884 m 1
 43 788 l 1
 -7 828 l 1
 153 968 l 1
 313 828 l 1
 263 788 l 1
 153 884 l 1
EndSplineSet
EndChar

StartChar: Idieresis
Encoding: 207 207 200
Width: 318
VWidth: 0
Flags: HMW
LayerCount: 2
Fore
SplineSet
74 700 m 1
 246 700 l 1
 246 0 l 1
 74 0 l 1
 74 700 l 1
194 858 m 0
 194 906 234 940 282 940 c 0
 330 940 370 906 370 858 c 0
 370 810 330 776 282 776 c 0
 234 776 194 810 194 858 c 0
-50 858 m 0
 -50 906 -10 940 38 940 c 0
 86 940 126 906 126 858 c 0
 126 810 86 776 38 776 c 0
 -10 776 -50 810 -50 858 c 0
EndSplineSet
EndChar

StartChar: Ntilde
Encoding: 209 209 201
Width: 792
VWidth: 0
Flags: HMW
LayerCount: 2
Fore
SplineSet
557 700 m 1
 720 700 l 1
 720 -35 l 1
 236 394 l 1
 236 0 l 1
 74 0 l 1
 74 735 l 1
 557 306 l 1
 557 700 l 1
172 833 m 1
 182 882 228 927 292 927 c 0
 358 927 372 876 428 876 c 0
 453 876 473 896 493 928 c 1
 564 854 l 1
 548 817 492 769 430 769 c 0
 375 769 340 822 290 822 c 0
 252 822 244 786 244 771 c 1
 172 833 l 1
EndSplineSet
EndChar

StartChar: Eth
Encoding: 208 208 202
Width: 732
VWidth: 0
Flags: HMW
LayerCount: 2
Fore
SplineSet
6 302 m 1
 6 402 l 1
 355 402 l 1
 355 302 l 1
 6 302 l 1
74 700 m 1
 248 700 l 1
 248 0 l 1
 74 0 l 1
 74 700 l 1
324 0 m 2
 186 0 l 1
 186 150 l 1
 318 150 l 2
 426 150 524 200 524 350 c 0
 524 500 426 550 318 550 c 2
 186 550 l 1
 186 700 l 1
 324 700 l 2
 552 700 699 565 699 350 c 0
 699 135 552 0 324 0 c 2
EndSplineSet
EndChar

StartChar: Ograve
Encoding: 210 210 203
Width: 820
VWidth: 0
Flags: HMW
LayerCount: 2
Fore
SplineSet
213 350 m 0
 213 226 291 139 410 139 c 0
 529 139 608 226 608 350 c 0
 608 474 532 561 410 561 c 0
 291 561 213 474 213 350 c 0
34 350 m 0
 34 566 197 716 410 716 c 0
 626 716 787 566 787 350 c 0
 787 134 630 -22 410 -22 c 0
 190 -22 34 134 34 350 c 0
262 932 m 1
 378 984 l 1
 528 824 l 1
 442 782 l 1
 262 932 l 1
EndSplineSet
EndChar

StartChar: Oacute
Encoding: 211 211 204
Width: 820
VWidth: 0
Flags: HMW
LayerCount: 2
Fore
SplineSet
213 350 m 0
 213 226 291 139 410 139 c 0
 529 139 608 226 608 350 c 0
 608 474 532 561 410 561 c 0
 291 561 213 474 213 350 c 0
34 350 m 0
 34 566 197 716 410 716 c 0
 626 716 787 566 787 350 c 0
 787 134 630 -22 410 -22 c 0
 190 -22 34 134 34 350 c 0
574 932 m 1
 394 782 l 1
 308 824 l 1
 458 984 l 1
 574 932 l 1
EndSplineSet
EndChar

StartChar: Ocircumflex
Encoding: 212 212 205
Width: 820
VWidth: 0
Flags: HMW
LayerCount: 2
Fore
SplineSet
213 350 m 0
 213 226 291 139 410 139 c 0
 529 139 608 226 608 350 c 0
 608 474 532 561 410 561 c 0
 291 561 213 474 213 350 c 0
34 350 m 0
 34 566 197 716 410 716 c 0
 626 716 787 566 787 350 c 0
 787 134 630 -22 410 -22 c 0
 190 -22 34 134 34 350 c 0
420 884 m 1
 310 788 l 1
 260 828 l 1
 420 968 l 1
 580 828 l 1
 530 788 l 1
 420 884 l 1
EndSplineSet
EndChar

StartChar: Otilde
Encoding: 213 213 206
Width: 820
VWidth: 0
Flags: HMW
LayerCount: 2
Fore
SplineSet
213 350 m 0
 213 226 291 139 410 139 c 0
 529 139 608 226 608 350 c 0
 608 474 532 561 410 561 c 0
 291 561 213 474 213 350 c 0
34 350 m 0
 34 566 197 716 410 716 c 0
 626 716 787 566 787 350 c 0
 787 134 630 -22 410 -22 c 0
 190 -22 34 134 34 350 c 0
248 842 m 1
 258 891 307 924 352 924 c 0
 417 924 422 876 476 876 c 0
 495 876 512 892 532 924 c 1
 578 882 l 1
 562 845 522 808 472 808 c 0
 417 808 397 856 352 856 c 0
 311 856 302 819 302 804 c 1
 248 842 l 1
EndSplineSet
EndChar

StartChar: Odieresis
Encoding: 214 214 207
Width: 820
VWidth: 0
Flags: HMW
LayerCount: 2
Fore
SplineSet
213 350 m 0
 213 226 291 139 410 139 c 0
 529 139 608 226 608 350 c 0
 608 474 532 561 410 561 c 0
 291 561 213 474 213 350 c 0
34 350 m 0
 34 566 197 716 410 716 c 0
 626 716 787 566 787 350 c 0
 787 134 630 -22 410 -22 c 0
 190 -22 34 134 34 350 c 0
444 858 m 0
 444 906 484 940 532 940 c 0
 580 940 620 906 620 858 c 0
 620 810 580 776 532 776 c 0
 484 776 444 810 444 858 c 0
201 858 m 0
 201 906 241 940 289 940 c 0
 337 940 377 906 377 858 c 0
 377 810 337 776 289 776 c 0
 241 776 201 810 201 858 c 0
EndSplineSet
EndChar

StartChar: Ugrave
Encoding: 217 217 208
Width: 699
VWidth: 0
Flags: HMW
LayerCount: 2
Fore
SplineSet
69 700 m 1
 238 700 l 1
 238 242 l 2
 238 170 274 123 350 123 c 0
 426 123 463 170 463 242 c 2
 463 700 l 1
 632 700 l 1
 632 230 l 2
 632 54 508 -28 350 -28 c 0
 192 -28 69 54 69 230 c 2
 69 700 l 1
189 926 m 1
 304 978 l 1
 454 818 l 1
 369 776 l 1
 189 926 l 1
EndSplineSet
EndChar

StartChar: Uacute
Encoding: 218 218 209
Width: 699
VWidth: 0
Flags: HMW
LayerCount: 2
Fore
SplineSet
69 700 m 1
 238 700 l 1
 238 242 l 2
 238 170 274 123 350 123 c 0
 426 123 463 170 463 242 c 2
 463 700 l 1
 632 700 l 1
 632 230 l 2
 632 54 508 -28 350 -28 c 0
 192 -28 69 54 69 230 c 2
 69 700 l 1
512 926 m 1
 332 776 l 1
 246 818 l 1
 396 978 l 1
 512 926 l 1
EndSplineSet
EndChar

StartChar: Ucircumflex
Encoding: 219 219 210
Width: 699
VWidth: 0
Flags: HMW
LayerCount: 2
Fore
SplineSet
69 700 m 1
 238 700 l 1
 238 242 l 2
 238 170 274 123 350 123 c 0
 426 123 463 170 463 242 c 2
 463 700 l 1
 632 700 l 1
 632 230 l 2
 632 54 508 -28 350 -28 c 0
 192 -28 69 54 69 230 c 2
 69 700 l 1
350 862 m 1
 259 776 l 1
 153 847 l 1
 350 987 l 1
 548 847 l 1
 442 776 l 1
 350 862 l 1
EndSplineSet
EndChar

StartChar: Udieresis
Encoding: 220 220 211
Width: 699
VWidth: 0
Flags: HMW
LayerCount: 2
Fore
SplineSet
69 700 m 1
 238 700 l 1
 238 242 l 2
 238 170 274 123 350 123 c 0
 426 123 463 170 463 242 c 2
 463 700 l 1
 632 700 l 1
 632 230 l 2
 632 54 508 -28 350 -28 c 0
 192 -28 69 54 69 230 c 2
 69 700 l 1
402 858 m 0
 402 906 442 940 490 940 c 0
 538 940 578 906 578 858 c 0
 578 810 538 776 490 776 c 0
 442 776 402 810 402 858 c 0
122 858 m 0
 122 906 162 940 210 940 c 0
 258 940 298 906 298 858 c 0
 298 810 258 776 210 776 c 0
 162 776 122 810 122 858 c 0
EndSplineSet
EndChar

StartChar: Yacute
Encoding: 221 221 212
Width: 659
VWidth: 0
Flags: HMW
LayerCount: 2
Fore
SplineSet
490 926 m 1
 310 776 l 1
 226 818 l 1
 376 978 l 1
 490 926 l 1
466 700 m 1
 660 700 l 1
 416 285 l 1
 416 0 l 1
 244 0 l 1
 244 284 l 1
 -1 700 l 1
 193 700 l 1
 330 436 l 1
 466 700 l 1
EndSplineSet
EndChar

StartChar: agrave
Encoding: 224 224 213
Width: 543
VWidth: 0
Flags: HMW
LayerCount: 2
Fore
SplineSet
176 138 m 0
 176 104 202 88 242 88 c 0
 298 88 345 112 345 186 c 1
 361 130 l 1
 361 41 286 -10 191 -10 c 0
 90 -10 24 41 24 128 c 0
 24 222 106 279 223 279 c 0
 293 279 358 252 378 230 c 1
 378 159 l 1
 344 185 310 198 258 198 c 0
 206 198 176 174 176 138 c 0
117 319 m 1
 66 420 l 1
 118 445 193 473 276 473 c 0
 400 473 490 419 490 324 c 2
 490 0 l 1
 345 0 l 1
 345 294 l 2
 345 333 314 358 264 358 c 0
 198 358 139 332 117 319 c 1
104 683 m 1
 219 736 l 1
 369 576 l 1
 284 533 l 1
 104 683 l 1
EndSplineSet
Substitution2: "alt a" agrave.alt
EndChar

StartChar: aacute
Encoding: 225 225 214
Width: 543
VWidth: 0
Flags: HMW
LayerCount: 2
Fore
SplineSet
176 138 m 0
 176 104 202 88 242 88 c 0
 298 88 345 112 345 186 c 1
 361 130 l 1
 361 41 286 -10 191 -10 c 0
 90 -10 24 41 24 128 c 0
 24 222 106 279 223 279 c 0
 293 279 358 252 378 230 c 1
 378 159 l 1
 344 185 310 198 258 198 c 0
 206 198 176 174 176 138 c 0
117 319 m 1
 66 420 l 1
 118 445 193 473 276 473 c 0
 400 473 490 419 490 324 c 2
 490 0 l 1
 345 0 l 1
 345 294 l 2
 345 333 314 358 264 358 c 0
 198 358 139 332 117 319 c 1
448 683 m 1
 268 533 l 1
 183 576 l 1
 333 736 l 1
 448 683 l 1
EndSplineSet
Substitution2: "alt a" aacute.alt
EndChar

StartChar: acircumflex
Encoding: 226 226 215
Width: 543
VWidth: 0
Flags: HMW
LayerCount: 2
Fore
SplineSet
176 138 m 0
 176 104 202 88 242 88 c 0
 298 88 345 112 345 186 c 1
 361 130 l 1
 361 41 286 -10 191 -10 c 0
 90 -10 24 41 24 128 c 0
 24 222 106 279 223 279 c 0
 293 279 358 252 378 230 c 1
 378 159 l 1
 344 185 310 198 258 198 c 0
 206 198 176 174 176 138 c 0
117 319 m 1
 66 420 l 1
 118 445 193 473 276 473 c 0
 400 473 490 419 490 324 c 2
 490 0 l 1
 345 0 l 1
 345 294 l 2
 345 333 314 358 264 358 c 0
 198 358 139 332 117 319 c 1
276 619 m 1
 184 533 l 1
 79 604 l 1
 276 744 l 1
 473 604 l 1
 367 533 l 1
 276 619 l 1
EndSplineSet
Substitution2: "alt a" acircumflex.alt
EndChar

StartChar: atilde
Encoding: 227 227 216
Width: 543
VWidth: 0
Flags: HMW
LayerCount: 2
Fore
SplineSet
176 138 m 0
 176 104 202 88 242 88 c 0
 298 88 345 112 345 186 c 1
 361 130 l 1
 361 41 286 -10 191 -10 c 0
 90 -10 24 41 24 128 c 0
 24 222 106 279 223 279 c 0
 293 279 358 252 378 230 c 1
 378 159 l 1
 344 185 310 198 258 198 c 0
 206 198 176 174 176 138 c 0
117 319 m 1
 66 420 l 1
 118 445 193 473 276 473 c 0
 400 473 490 419 490 324 c 2
 490 0 l 1
 345 0 l 1
 345 294 l 2
 345 333 314 358 264 358 c 0
 198 358 139 332 117 319 c 1
80 598 m 1
 90 647 136 693 200 693 c 0
 266 693 280 641 336 641 c 0
 361 641 381 662 401 694 c 1
 472 620 l 1
 456 583 400 534 338 534 c 0
 283 534 248 588 198 588 c 0
 160 588 152 552 152 537 c 1
 80 598 l 1
EndSplineSet
Substitution2: "alt a" atilde.alt
EndChar

StartChar: adieresis
Encoding: 228 228 217
Width: 543
VWidth: 0
Flags: HMW
LayerCount: 2
Fore
SplineSet
176 138 m 0
 176 104 202 88 242 88 c 0
 298 88 345 112 345 186 c 1
 361 130 l 1
 361 41 286 -10 191 -10 c 0
 90 -10 24 41 24 128 c 0
 24 222 106 279 223 279 c 0
 293 279 358 252 378 230 c 1
 378 159 l 1
 344 185 310 198 258 198 c 0
 206 198 176 174 176 138 c 0
117 319 m 1
 66 420 l 1
 118 445 193 473 276 473 c 0
 400 473 490 419 490 324 c 2
 490 0 l 1
 345 0 l 1
 345 294 l 2
 345 333 314 358 264 358 c 0
 198 358 139 332 117 319 c 1
310 615 m 0
 310 663 350 696 398 696 c 0
 446 696 486 663 486 615 c 0
 486 567 446 533 398 533 c 0
 350 533 310 567 310 615 c 0
66 615 m 0
 66 663 106 696 154 696 c 0
 202 696 242 663 242 615 c 0
 242 567 202 533 154 533 c 0
 106 533 66 567 66 615 c 0
EndSplineSet
Substitution2: "alt a" adieresis.alt
EndChar

StartChar: aring
Encoding: 229 229 218
Width: 543
VWidth: 0
Flags: HMW
LayerCount: 2
Fore
SplineSet
176 138 m 0
 176 104 202 88 242 88 c 0
 298 88 345 112 345 186 c 1
 361 130 l 1
 361 41 286 -10 191 -10 c 0
 90 -10 24 41 24 128 c 0
 24 222 106 279 223 279 c 0
 293 279 358 252 378 230 c 1
 378 159 l 1
 344 185 310 198 258 198 c 0
 206 198 176 174 176 138 c 0
117 319 m 1
 66 420 l 1
 118 445 193 473 276 473 c 0
 400 473 490 419 490 324 c 2
 490 0 l 1
 345 0 l 1
 345 294 l 2
 345 333 314 358 264 358 c 0
 198 358 139 332 117 319 c 1
150 648 m 0
 150 716 206 764 276 764 c 0
 346 764 401 716 401 648 c 0
 401 580 346 533 276 533 c 0
 206 533 150 580 150 648 c 0
230 648 m 0
 230 618 251 602 276 602 c 0
 301 602 322 618 322 648 c 0
 322 678 301 697 276 697 c 0
 251 697 230 678 230 648 c 0
EndSplineSet
Substitution2: "alt a" aring.alt
EndChar

StartChar: germandbls
Encoding: 223 223 219
Width: 591
VWidth: 0
Flags: HMW
LayerCount: 2
Fore
SplineSet
281 127 m 1
 361 127 416 179 416 254 c 0
 416 316 378 368 268 368 c 1
 268 472 l 1
 436 472 568 377 568 225 c 0
 568 73 453 -10 281 -10 c 1
 281 127 l 1
268 412 m 1
 268 504 l 1
 354 504 376 540 376 584 c 0
 376 632 345 659 286 659 c 0
 232 659 200 633 200 588 c 2
 200 0 l 1
 56 0 l 1
 56 606 l 2
 56 728 162 796 286 796 c 0
 440 796 522 715 522 606 c 0
 522 487 436 412 268 412 c 1
EndSplineSet
EndChar

StartChar: ae
Encoding: 230 230 220
Width: 895
VWidth: 0
Flags: HMW
LayerCount: 2
Fore
SplineSet
176 138 m 0
 176 104 202 88 242 88 c 0
 298 88 345 112 345 186 c 1
 416 130 l 1
 416 41 343 -10 217 -10 c 0
 96 -10 24 41 24 128 c 0
 24 222 106 279 223 279 c 0
 293 279 358 252 378 230 c 1
 378 159 l 1
 344 185 310 198 258 198 c 0
 206 198 176 174 176 138 c 0
117 319 m 1
 66 420 l 1
 118 445 193 473 276 473 c 0
 400 473 439 419 439 324 c 2
 439 130 l 1
 345 130 l 1
 345 290 l 2
 345 329 314 358 264 358 c 0
 198 358 139 332 117 319 c 1
418 198 m 1
 418 282 l 1
 844 282 l 1
 860 198 l 1
 418 198 l 1
702 244 m 2
 702 324 676 369 610 369 c 0
 548 369 508 328 508 254 c 1
 506 230 l 1
 506 136 554 99 613 99 c 0
 667 99 706 120 728 158 c 1
 862 126 l 1
 816 44 748 -10 616 -10 c 0
 448 -10 389 91 389 230 c 0
 389 247 393 263 396 279 c 0
 415 392 498 470 636 470 c 0
 770 470 862 382 862 237 c 0
 862 229 862 214 860 198 c 1
 702 218 l 1
 702 244 l 2
EndSplineSet
EndChar

StartChar: ccedilla
Encoding: 231 231 221
Width: 492
VWidth: 0
Flags: HMW
LayerCount: 2
Fore
SplineSet
186 230 m 0
 186 156 240 110 308 110 c 0
 364 110 417 135 444 179 c 1
 444 32 l 1
 412 6 365 -10 296 -10 c 0
 142 -10 30 85 30 230 c 0
 30 375 142 470 296 470 c 0
 365 470 412 452 444 430 c 1
 444 282 l 1
 417 326 358 350 308 350 c 0
 240 350 186 298 186 230 c 0
238 60 m 1
 347 58 l 1
 261 -64 l 1
 272 -62 284 -62 297 -62 c 0
 337 -62 389 -92 389 -158 c 0
 389 -230 322 -268 258 -268 c 0
 202 -268 160 -258 114 -228 c 1
 160 -160 l 1
 185 -178 218 -186 238 -186 c 0
 272 -186 292 -174 292 -150 c 0
 292 -124 263 -118 232 -118 c 0
 222 -118 185 -120 150 -134 c 1
 238 60 l 1
EndSplineSet
EndChar

StartChar: egrave
Encoding: 232 232 222
Width: 572
VWidth: 0
Flags: HMW
LayerCount: 2
Fore
SplineSet
117 198 m 1
 117 282 l 1
 377 282 l 1
 370 337 342 369 288 369 c 0
 226 369 186 328 186 254 c 1
 184 230 l 1
 184 136 231 99 290 99 c 0
 344 99 384 120 406 158 c 1
 540 126 l 1
 494 44 425 -10 293 -10 c 0
 125 -10 32 91 32 230 c 0
 32 247 33 263 36 279 c 0
 55 392 140 470 290 470 c 0
 451 470 539 382 539 237 c 0
 539 229 540 214 538 198 c 1
 117 198 l 1
126 684 m 1
 241 737 l 1
 391 577 l 1
 306 534 l 1
 126 684 l 1
EndSplineSet
EndChar

StartChar: eacute
Encoding: 233 233 223
Width: 572
VWidth: 0
Flags: HMW
LayerCount: 2
Fore
SplineSet
117 198 m 1
 117 282 l 1
 377 282 l 1
 370 337 342 369 288 369 c 0
 226 369 186 328 186 254 c 1
 184 230 l 1
 184 136 231 99 290 99 c 0
 344 99 384 120 406 158 c 1
 540 126 l 1
 494 44 425 -10 293 -10 c 0
 125 -10 32 91 32 230 c 0
 32 247 33 263 36 279 c 0
 55 392 140 470 290 470 c 0
 451 470 539 382 539 237 c 0
 539 229 540 214 538 198 c 1
 117 198 l 1
463 684 m 1
 283 534 l 1
 198 577 l 1
 348 737 l 1
 463 684 l 1
EndSplineSet
EndChar

StartChar: ecircumflex
Encoding: 234 234 224
Width: 572
VWidth: 0
Flags: HMW
LayerCount: 2
Fore
SplineSet
117 198 m 1
 117 282 l 1
 377 282 l 1
 370 337 342 369 288 369 c 0
 226 369 186 328 186 254 c 1
 184 230 l 1
 184 136 231 99 290 99 c 0
 344 99 384 120 406 158 c 1
 540 126 l 1
 494 44 425 -10 293 -10 c 0
 125 -10 32 91 32 230 c 0
 32 247 33 263 36 279 c 0
 55 392 140 470 290 470 c 0
 451 470 539 382 539 237 c 0
 539 229 540 214 538 198 c 1
 117 198 l 1
290 616 m 1
 199 530 l 1
 94 602 l 1
 290 742 l 1
 488 602 l 1
 382 530 l 1
 290 616 l 1
EndSplineSet
EndChar

StartChar: edieresis
Encoding: 235 235 225
Width: 572
VWidth: 0
Flags: HMW
LayerCount: 2
Fore
SplineSet
117 198 m 1
 117 282 l 1
 377 282 l 1
 370 337 342 369 288 369 c 0
 226 369 186 328 186 254 c 1
 184 230 l 1
 184 136 231 99 290 99 c 0
 344 99 384 120 406 158 c 1
 540 126 l 1
 494 44 425 -10 293 -10 c 0
 125 -10 32 91 32 230 c 0
 32 247 33 263 36 279 c 0
 55 392 140 470 290 470 c 0
 451 470 539 382 539 237 c 0
 539 229 540 214 538 198 c 1
 117 198 l 1
325 612 m 0
 325 660 365 694 413 694 c 0
 461 694 501 660 501 612 c 0
 501 564 461 530 413 530 c 0
 365 530 325 564 325 612 c 0
81 612 m 0
 81 660 121 694 169 694 c 0
 217 694 257 660 257 612 c 0
 257 564 217 530 169 530 c 0
 121 530 81 564 81 612 c 0
EndSplineSet
EndChar

StartChar: igrave
Encoding: 236 236 226
Width: 275
VWidth: 0
Flags: HMW
LayerCount: 2
Fore
SplineSet
64 460 m 1
 211 460 l 1
 211 0 l 1
 64 0 l 1
 64 460 l 1
-42 688 m 1
 72 740 l 1
 222 580 l 1
 138 538 l 1
 -42 688 l 1
EndSplineSet
EndChar

StartChar: dotlessi
Encoding: 305 305 227
Width: 275
VWidth: 0
Flags: HMW
LayerCount: 2
Fore
SplineSet
64 460 m 1
 211 460 l 1
 211 0 l 1
 64 0 l 1
 64 460 l 1
EndSplineSet
EndChar

StartChar: kgreenlandic
Encoding: 312 312 228
Width: 576
VWidth: 0
Flags: HMW
LayerCount: 2
Fore
SplineSet
58 460 m 1
 203 460 l 1
 203 0 l 1
 58 0 l 1
 58 460 l 1
370 460 m 1
 550 460 l 1
 354 270 l 1
 570 0 l 1
 393 0 l 1
 173 270 l 1
 370 460 l 1
EndSplineSet
EndChar

StartChar: iacute
Encoding: 237 237 229
Width: 275
VWidth: 0
Flags: HMW
LayerCount: 2
Fore
SplineSet
64 460 m 1
 211 460 l 1
 211 0 l 1
 64 0 l 1
 64 460 l 1
310 688 m 1
 130 538 l 1
 44 580 l 1
 194 740 l 1
 310 688 l 1
EndSplineSet
EndChar

StartChar: icircumflex
Encoding: 238 238 230
Width: 275
VWidth: 0
Flags: HMW
LayerCount: 2
Fore
SplineSet
64 460 m 1
 211 460 l 1
 211 0 l 1
 64 0 l 1
 64 460 l 1
138 620 m 1
 46 534 l 1
 -60 606 l 1
 138 746 l 1
 334 606 l 1
 228 534 l 1
 138 620 l 1
EndSplineSet
EndChar

StartChar: idieresis
Encoding: 239 239 231
Width: 275
VWidth: 0
Flags: HMW
LayerCount: 2
Fore
SplineSet
64 460 m 1
 211 460 l 1
 211 0 l 1
 64 0 l 1
 64 460 l 1
172 624 m 0
 172 672 212 706 260 706 c 0
 308 706 348 672 348 624 c 0
 348 576 308 542 260 542 c 0
 212 542 172 576 172 624 c 0
-71 624 m 0
 -71 672 -32 706 16 706 c 0
 64 706 104 672 104 624 c 0
 104 576 64 542 16 542 c 0
 -32 542 -71 576 -71 624 c 0
EndSplineSet
EndChar

StartChar: ntilde
Encoding: 241 241 232
Width: 574
VWidth: 0
Flags: HMW
LayerCount: 2
Fore
SplineSet
211 460 m 1
 211 0 l 1
 60 0 l 1
 60 460 l 1
 211 460 l 1
358 280 m 2
 358 334 340 365 290 365 c 0
 242 365 211 334 211 280 c 1
 181 274 l 1
 181 383 237 470 351 470 c 0
 465 470 515 409 515 296 c 2
 515 0 l 1
 358 0 l 1
 358 280 l 2
92 596 m 1
 102 645 146 690 210 690 c 0
 276 690 292 639 348 639 c 0
 373 639 393 660 413 692 c 1
 484 618 l 1
 468 581 412 532 350 532 c 0
 295 532 260 586 210 586 c 0
 172 586 162 549 162 534 c 1
 92 596 l 1
EndSplineSet
EndChar

StartChar: ograve
Encoding: 242 242 233
Width: 589
VWidth: 0
Flags: HMW
LayerCount: 2
Fore
SplineSet
32 230 m 0
 32 375 144 470 294 470 c 0
 444 470 557 375 557 230 c 0
 557 85 444 -10 294 -10 c 0
 144 -10 32 85 32 230 c 0
188 230 m 0
 188 158 235 115 294 115 c 0
 353 115 402 158 402 230 c 0
 402 302 353 346 294 346 c 0
 235 346 188 302 188 230 c 0
134 688 m 1
 250 740 l 1
 400 580 l 1
 314 538 l 1
 134 688 l 1
EndSplineSet
EndChar

StartChar: oacute
Encoding: 243 243 234
Width: 589
VWidth: 0
Flags: HMW
LayerCount: 2
Fore
SplineSet
32 230 m 0
 32 375 144 470 294 470 c 0
 444 470 557 375 557 230 c 0
 557 85 444 -10 294 -10 c 0
 144 -10 32 85 32 230 c 0
188 230 m 0
 188 158 235 115 294 115 c 0
 353 115 402 158 402 230 c 0
 402 302 353 346 294 346 c 0
 235 346 188 302 188 230 c 0
454 688 m 1
 274 538 l 1
 190 580 l 1
 340 740 l 1
 454 688 l 1
EndSplineSet
EndChar

StartChar: ocircumflex
Encoding: 244 244 235
Width: 589
VWidth: 0
Flags: HMW
LayerCount: 2
Fore
SplineSet
32 230 m 0
 32 375 144 470 294 470 c 0
 444 470 557 375 557 230 c 0
 557 85 444 -10 294 -10 c 0
 144 -10 32 85 32 230 c 0
188 230 m 0
 188 158 235 115 294 115 c 0
 353 115 402 158 402 230 c 0
 402 302 353 346 294 346 c 0
 235 346 188 302 188 230 c 0
294 624 m 1
 203 538 l 1
 98 609 l 1
 294 749 l 1
 492 609 l 1
 386 538 l 1
 294 624 l 1
EndSplineSet
EndChar

StartChar: otilde
Encoding: 245 245 236
Width: 589
VWidth: 0
Flags: HMW
LayerCount: 2
Fore
SplineSet
32 230 m 0
 32 375 144 470 294 470 c 0
 444 470 557 375 557 230 c 0
 557 85 444 -10 294 -10 c 0
 144 -10 32 85 32 230 c 0
188 230 m 0
 188 158 235 115 294 115 c 0
 353 115 402 158 402 230 c 0
 402 302 353 346 294 346 c 0
 235 346 188 302 188 230 c 0
99 596 m 1
 109 645 154 690 218 690 c 0
 284 690 298 639 354 639 c 0
 379 639 400 660 420 692 c 1
 491 618 l 1
 475 581 418 532 356 532 c 0
 301 532 267 586 217 586 c 0
 179 586 170 549 170 534 c 1
 99 596 l 1
EndSplineSet
EndChar

StartChar: odieresis
Encoding: 246 246 237
Width: 589
VWidth: 0
Flags: HMW
LayerCount: 2
Fore
SplineSet
32 230 m 0
 32 375 144 470 294 470 c 0
 444 470 557 375 557 230 c 0
 557 85 444 -10 294 -10 c 0
 144 -10 32 85 32 230 c 0
188 230 m 0
 188 158 235 115 294 115 c 0
 353 115 402 158 402 230 c 0
 402 302 353 346 294 346 c 0
 235 346 188 302 188 230 c 0
328 624 m 0
 328 672 368 706 416 706 c 0
 464 706 504 672 504 624 c 0
 504 576 464 542 416 542 c 0
 368 542 328 576 328 624 c 0
85 624 m 0
 85 672 125 706 173 706 c 0
 221 706 261 672 261 624 c 0
 261 576 221 542 173 542 c 0
 125 542 85 576 85 624 c 0
EndSplineSet
EndChar

StartChar: ugrave
Encoding: 249 249 238
Width: 574
VWidth: 0
Flags: HMW
LayerCount: 2
Fore
SplineSet
364 0 m 1
 364 460 l 1
 515 460 l 1
 515 0 l 1
 364 0 l 1
217 180 m 2
 217 126 234 95 284 95 c 0
 332 95 364 126 364 180 c 1
 394 186 l 1
 394 77 338 -10 224 -10 c 0
 110 -10 60 51 60 164 c 2
 60 460 l 1
 217 460 l 1
 217 180 l 2
142 688 m 1
 258 740 l 1
 408 580 l 1
 322 538 l 1
 142 688 l 1
EndSplineSet
EndChar

StartChar: uacute
Encoding: 250 250 239
Width: 574
VWidth: 0
Flags: HMW
LayerCount: 2
Fore
SplineSet
364 0 m 1
 364 460 l 1
 515 460 l 1
 515 0 l 1
 364 0 l 1
217 180 m 2
 217 126 234 95 284 95 c 0
 332 95 364 126 364 180 c 1
 394 186 l 1
 394 77 338 -10 224 -10 c 0
 110 -10 60 51 60 164 c 2
 60 460 l 1
 217 460 l 1
 217 180 l 2
432 688 m 1
 252 538 l 1
 166 580 l 1
 316 740 l 1
 432 688 l 1
EndSplineSet
EndChar

StartChar: ucircumflex
Encoding: 251 251 240
Width: 574
VWidth: 0
Flags: HMW
LayerCount: 2
Fore
SplineSet
364 0 m 1
 364 460 l 1
 515 460 l 1
 515 0 l 1
 364 0 l 1
217 180 m 2
 217 126 234 95 284 95 c 0
 332 95 364 126 364 180 c 1
 394 186 l 1
 394 77 338 -10 224 -10 c 0
 110 -10 60 51 60 164 c 2
 60 460 l 1
 217 460 l 1
 217 180 l 2
286 624 m 1
 195 538 l 1
 90 609 l 1
 286 749 l 1
 484 609 l 1
 378 538 l 1
 286 624 l 1
EndSplineSet
EndChar

StartChar: udieresis
Encoding: 252 252 241
Width: 574
VWidth: 0
Flags: HMW
LayerCount: 2
Fore
SplineSet
364 0 m 1
 364 460 l 1
 515 460 l 1
 515 0 l 1
 364 0 l 1
217 180 m 2
 217 126 234 95 284 95 c 0
 332 95 364 126 364 180 c 1
 394 186 l 1
 394 77 338 -10 224 -10 c 0
 110 -10 60 51 60 164 c 2
 60 460 l 1
 217 460 l 1
 217 180 l 2
322 620 m 0
 322 668 361 702 409 702 c 0
 457 702 497 668 497 620 c 0
 497 572 457 538 409 538 c 0
 361 538 322 572 322 620 c 0
78 620 m 0
 78 668 118 702 166 702 c 0
 214 702 254 668 254 620 c 0
 254 572 214 538 166 538 c 0
 118 538 78 572 78 620 c 0
EndSplineSet
EndChar

StartChar: yacute
Encoding: 253 253 242
Width: 520
VWidth: 0
Flags: HMW
LayerCount: 2
Fore
SplineSet
530 460 m 1
 230 -220 l 1
 78 -220 l 1
 190 38 l 1
 -9 460 l 1
 157 460 l 1
 306 91 l 1
 228 92 l 1
 374 460 l 1
 530 460 l 1
422 688 m 1
 242 538 l 1
 156 580 l 1
 306 740 l 1
 422 688 l 1
EndSplineSet
EndChar

StartChar: thorn
Encoding: 254 254 243
Width: 616
VWidth: 0
Flags: HMW
LayerCount: 2
Fore
SplineSet
209 -220 m 1
 58 -220 l 1
 58 780 l 1
 209 780 l 1
 209 -220 l 1
585 230 m 0
 585 75 478 -10 366 -10 c 0
 251 -10 167 81 167 230 c 0
 167 379 251 470 366 470 c 0
 478 470 585 385 585 230 c 0
426 230 m 0
 426 302 376 349 316 349 c 0
 264 349 209 305 209 230 c 0
 209 155 264 111 316 111 c 0
 376 111 426 158 426 230 c 0
EndSplineSet
EndChar

StartChar: ydieresis
Encoding: 255 255 244
Width: 520
VWidth: 0
Flags: HMW
LayerCount: 2
Fore
SplineSet
530 460 m 1
 230 -220 l 1
 78 -220 l 1
 190 38 l 1
 -9 460 l 1
 157 460 l 1
 306 91 l 1
 228 92 l 1
 374 460 l 1
 530 460 l 1
294 612 m 0
 294 660 334 694 382 694 c 0
 430 694 470 660 470 612 c 0
 470 564 430 530 382 530 c 0
 334 530 294 564 294 612 c 0
50 612 m 0
 50 660 90 694 138 694 c 0
 186 694 226 660 226 612 c 0
 226 564 186 530 138 530 c 0
 90 530 50 564 50 612 c 0
EndSplineSet
EndChar

StartChar: Amacron
Encoding: 256 256 245
Width: 733
VWidth: 0
Flags: HMW
LayerCount: 2
Fore
SplineSet
184 136 m 1
 196 264 l 1
 543 264 l 1
 554 136 l 1
 184 136 l 1
367 443 m 1
 269 218 l 1
 277 180 l 1
 190 0 l 1
 -1 0 l 1
 367 744 l 1
 736 0 l 1
 544 0 l 1
 460 173 l 1
 466 216 l 1
 367 443 l 1
182 804 m 1
 182 935 l 1
 552 935 l 1
 552 804 l 1
 182 804 l 1
EndSplineSet
EndChar

StartChar: amacron
Encoding: 257 257 246
Width: 543
VWidth: 0
Flags: HMW
LayerCount: 2
Fore
SplineSet
176 138 m 0
 176 104 202 88 242 88 c 0
 298 88 345 112 345 186 c 1
 361 130 l 1
 361 41 286 -10 191 -10 c 0
 90 -10 24 41 24 128 c 0
 24 222 106 279 223 279 c 0
 293 279 358 252 378 230 c 1
 378 159 l 1
 344 185 310 198 258 198 c 0
 206 198 176 174 176 138 c 0
117 319 m 1
 66 420 l 1
 118 445 193 473 276 473 c 0
 400 473 490 419 490 324 c 2
 490 0 l 1
 345 0 l 1
 345 294 l 2
 345 333 314 358 264 358 c 0
 198 358 139 332 117 319 c 1
90 541 m 1
 90 671 l 1
 462 671 l 1
 462 541 l 1
 90 541 l 1
EndSplineSet
Substitution2: "alt a" amacron.alt
EndChar

StartChar: breve
Encoding: 728 728 247
Width: 546
VWidth: 0
Flags: HMW
LayerCount: 2
Fore
SplineSet
109 850 m 1
 208 850 l 1
 208 815 234 790 273 790 c 0
 312 790 338 815 338 850 c 1
 437 850 l 1
 437 768 378 704 273 704 c 0
 168 704 109 768 109 850 c 1
EndSplineSet
EndChar

StartChar: Abreve
Encoding: 258 258 248
Width: 733
VWidth: 0
Flags: HMW
LayerCount: 2
Fore
SplineSet
184 136 m 1
 196 264 l 1
 543 264 l 1
 554 136 l 1
 184 136 l 1
367 443 m 1
 269 218 l 1
 277 180 l 1
 190 0 l 1
 -1 0 l 1
 367 744 l 1
 736 0 l 1
 544 0 l 1
 460 173 l 1
 466 216 l 1
 367 443 l 1
203 950 m 1
 302 950 l 1
 302 915 328 891 367 891 c 0
 406 891 432 915 432 950 c 1
 531 950 l 1
 531 868 472 804 367 804 c 0
 262 804 203 868 203 950 c 1
EndSplineSet
EndChar

StartChar: abreve
Encoding: 259 259 249
Width: 543
VWidth: 0
Flags: HMW
LayerCount: 2
Fore
SplineSet
176 138 m 0
 176 104 202 88 242 88 c 0
 298 88 345 112 345 186 c 1
 361 130 l 1
 361 41 286 -10 191 -10 c 0
 90 -10 24 41 24 128 c 0
 24 222 106 279 223 279 c 0
 293 279 358 252 378 230 c 1
 378 159 l 1
 344 185 310 198 258 198 c 0
 206 198 176 174 176 138 c 0
117 319 m 1
 66 420 l 1
 118 445 193 473 276 473 c 0
 400 473 490 419 490 324 c 2
 490 0 l 1
 345 0 l 1
 345 294 l 2
 345 333 314 358 264 358 c 0
 198 358 139 332 117 319 c 1
112 679 m 1
 211 679 l 1
 211 644 237 620 276 620 c 0
 315 620 341 644 341 679 c 1
 440 679 l 1
 440 597 381 533 276 533 c 0
 171 533 112 597 112 679 c 1
EndSplineSet
Substitution2: "alt a" abreve.alt
EndChar

StartChar: Aogonek
Encoding: 260 260 250
Width: 733
VWidth: 0
Flags: HMW
LayerCount: 2
Fore
SplineSet
184 136 m 1
 196 264 l 1
 543 264 l 1
 554 136 l 1
 184 136 l 1
367 443 m 1
 269 218 l 1
 277 180 l 1
 190 0 l 1
 -1 0 l 1
 367 744 l 1
 736 0 l 1
 544 0 l 1
 460 173 l 1
 466 216 l 1
 367 443 l 1
691 -112 m 1
 724 -180 l 1
 709 -200 680 -220 624 -220 c 0
 558 -220 506 -185 506 -120 c 0
 506 -55 575 -11 645 25 c 1
 686 0 l 1
 634 -28 605 -63 605 -94 c 0
 605 -118 617 -132 641 -132 c 0
 661 -132 677 -125 691 -112 c 1
EndSplineSet
EndChar

StartChar: aogonek
Encoding: 261 261 251
Width: 543
VWidth: 0
Flags: HMW
LayerCount: 2
Fore
SplineSet
176 138 m 0
 176 104 206 88 242 88 c 0
 298 88 345 112 345 186 c 1
 361 130 l 1
 361 41 286 -10 191 -10 c 0
 93 -10 24 39 24 130 c 0
 24 221 102 279 223 279 c 0
 293 279 358 252 378 230 c 1
 378 159 l 1
 344 185 310 198 258 198 c 0
 206 198 176 174 176 138 c 0
117 319 m 1
 66 420 l 1
 118 445 193 473 276 473 c 0
 400 473 490 419 490 324 c 2
 490 0 l 1
 345 0 l 1
 345 294 l 2
 345 333 314 358 264 358 c 0
 198 358 139 332 117 319 c 1
464 -112 m 1
 497 -180 l 1
 482 -200 452 -220 396 -220 c 0
 330 -220 280 -185 280 -120 c 0
 280 -55 348 -11 418 25 c 1
 459 0 l 1
 407 -28 378 -63 378 -94 c 0
 378 -118 390 -132 414 -132 c 0
 434 -132 450 -125 464 -112 c 1
EndSplineSet
Substitution2: "alt a" aogonek.alt
EndChar

StartChar: Cacute
Encoding: 262 262 252
Width: 699
VWidth: 0
Flags: HMW
LayerCount: 2
Fore
SplineSet
218 350 m 0
 218 221 314 144 428 144 c 0
 527 144 590 188 636 238 c 1
 636 54 l 1
 580 10 520 -16 418 -16 c 0
 193 -16 34 132 34 350 c 0
 34 568 193 716 418 716 c 0
 520 716 580 690 636 646 c 1
 636 462 l 1
 590 512 527 556 428 556 c 0
 314 556 218 479 218 350 c 0
548 926 m 1
 368 776 l 1
 282 818 l 1
 432 978 l 1
 548 926 l 1
EndSplineSet
EndChar

StartChar: cacute
Encoding: 263 263 253
Width: 492
VWidth: 0
Flags: HMW
LayerCount: 2
Fore
SplineSet
186 230 m 0
 186 156 240 110 308 110 c 0
 364 110 417 135 444 179 c 1
 444 32 l 1
 412 6 365 -10 296 -10 c 0
 142 -10 30 85 30 230 c 0
 30 375 142 470 296 470 c 0
 365 470 412 452 444 430 c 1
 444 282 l 1
 417 326 358 350 308 350 c 0
 240 350 186 298 186 230 c 0
426 680 m 1
 246 530 l 1
 160 573 l 1
 310 733 l 1
 426 680 l 1
EndSplineSet
EndChar

StartChar: Ccircumflex
Encoding: 264 264 254
Width: 699
VWidth: 0
Flags: HMW
LayerCount: 2
Fore
SplineSet
218 350 m 0
 218 221 314 144 428 144 c 0
 527 144 590 188 636 238 c 1
 636 54 l 1
 580 10 520 -16 418 -16 c 0
 193 -16 34 132 34 350 c 0
 34 568 193 716 418 716 c 0
 520 716 580 690 636 646 c 1
 636 462 l 1
 590 512 527 556 428 556 c 0
 314 556 218 479 218 350 c 0
418 862 m 1
 326 776 l 1
 221 847 l 1
 418 987 l 1
 615 847 l 1
 509 776 l 1
 418 862 l 1
EndSplineSet
EndChar

StartChar: ccircumflex
Encoding: 265 265 255
Width: 492
VWidth: 0
Flags: HMW
LayerCount: 2
Fore
SplineSet
186 230 m 0
 186 156 240 110 308 110 c 0
 364 110 417 135 444 179 c 1
 444 32 l 1
 412 6 365 -10 296 -10 c 0
 142 -10 30 85 30 230 c 0
 30 375 142 470 296 470 c 0
 365 470 412 452 444 430 c 1
 444 282 l 1
 417 326 358 350 308 350 c 0
 240 350 186 298 186 230 c 0
265 616 m 1
 174 530 l 1
 68 602 l 1
 265 742 l 1
 462 602 l 1
 356 530 l 1
 265 616 l 1
EndSplineSet
EndChar

StartChar: Cdotaccent
Encoding: 266 266 256
Width: 699
VWidth: 0
Flags: HMW
LayerCount: 2
Fore
SplineSet
218 350 m 0
 218 221 314 144 428 144 c 0
 527 144 590 188 636 238 c 1
 636 54 l 1
 580 10 520 -16 418 -16 c 0
 193 -16 34 132 34 350 c 0
 34 568 193 716 418 716 c 0
 520 716 580 690 636 646 c 1
 636 462 l 1
 590 512 527 556 428 556 c 0
 314 556 218 479 218 350 c 0
305 858 m 0
 305 906 345 940 393 940 c 0
 441 940 481 906 481 858 c 0
 481 810 441 776 393 776 c 0
 345 776 305 810 305 858 c 0
EndSplineSet
EndChar

StartChar: cdotaccent
Encoding: 267 267 257
Width: 492
VWidth: 0
Flags: HMW
LayerCount: 2
Fore
SplineSet
186 230 m 0
 186 156 240 110 308 110 c 0
 364 110 417 135 444 179 c 1
 444 32 l 1
 412 6 365 -10 296 -10 c 0
 142 -10 30 85 30 230 c 0
 30 375 142 470 296 470 c 0
 365 470 412 452 444 430 c 1
 444 282 l 1
 417 326 358 350 308 350 c 0
 240 350 186 298 186 230 c 0
183 618 m 0
 183 666 223 700 271 700 c 0
 319 700 359 666 359 618 c 0
 359 570 319 537 271 537 c 0
 223 537 183 570 183 618 c 0
EndSplineSet
EndChar

StartChar: Ccaron
Encoding: 268 268 258
Width: 699
VWidth: 0
Flags: HMW
LayerCount: 2
Fore
SplineSet
218 350 m 0
 218 221 314 144 428 144 c 0
 527 144 590 188 636 238 c 1
 636 54 l 1
 580 10 520 -16 418 -16 c 0
 193 -16 34 132 34 350 c 0
 34 568 193 716 418 716 c 0
 520 716 580 690 636 646 c 1
 636 462 l 1
 590 512 527 556 428 556 c 0
 314 556 218 479 218 350 c 0
418 901 m 1
 509 987 l 1
 615 916 l 1
 418 776 l 1
 221 916 l 1
 326 987 l 1
 418 901 l 1
EndSplineSet
EndChar

StartChar: ccaron
Encoding: 269 269 259
Width: 492
VWidth: 0
Flags: HMW
LayerCount: 2
Fore
SplineSet
186 230 m 0
 186 156 240 110 308 110 c 0
 364 110 417 135 444 179 c 1
 444 32 l 1
 412 6 365 -10 296 -10 c 0
 142 -10 30 85 30 230 c 0
 30 375 142 470 296 470 c 0
 365 470 412 452 444 430 c 1
 444 282 l 1
 417 326 358 350 308 350 c 0
 240 350 186 298 186 230 c 0
265 656 m 1
 356 742 l 1
 462 670 l 1
 265 530 l 1
 68 670 l 1
 174 742 l 1
 265 656 l 1
EndSplineSet
EndChar

StartChar: Dcaron
Encoding: 270 270 260
Width: 732
VWidth: 0
Flags: HMW
LayerCount: 2
Fore
SplineSet
74 700 m 1
 248 700 l 1
 248 0 l 1
 74 0 l 1
 74 700 l 1
324 0 m 2
 186 0 l 1
 186 150 l 1
 318 150 l 2
 426 150 524 200 524 350 c 0
 524 500 426 550 318 550 c 2
 186 550 l 1
 186 700 l 1
 324 700 l 2
 552 700 699 565 699 350 c 0
 699 135 552 0 324 0 c 2
374 901 m 1
 466 987 l 1
 572 916 l 1
 374 776 l 1
 178 916 l 1
 284 987 l 1
 374 901 l 1
EndSplineSet
EndChar

StartChar: dcaron
Encoding: 271 271 261
Width: 616
VWidth: 0
Flags: HMW
LayerCount: 2
Fore
SplineSet
408 780 m 1
 559 780 l 1
 559 0 l 1
 408 0 l 1
 408 780 l 1
32 230 m 0
 32 385 138 470 250 470 c 0
 365 470 450 379 450 230 c 0
 450 81 365 -10 250 -10 c 0
 138 -10 32 75 32 230 c 0
190 230 m 0
 190 158 240 111 300 111 c 0
 352 111 408 155 408 230 c 0
 408 305 352 349 300 349 c 0
 240 349 190 302 190 230 c 0
677 780 m 1
 828 748 l 1
 702 498 l 1
 589 521 l 1
 677 780 l 1
EndSplineSet
EndChar

StartChar: Dcroat
Encoding: 272 272 262
Width: 732
VWidth: 0
Flags: HMW
LayerCount: 2
Fore
SplineSet
5 298 m 1
 5 398 l 1
 348 398 l 1
 348 298 l 1
 5 298 l 1
74 700 m 1
 248 700 l 1
 248 0 l 1
 74 0 l 1
 74 700 l 1
324 0 m 2
 186 0 l 1
 186 150 l 1
 318 150 l 2
 426 150 524 200 524 350 c 0
 524 500 426 550 318 550 c 2
 186 550 l 1
 186 700 l 1
 324 700 l 2
 552 700 699 565 699 350 c 0
 699 135 552 0 324 0 c 2
EndSplineSet
EndChar

StartChar: dcroat
Encoding: 273 273 263
Width: 616
VWidth: 0
Flags: HMW
LayerCount: 2
Fore
SplineSet
295 566 m 1
 295 665 l 1
 651 665 l 1
 651 566 l 1
 295 566 l 1
408 780 m 1
 559 780 l 1
 559 0 l 1
 408 0 l 1
 408 780 l 1
32 230 m 0
 32 385 138 470 250 470 c 0
 365 470 450 379 450 230 c 0
 450 81 365 -10 250 -10 c 0
 138 -10 32 75 32 230 c 0
190 230 m 0
 190 158 240 111 300 111 c 0
 352 111 408 155 408 230 c 0
 408 305 352 349 300 349 c 0
 240 349 190 302 190 230 c 0
EndSplineSet
EndChar

StartChar: Emacron
Encoding: 274 274 264
Width: 602
VWidth: 0
Flags: HMW
LayerCount: 2
Fore
SplineSet
186 0 m 1
 186 139 l 1
 539 139 l 1
 539 0 l 1
 186 0 l 1
186 561 m 1
 186 700 l 1
 539 700 l 1
 539 561 l 1
 186 561 l 1
186 300 m 1
 186 436 l 1
 519 436 l 1
 519 300 l 1
 186 300 l 1
74 700 m 1
 236 700 l 1
 236 0 l 1
 74 0 l 1
 74 700 l 1
120 776 m 1
 120 907 l 1
 492 907 l 1
 492 776 l 1
 120 776 l 1
EndSplineSet
EndChar

StartChar: emacron
Encoding: 275 275 265
Width: 572
VWidth: 0
Flags: HMW
LayerCount: 2
Fore
SplineSet
117 198 m 1
 117 282 l 1
 377 282 l 1
 370 337 342 369 288 369 c 0
 226 369 186 328 186 254 c 1
 184 230 l 1
 184 136 231 99 290 99 c 0
 344 99 384 120 406 158 c 1
 540 126 l 1
 494 44 425 -10 293 -10 c 0
 125 -10 32 91 32 230 c 0
 32 247 33 263 36 279 c 0
 55 392 140 470 290 470 c 0
 451 470 539 382 539 237 c 0
 539 229 540 214 538 198 c 1
 117 198 l 1
105 530 m 1
 105 661 l 1
 476 661 l 1
 476 530 l 1
 105 530 l 1
EndSplineSet
EndChar

StartChar: Ebreve
Encoding: 276 276 266
Width: 602
VWidth: 0
Flags: HMW
LayerCount: 2
Fore
SplineSet
186 0 m 1
 186 139 l 1
 539 139 l 1
 539 0 l 1
 186 0 l 1
186 561 m 1
 186 700 l 1
 539 700 l 1
 539 561 l 1
 186 561 l 1
186 300 m 1
 186 436 l 1
 519 436 l 1
 519 300 l 1
 186 300 l 1
74 700 m 1
 236 700 l 1
 236 0 l 1
 74 0 l 1
 74 700 l 1
142 922 m 1
 240 922 l 1
 240 887 267 862 306 862 c 0
 345 862 372 887 372 922 c 1
 470 922 l 1
 470 840 411 776 306 776 c 0
 201 776 142 840 142 922 c 1
EndSplineSet
EndChar

StartChar: ebreve
Encoding: 277 277 267
Width: 572
VWidth: 0
Flags: HMW
LayerCount: 2
Fore
SplineSet
117 198 m 1
 117 282 l 1
 377 282 l 1
 370 337 342 369 288 369 c 0
 226 369 186 328 186 254 c 1
 184 230 l 1
 184 136 231 99 290 99 c 0
 344 99 384 120 406 158 c 1
 540 126 l 1
 494 44 425 -10 293 -10 c 0
 125 -10 32 91 32 230 c 0
 32 247 33 263 36 279 c 0
 55 392 140 470 290 470 c 0
 451 470 539 382 539 237 c 0
 539 229 540 214 538 198 c 1
 117 198 l 1
126 677 m 1
 226 677 l 1
 226 642 251 618 290 618 c 0
 329 618 356 642 356 677 c 1
 455 677 l 1
 455 595 395 530 290 530 c 0
 185 530 126 595 126 677 c 1
EndSplineSet
EndChar

StartChar: Edotaccent
Encoding: 278 278 268
Width: 602
VWidth: 0
Flags: HMW
LayerCount: 2
Fore
SplineSet
186 0 m 1
 186 139 l 1
 539 139 l 1
 539 0 l 1
 186 0 l 1
186 561 m 1
 186 700 l 1
 539 700 l 1
 539 561 l 1
 186 561 l 1
186 300 m 1
 186 436 l 1
 519 436 l 1
 519 300 l 1
 186 300 l 1
74 700 m 1
 236 700 l 1
 236 0 l 1
 74 0 l 1
 74 700 l 1
218 858 m 0
 218 906 258 940 306 940 c 0
 354 940 394 906 394 858 c 0
 394 810 354 776 306 776 c 0
 258 776 218 810 218 858 c 0
EndSplineSet
EndChar

StartChar: edotaccent
Encoding: 279 279 269
Width: 572
VWidth: 0
Flags: HMW
LayerCount: 2
Fore
SplineSet
117 198 m 1
 117 282 l 1
 377 282 l 1
 370 337 342 369 288 369 c 0
 226 369 186 328 186 254 c 1
 184 230 l 1
 184 136 231 99 290 99 c 0
 344 99 384 120 406 158 c 1
 540 126 l 1
 494 44 425 -10 293 -10 c 0
 125 -10 32 91 32 230 c 0
 32 247 33 263 36 279 c 0
 55 392 140 470 290 470 c 0
 451 470 539 382 539 237 c 0
 539 229 540 214 538 198 c 1
 117 198 l 1
204 612 m 0
 204 660 242 694 290 694 c 0
 338 694 378 660 378 612 c 0
 378 564 338 530 290 530 c 0
 242 530 204 564 204 612 c 0
EndSplineSet
EndChar

StartChar: Eogonek
Encoding: 280 280 270
Width: 602
VWidth: 0
Flags: HMW
LayerCount: 2
Fore
SplineSet
186 0 m 1
 186 139 l 1
 539 139 l 1
 539 0 l 1
 186 0 l 1
186 561 m 1
 186 700 l 1
 539 700 l 1
 539 561 l 1
 186 561 l 1
186 300 m 1
 186 436 l 1
 519 436 l 1
 519 300 l 1
 186 300 l 1
74 700 m 1
 236 700 l 1
 236 0 l 1
 74 0 l 1
 74 700 l 1
399 -112 m 1
 432 -180 l 1
 417 -200 388 -220 332 -220 c 0
 266 -220 214 -185 214 -120 c 0
 214 -55 283 -11 353 25 c 1
 394 0 l 1
 342 -28 313 -63 313 -94 c 0
 313 -118 325 -132 349 -132 c 0
 369 -132 385 -125 399 -112 c 1
EndSplineSet
EndChar

StartChar: eogonek
Encoding: 281 281 271
Width: 572
VWidth: 0
Flags: HMW
LayerCount: 2
Fore
SplineSet
117 198 m 1
 117 282 l 1
 377 282 l 1
 370 337 342 369 288 369 c 0
 226 369 186 328 186 254 c 1
 184 230 l 1
 184 136 231 99 290 99 c 0
 344 99 384 120 406 158 c 1
 540 126 l 1
 494 44 425 -10 293 -10 c 0
 125 -10 32 91 32 230 c 0
 32 247 33 263 36 279 c 0
 55 392 140 470 290 470 c 0
 451 470 539 382 539 237 c 0
 539 229 540 214 538 198 c 1
 117 198 l 1
326 -104 m 1
 360 -172 l 1
 345 -192 316 -212 260 -212 c 0
 194 -212 142 -177 142 -112 c 0
 142 -47 210 -4 280 32 c 1
 322 8 l 1
 270 -20 241 -55 241 -86 c 0
 241 -110 252 -124 276 -124 c 0
 296 -124 312 -117 326 -104 c 1
EndSplineSet
EndChar

StartChar: Ecaron
Encoding: 282 282 272
Width: 602
VWidth: 0
Flags: HMW
LayerCount: 2
Fore
SplineSet
186 0 m 1
 186 139 l 1
 539 139 l 1
 539 0 l 1
 186 0 l 1
186 561 m 1
 186 700 l 1
 539 700 l 1
 539 561 l 1
 186 561 l 1
186 300 m 1
 186 436 l 1
 519 436 l 1
 519 300 l 1
 186 300 l 1
74 700 m 1
 236 700 l 1
 236 0 l 1
 74 0 l 1
 74 700 l 1
306 901 m 1
 398 987 l 1
 503 916 l 1
 306 776 l 1
 108 916 l 1
 214 987 l 1
 306 901 l 1
EndSplineSet
EndChar

StartChar: ecaron
Encoding: 283 283 273
Width: 572
VWidth: 0
Flags: HMW
LayerCount: 2
Fore
SplineSet
117 198 m 1
 117 282 l 1
 377 282 l 1
 370 337 342 369 288 369 c 0
 226 369 186 328 186 254 c 1
 184 230 l 1
 184 136 231 99 290 99 c 0
 344 99 384 120 406 158 c 1
 540 126 l 1
 494 44 425 -10 293 -10 c 0
 125 -10 32 91 32 230 c 0
 32 247 33 263 36 279 c 0
 55 392 140 470 290 470 c 0
 451 470 539 382 539 237 c 0
 539 229 540 214 538 198 c 1
 117 198 l 1
290 656 m 1
 382 742 l 1
 488 670 l 1
 290 530 l 1
 94 670 l 1
 199 742 l 1
 290 656 l 1
EndSplineSet
EndChar

StartChar: Gcircumflex
Encoding: 284 284 274
Width: 813
VWidth: 0
Flags: HMW
LayerCount: 2
Fore
SplineSet
420 254 m 1
 420 382 l 1
 774 382 l 1
 786 160 654 -22 416 -22 c 0
 194 -22 34 128 34 350 c 0
 34 572 200 716 422 716 c 0
 570 716 673 647 739 550 c 1
 589 473 l 1
 557 529 504 569 422 569 c 0
 305 569 210 488 210 350 c 0
 210 212 298 125 422 125 c 0
 525 125 583 180 606 254 c 1
 420 254 l 1
422 862 m 1
 331 776 l 1
 226 847 l 1
 422 987 l 1
 620 847 l 1
 514 776 l 1
 422 862 l 1
EndSplineSet
EndChar

StartChar: gcircumflex
Encoding: 285 285 275
Width: 610
VWidth: 0
Flags: HMW
LayerCount: 2
Fore
SplineSet
42 -33 m 1
 188 -33 l 1
 192 -90 235 -118 294 -118 c 0
 358 -118 408 -75 408 10 c 2
 408 460 l 1
 553 460 l 1
 553 10 l 2
 553 -168 440 -239 300 -239 c 0
 128 -239 54 -155 42 -33 c 1
32 236 m 0
 32 391 138 470 250 470 c 0
 365 470 450 385 450 236 c 0
 450 87 365 2 250 2 c 0
 138 2 32 81 32 236 c 0
190 236 m 0
 190 164 240 124 300 124 c 0
 352 124 408 161 408 236 c 0
 408 311 352 349 300 349 c 0
 240 349 190 308 190 236 c 0
319 616 m 1
 228 530 l 1
 122 602 l 1
 319 742 l 1
 516 602 l 1
 410 530 l 1
 319 616 l 1
EndSplineSet
EndChar

StartChar: Gbreve
Encoding: 286 286 276
Width: 813
VWidth: 0
Flags: HMW
LayerCount: 2
Fore
SplineSet
420 254 m 1
 420 382 l 1
 774 382 l 1
 786 160 654 -22 416 -22 c 0
 194 -22 34 128 34 350 c 0
 34 572 200 716 422 716 c 0
 570 716 673 647 739 550 c 1
 589 473 l 1
 557 529 504 569 422 569 c 0
 305 569 210 488 210 350 c 0
 210 212 298 125 422 125 c 0
 525 125 583 180 606 254 c 1
 420 254 l 1
258 922 m 1
 358 922 l 1
 358 887 383 862 422 862 c 0
 461 862 488 887 488 922 c 1
 587 922 l 1
 587 840 527 776 422 776 c 0
 317 776 258 840 258 922 c 1
EndSplineSet
EndChar

StartChar: gbreve
Encoding: 287 287 277
Width: 610
VWidth: 0
Flags: HMW
LayerCount: 2
Fore
SplineSet
42 -33 m 1
 188 -33 l 1
 192 -90 235 -118 294 -118 c 0
 358 -118 408 -75 408 10 c 2
 408 460 l 1
 553 460 l 1
 553 10 l 2
 553 -168 440 -239 300 -239 c 0
 128 -239 54 -155 42 -33 c 1
32 236 m 0
 32 391 138 470 250 470 c 0
 365 470 450 385 450 236 c 0
 450 87 365 2 250 2 c 0
 138 2 32 81 32 236 c 0
190 236 m 0
 190 164 240 124 300 124 c 0
 352 124 408 161 408 236 c 0
 408 311 352 349 300 349 c 0
 240 349 190 308 190 236 c 0
155 677 m 1
 254 677 l 1
 254 642 280 618 319 618 c 0
 358 618 384 642 384 677 c 1
 483 677 l 1
 483 595 424 530 319 530 c 0
 214 530 155 595 155 677 c 1
EndSplineSet
EndChar

StartChar: Gdotaccent
Encoding: 288 288 278
Width: 813
VWidth: 0
Flags: HMW
LayerCount: 2
Fore
SplineSet
420 254 m 1
 420 382 l 1
 774 382 l 1
 786 160 654 -22 416 -22 c 0
 194 -22 34 128 34 350 c 0
 34 572 200 716 422 716 c 0
 570 716 673 647 739 550 c 1
 589 473 l 1
 557 529 504 569 422 569 c 0
 305 569 210 488 210 350 c 0
 210 212 298 125 422 125 c 0
 525 125 583 180 606 254 c 1
 420 254 l 1
336 858 m 0
 336 906 374 940 422 940 c 0
 470 940 510 906 510 858 c 0
 510 810 470 776 422 776 c 0
 374 776 336 810 336 858 c 0
EndSplineSet
EndChar

StartChar: gdotaccent
Encoding: 289 289 279
Width: 610
VWidth: 0
Flags: HMW
LayerCount: 2
Fore
SplineSet
42 -33 m 1
 188 -33 l 1
 192 -90 235 -118 294 -118 c 0
 358 -118 408 -75 408 10 c 2
 408 460 l 1
 553 460 l 1
 553 10 l 2
 553 -168 440 -239 300 -239 c 0
 128 -239 54 -155 42 -33 c 1
32 236 m 0
 32 391 138 470 250 470 c 0
 365 470 450 385 450 236 c 0
 450 87 365 2 250 2 c 0
 138 2 32 81 32 236 c 0
190 236 m 0
 190 164 240 124 300 124 c 0
 352 124 408 161 408 236 c 0
 408 311 352 349 300 349 c 0
 240 349 190 308 190 236 c 0
220 628 m 0
 220 676 260 709 308 709 c 0
 356 709 396 676 396 628 c 0
 396 580 356 546 308 546 c 0
 260 546 220 580 220 628 c 0
EndSplineSet
EndChar

StartChar: uni0122
Encoding: 290 290 280
Width: 813
VWidth: 0
Flags: HMW
LayerCount: 2
Fore
SplineSet
420 254 m 1
 420 382 l 1
 774 382 l 1
 786 160 654 -22 416 -22 c 0
 194 -22 34 128 34 350 c 0
 34 572 200 716 422 716 c 0
 570 716 673 647 739 550 c 1
 589 473 l 1
 557 529 504 569 422 569 c 0
 305 569 210 488 210 350 c 0
 210 212 298 125 422 125 c 0
 525 125 583 180 606 254 c 1
 420 254 l 1
354 -82 m 1
 505 -114 l 1
 380 -364 l 1
 266 -342 l 1
 354 -82 l 1
EndSplineSet
EndChar

StartChar: Hcircumflex
Encoding: 292 292 281
Width: 785
VWidth: 0
Flags: HMW
LayerCount: 2
Fore
SplineSet
121 294 m 1
 121 444 l 1
 650 444 l 1
 650 294 l 1
 121 294 l 1
544 700 m 1
 712 700 l 1
 712 0 l 1
 544 0 l 1
 544 700 l 1
74 700 m 1
 242 700 l 1
 242 0 l 1
 74 0 l 1
 74 700 l 1
394 862 m 1
 302 776 l 1
 196 847 l 1
 394 987 l 1
 591 847 l 1
 485 776 l 1
 394 862 l 1
EndSplineSet
EndChar

StartChar: hcircumflex
Encoding: 293 293 282
Width: 568
VWidth: 0
Flags: HMW
LayerCount: 2
Fore
SplineSet
211 780 m 1
 211 0 l 1
 60 0 l 1
 60 780 l 1
 211 780 l 1
358 280 m 2
 358 334 340 365 290 365 c 0
 242 365 211 334 211 280 c 1
 181 280 l 1
 181 389 237 477 351 477 c 0
 465 477 509 415 509 302 c 2
 509 0 l 1
 358 0 l 1
 358 280 l 2
138 926 m 1
 46 840 l 1
 -60 911 l 1
 138 1051 l 1
 335 911 l 1
 229 840 l 1
 138 926 l 1
EndSplineSet
EndChar

StartChar: Itilde
Encoding: 296 296 283
Width: 318
VWidth: 0
Flags: HMW
LayerCount: 2
Fore
SplineSet
74 700 m 1
 246 700 l 1
 246 0 l 1
 74 0 l 1
 74 700 l 1
-36 842 m 1
 -26 891 20 936 84 936 c 0
 150 936 163 884 219 884 c 0
 244 884 265 905 285 937 c 1
 356 863 l 1
 340 826 284 778 222 778 c 0
 167 778 132 831 82 831 c 0
 44 831 36 795 36 780 c 1
 -36 842 l 1
EndSplineSet
EndChar

StartChar: itilde
Encoding: 297 297 284
Width: 275
VWidth: 0
Flags: HMW
LayerCount: 2
Fore
SplineSet
64 460 m 1
 211 460 l 1
 211 0 l 1
 64 0 l 1
 64 460 l 1
-58 596 m 1
 -48 645 -4 690 60 690 c 0
 126 690 142 639 198 639 c 0
 223 639 244 660 264 692 c 1
 334 618 l 1
 318 581 262 532 200 532 c 0
 145 532 110 586 60 586 c 0
 22 586 14 549 14 534 c 1
 -58 596 l 1
EndSplineSet
EndChar

StartChar: Imacron
Encoding: 298 298 285
Width: 318
VWidth: 0
Flags: HMW
LayerCount: 2
Fore
SplineSet
74 700 m 1
 246 700 l 1
 246 0 l 1
 74 0 l 1
 74 700 l 1
-26 776 m 1
 -26 907 l 1
 346 907 l 1
 346 776 l 1
 -26 776 l 1
EndSplineSet
EndChar

StartChar: imacron
Encoding: 299 299 286
Width: 275
VWidth: 0
Flags: HMW
LayerCount: 2
Fore
SplineSet
64 460 m 1
 211 460 l 1
 211 0 l 1
 64 0 l 1
 64 460 l 1
-48 530 m 1
 -48 661 l 1
 324 661 l 1
 324 530 l 1
 -48 530 l 1
EndSplineSet
EndChar

StartChar: Ibreve
Encoding: 300 300 287
Width: 318
VWidth: 0
Flags: HMW
LayerCount: 2
Fore
SplineSet
74 700 m 1
 246 700 l 1
 246 0 l 1
 74 0 l 1
 74 700 l 1
-5 922 m 1
 94 922 l 1
 94 887 121 862 160 862 c 0
 199 862 224 887 224 922 c 1
 324 922 l 1
 324 840 265 776 160 776 c 0
 55 776 -5 840 -5 922 c 1
EndSplineSet
EndChar

StartChar: ibreve
Encoding: 301 301 288
Width: 275
VWidth: 0
Flags: HMW
LayerCount: 2
Fore
SplineSet
64 460 m 1
 211 460 l 1
 211 0 l 1
 64 0 l 1
 64 460 l 1
-26 677 m 1
 72 677 l 1
 72 642 99 618 138 618 c 0
 177 618 202 642 202 677 c 1
 302 677 l 1
 302 595 243 530 138 530 c 0
 33 530 -26 595 -26 677 c 1
EndSplineSet
EndChar

StartChar: Iogonek
Encoding: 302 302 289
Width: 318
VWidth: 0
Flags: HMW
LayerCount: 2
Fore
SplineSet
74 700 m 1
 246 700 l 1
 246 0 l 1
 74 0 l 1
 74 700 l 1
224 -110 m 1
 258 -178 l 1
 243 -198 214 -218 158 -218 c 0
 92 -218 40 -183 40 -118 c 0
 40 -53 108 -10 178 26 c 1
 220 2 l 1
 168 -26 139 -61 139 -92 c 0
 139 -116 150 -130 174 -130 c 0
 194 -130 210 -123 224 -110 c 1
EndSplineSet
EndChar

StartChar: iogonek
Encoding: 303 303 290
Width: 275
VWidth: 0
Flags: HMW
LayerCount: 2
Fore
SplineSet
50 632 m 0
 50 680 90 714 138 714 c 0
 186 714 226 680 226 632 c 0
 226 584 186 551 138 551 c 0
 90 551 50 584 50 632 c 0
64 460 m 1
 211 460 l 1
 211 0 l 1
 64 0 l 1
 64 460 l 1
191 -112 m 1
 224 -180 l 1
 209 -200 180 -220 124 -220 c 0
 58 -220 7 -185 7 -120 c 0
 7 -55 75 -11 145 25 c 1
 186 0 l 1
 134 -28 106 -63 106 -94 c 0
 106 -118 117 -132 141 -132 c 0
 161 -132 177 -125 191 -112 c 1
EndSplineSet
EndChar

StartChar: Idotaccent
Encoding: 304 304 291
Width: 318
VWidth: 0
Flags: HMW
LayerCount: 2
Fore
SplineSet
74 700 m 1
 246 700 l 1
 246 0 l 1
 74 0 l 1
 74 700 l 1
72 858 m 0
 72 906 111 940 159 940 c 0
 207 940 247 906 247 858 c 0
 247 810 207 776 159 776 c 0
 111 776 72 810 72 858 c 0
EndSplineSet
EndChar

StartChar: uni0136
Encoding: 310 310 292
Width: 698
VWidth: 0
Flags: HMW
LayerCount: 2
Fore
SplineSet
74 700 m 1
 248 700 l 1
 248 0 l 1
 74 0 l 1
 74 700 l 1
486 700 m 1
 685 700 l 1
 401 372 l 1
 700 0 l 1
 495 0 l 1
 200 367 l 1
 486 700 l 1
330 -60 m 1
 482 -92 l 1
 356 -342 l 1
 242 -319 l 1
 330 -60 l 1
EndSplineSet
EndChar

StartChar: uni0137
Encoding: 311 311 293
Width: 576
VWidth: 0
Flags: HMW
LayerCount: 2
Fore
SplineSet
58 780 m 1
 203 780 l 1
 203 0 l 1
 58 0 l 1
 58 780 l 1
370 460 m 1
 550 460 l 1
 354 270 l 1
 570 0 l 1
 393 0 l 1
 173 270 l 1
 370 460 l 1
258 -60 m 1
 409 -92 l 1
 283 -342 l 1
 170 -319 l 1
 258 -60 l 1
EndSplineSet
EndChar

StartChar: Lacute
Encoding: 313 313 294
Width: 527
VWidth: 0
Flags: HMW
LayerCount: 2
Fore
SplineSet
74 700 m 1
 242 700 l 1
 242 145 l 1
 524 145 l 1
 524 0 l 1
 74 0 l 1
 74 700 l 1
460 926 m 1
 280 776 l 1
 194 818 l 1
 344 978 l 1
 460 926 l 1
EndSplineSet
EndChar

StartChar: lacute
Encoding: 314 314 295
Width: 270
VWidth: 0
Flags: HMW
LayerCount: 2
Fore
SplineSet
60 780 m 1
 211 780 l 1
 211 0 l 1
 60 0 l 1
 60 780 l 1
296 990 m 1
 116 840 l 1
 32 882 l 1
 182 1042 l 1
 296 990 l 1
EndSplineSet
EndChar

StartChar: uni013B
Encoding: 315 315 296
Width: 527
VWidth: 0
Flags: HMW
LayerCount: 2
Fore
SplineSet
74 700 m 1
 242 700 l 1
 242 145 l 1
 524 145 l 1
 524 0 l 1
 74 0 l 1
 74 700 l 1
267 -60 m 1
 418 -92 l 1
 293 -342 l 1
 179 -319 l 1
 267 -60 l 1
EndSplineSet
EndChar

StartChar: uni013C
Encoding: 316 316 297
Width: 270
VWidth: 0
Flags: HMW
LayerCount: 2
Fore
SplineSet
60 780 m 1
 211 780 l 1
 211 0 l 1
 60 0 l 1
 60 780 l 1
104 -60 m 1
 255 -92 l 1
 129 -342 l 1
 16 -319 l 1
 104 -60 l 1
EndSplineSet
EndChar

StartChar: Lcaron
Encoding: 317 317 298
Width: 527
VWidth: 0
Flags: HMW
LayerCount: 2
Fore
SplineSet
74 700 m 1
 242 700 l 1
 242 145 l 1
 524 145 l 1
 524 0 l 1
 74 0 l 1
 74 700 l 1
412 716 m 1
 563 684 l 1
 437 434 l 1
 324 457 l 1
 412 716 l 1
EndSplineSet
EndChar

StartChar: lcaron
Encoding: 318 318 299
Width: 270
VWidth: 0
Flags: HMW
LayerCount: 2
Fore
SplineSet
60 780 m 1
 211 780 l 1
 211 0 l 1
 60 0 l 1
 60 780 l 1
349 780 m 1
 500 748 l 1
 374 498 l 1
 261 521 l 1
 349 780 l 1
EndSplineSet
EndChar

StartChar: Ldot
Encoding: 319 319 300
Width: 527
VWidth: 0
Flags: HMW
LayerCount: 2
Fore
SplineSet
74 700 m 1
 242 700 l 1
 242 145 l 1
 524 145 l 1
 524 0 l 1
 74 0 l 1
 74 700 l 1
322 430 m 0
 322 480 363 523 417 523 c 0
 471 523 511 480 511 430 c 0
 511 380 471 338 417 338 c 0
 363 338 322 380 322 430 c 0
EndSplineSet
EndChar

StartChar: ldot
Encoding: 320 320 301
Width: 476
VWidth: 0
Flags: HMW
LayerCount: 2
Fore
SplineSet
60 780 m 1
 211 780 l 1
 211 0 l 1
 60 0 l 1
 60 780 l 1
252 409 m 0
 252 459 292 501 346 501 c 0
 400 501 440 459 440 409 c 0
 440 359 400 317 346 317 c 0
 292 317 252 359 252 409 c 0
EndSplineSet
EndChar

StartChar: eth
Encoding: 240 240 302
Width: 668
VWidth: 0
Flags: HMW
LayerCount: 2
Fore
SplineSet
452 246 m 0
 452 318 401 365 334 365 c 0
 267 365 216 318 216 246 c 0
 216 174 267 128 334 128 c 0
 401 128 452 174 452 246 c 0
336 697 m 1
 538 440 l 2
 584 384 619 322 619 246 c 0
 619 74 490 -16 334 -16 c 0
 178 -16 50 74 50 246 c 0
 50 388 161 473 266 473 c 0
 316 473 345 465 383 429 c 1
 349 444 l 1
 122 697 l 1
 336 697 l 1
136 520 m 1
 136 598 l 1
 572 598 l 1
 572 520 l 1
 136 520 l 1
EndSplineSet
EndChar

StartChar: racute
Encoding: 341 341 303
Width: 410
VWidth: 0
Flags: HMW
LayerCount: 2
Fore
SplineSet
208 460 m 1
 208 0 l 1
 60 0 l 1
 60 460 l 1
 208 460 l 1
340 304 m 1
 324 320 308 330 282 330 c 0
 238 330 208 293 208 227 c 1
 172 280 l 1
 172 389 246 472 324 472 c 0
 357 472 390 458 406 434 c 1
 340 304 l 1
394 682 m 1
 214 532 l 1
 129 574 l 1
 279 734 l 1
 394 682 l 1
EndSplineSet
EndChar

StartChar: rcaron
Encoding: 345 345 304
Width: 410
VWidth: 0
Flags: HMW
LayerCount: 2
Fore
SplineSet
208 460 m 1
 208 0 l 1
 60 0 l 1
 60 460 l 1
 208 460 l 1
340 304 m 1
 324 320 308 330 282 330 c 0
 238 330 208 293 208 227 c 1
 172 280 l 1
 172 389 246 472 324 472 c 0
 357 472 390 458 406 434 c 1
 340 304 l 1
233 656 m 1
 324 742 l 1
 430 672 l 1
 233 532 l 1
 36 672 l 1
 142 742 l 1
 233 656 l 1
EndSplineSet
EndChar

StartChar: Rcaron
Encoding: 344 344 305
Width: 646
VWidth: 0
Flags: HMW
LayerCount: 2
Fore
SplineSet
248 318 m 1
 424 318 l 1
 643 0 l 1
 445 0 l 1
 248 318 l 1
74 700 m 1
 242 700 l 1
 242 0 l 1
 74 0 l 1
 74 700 l 1
180 556 m 1
 180 700 l 1
 329 700 l 2
 507 700 601 607 601 472 c 0
 601 337 507 243 329 243 c 2
 180 243 l 1
 180 374 l 1
 316 374 l 2
 384 374 426 408 426 466 c 0
 426 524 384 556 316 556 c 2
 180 556 l 1
312 901 m 1
 404 987 l 1
 510 916 l 1
 312 776 l 1
 116 916 l 1
 221 987 l 1
 312 901 l 1
EndSplineSet
EndChar

StartChar: uni0213
Encoding: 531 531 306
Width: 410
VWidth: 0
Flags: HMW
LayerCount: 2
Fore
SplineSet
208 460 m 1
 208 0 l 1
 60 0 l 1
 60 460 l 1
 208 460 l 1
340 304 m 1
 324 320 308 330 282 330 c 0
 238 330 208 293 208 227 c 1
 172 280 l 1
 172 389 246 472 324 472 c 0
 357 472 390 458 406 434 c 1
 340 304 l 1
69 532 m 1
 168 532 l 1
 168 567 194 590 233 590 c 0
 272 590 298 567 298 532 c 1
 398 532 l 1
 398 614 338 678 233 678 c 0
 128 678 69 614 69 532 c 1
EndSplineSet
EndChar

StartChar: uni0212
Encoding: 530 530 307
Width: 646
VWidth: 0
Flags: HMW
LayerCount: 2
Fore
SplineSet
248 318 m 1
 424 318 l 1
 643 0 l 1
 445 0 l 1
 248 318 l 1
74 700 m 1
 242 700 l 1
 242 0 l 1
 74 0 l 1
 74 700 l 1
180 556 m 1
 180 700 l 1
 329 700 l 2
 507 700 601 607 601 472 c 0
 601 337 507 243 329 243 c 2
 180 243 l 1
 180 374 l 1
 316 374 l 2
 384 374 426 408 426 466 c 0
 426 524 384 556 316 556 c 2
 180 556 l 1
162 776 m 1
 261 776 l 1
 261 811 287 836 326 836 c 0
 365 836 392 811 392 776 c 1
 490 776 l 1
 490 858 431 922 326 922 c 0
 221 922 162 858 162 776 c 1
EndSplineSet
EndChar

StartChar: OE
Encoding: 338 338 308
Width: 985
VWidth: 0
Flags: HMW
LayerCount: 2
Fore
SplineSet
562 300 m 1
 562 436 l 1
 929 436 l 1
 929 300 l 1
 562 300 l 1
484 670 m 1
 646 670 l 1
 646 30 l 1
 484 30 l 1
 484 670 l 1
950 139 m 1
 950 0 l 1
 390 0 l 2
 187 0 34 141 34 350 c 0
 34 559 186 700 390 700 c 2
 949 700 l 1
 949 561 l 1
 568 561 l 1
 551 552 l 1
 421 552 l 2
 281 552 208 482 208 350 c 0
 208 218 283 148 421 148 c 2
 548 148 l 1
 572 139 l 1
 950 139 l 1
EndSplineSet
EndChar

StartChar: oe
Encoding: 339 339 309
Width: 900
VWidth: 0
Flags: HMW
LayerCount: 2
Fore
SplineSet
706 250 m 2
 706 324 676 369 617 369 c 0
 561 369 516 334 516 260 c 1
 514 230 l 1
 514 142 554 96 620 96 c 0
 674 96 706 122 732 160 c 1
 866 126 l 1
 826 50 741 -10 642 -10 c 0
 517 -10 430 91 430 230 c 0
 430 247 431 263 434 279 c 0
 453 392 539 470 658 470 c 0
 768 470 865 379 865 234 c 0
 865 226 863 206 862 198 c 1
 706 230 l 1
 706 250 l 2
481 198 m 1
 481 281 l 1
 844 281 l 1
 862 198 l 1
 481 198 l 1
35 230 m 0
 35 379 138 470 263 470 c 0
 388 470 466 379 466 230 c 0
 466 81 388 -10 263 -10 c 0
 138 -10 35 81 35 230 c 0
184 230 m 0
 184 155 232 115 292 115 c 0
 350 115 392 155 392 230 c 0
 392 305 350 345 292 345 c 0
 232 345 184 305 184 230 c 0
EndSplineSet
EndChar

StartChar: a.alt
Encoding: 65536 -1 310
Width: 616
VWidth: 0
Flags: HMW
LayerCount: 2
Fore
SplineSet
410 460 m 1
 559 460 l 1
 559 0 l 1
 410 0 l 1
 410 460 l 1
32 230 m 0
 32 385 138 470 250 470 c 0
 365 470 450 379 450 230 c 0
 450 81 365 -10 250 -10 c 0
 138 -10 32 75 32 230 c 0
190 230 m 0
 190 158 240 111 300 111 c 0
 352 111 408 155 408 230 c 0
 408 305 352 349 300 349 c 0
 240 349 190 302 190 230 c 0
EndSplineSet
EndChar

StartChar: Jcircumflex
Encoding: 308 308 312
Width: 329
VWidth: 0
Flags: HMW
LayerCount: 2
Fore
SplineSet
-72 -64 m 1
 -52 -82 -21 -97 9 -97 c 0
 39 -97 74 -76 74 -16 c 2
 74 700 l 1
 256 700 l 1
 256 -54 l 2
 256 -188 151 -238 26 -238 c 0
 -52 -238 -124 -208 -164 -182 c 1
 -72 -64 l 1
164 862 m 1
 73 776 l 1
 -32 847 l 1
 164 987 l 1
 362 847 l 1
 256 776 l 1
 164 862 l 1
EndSplineSet
EndChar

StartChar: jcircumflex
Encoding: 309 309 313
Width: 271
VWidth: 0
Flags: HMW
LayerCount: 2
Fore
SplineSet
-33 -77 m 1
 -19 -95 -4 -103 14 -103 c 0
 44 -103 62 -82 62 -34 c 2
 62 460 l 1
 206 460 l 1
 206 -72 l 2
 206 -175 148 -238 33 -238 c 0
 -35 -238 -73 -208 -94 -188 c 1
 -33 -77 l 1
134 616 m 1
 42 530 l 1
 -64 602 l 1
 134 742 l 1
 331 602 l 1
 226 530 l 1
 134 616 l 1
EndSplineSet
EndChar

StartChar: Nacute
Encoding: 323 323 314
Width: 792
VWidth: 0
Flags: HMW
LayerCount: 2
Fore
SplineSet
557 700 m 1
 720 700 l 1
 720 -35 l 1
 236 394 l 1
 236 0 l 1
 74 0 l 1
 74 735 l 1
 557 306 l 1
 557 700 l 1
548 911 m 1
 368 761 l 1
 282 804 l 1
 432 964 l 1
 548 911 l 1
EndSplineSet
EndChar

StartChar: nacute
Encoding: 324 324 315
Width: 574
VWidth: 0
Flags: HMW
LayerCount: 2
Fore
SplineSet
211 460 m 1
 211 0 l 1
 60 0 l 1
 60 460 l 1
 211 460 l 1
358 280 m 2
 358 334 340 365 290 365 c 0
 242 365 211 334 211 280 c 1
 185 274 l 1
 185 383 237 470 351 470 c 0
 465 470 515 409 515 296 c 2
 515 0 l 1
 358 0 l 1
 358 280 l 2
452 680 m 1
 272 530 l 1
 186 573 l 1
 336 733 l 1
 452 680 l 1
EndSplineSet
EndChar

StartChar: uni0145
Encoding: 325 325 316
Width: 792
VWidth: 0
Flags: HMW
LayerCount: 2
Fore
SplineSet
364 -54 m 1
 514 -86 l 1
 390 -336 l 1
 276 -312 l 1
 364 -54 l 1
557 700 m 1
 720 700 l 1
 720 -35 l 1
 236 394 l 1
 236 0 l 1
 74 0 l 1
 74 735 l 1
 557 306 l 1
 557 700 l 1
EndSplineSet
EndChar

StartChar: uni0146
Encoding: 326 326 317
Width: 574
VWidth: 0
Flags: HMW
LayerCount: 2
Fore
SplineSet
211 460 m 1
 211 0 l 1
 60 0 l 1
 60 460 l 1
 211 460 l 1
358 280 m 2
 358 334 340 365 290 365 c 0
 242 365 211 334 211 280 c 1
 181 274 l 1
 181 383 237 470 351 470 c 0
 465 470 515 409 515 296 c 2
 515 0 l 1
 358 0 l 1
 358 280 l 2
256 -60 m 1
 406 -92 l 1
 282 -342 l 1
 168 -319 l 1
 256 -60 l 1
EndSplineSet
EndChar

StartChar: Ncaron
Encoding: 327 327 318
Width: 792
VWidth: 0
Flags: HMW
LayerCount: 2
Fore
SplineSet
376 902 m 1
 467 988 l 1
 572 916 l 1
 376 776 l 1
 178 916 l 1
 284 988 l 1
 376 902 l 1
557 700 m 1
 720 700 l 1
 720 -35 l 1
 236 394 l 1
 236 0 l 1
 74 0 l 1
 74 735 l 1
 557 306 l 1
 557 700 l 1
EndSplineSet
EndChar

StartChar: ncaron
Encoding: 328 328 319
Width: 574
VWidth: 0
Flags: HMW
LayerCount: 2
Fore
SplineSet
211 460 m 1
 211 0 l 1
 60 0 l 1
 60 460 l 1
 211 460 l 1
358 280 m 2
 358 334 340 365 290 365 c 0
 242 365 211 334 211 280 c 1
 181 274 l 1
 181 383 237 470 351 470 c 0
 465 470 515 409 515 296 c 2
 515 0 l 1
 358 0 l 1
 358 280 l 2
286 656 m 1
 378 742 l 1
 484 670 l 1
 286 530 l 1
 90 670 l 1
 195 742 l 1
 286 656 l 1
EndSplineSet
EndChar

StartChar: Omacron
Encoding: 332 332 320
Width: 820
VWidth: 0
Flags: HMW
LayerCount: 2
Fore
SplineSet
213 350 m 0
 213 226 291 139 410 139 c 0
 529 139 608 226 608 350 c 0
 608 474 532 561 410 561 c 0
 291 561 213 474 213 350 c 0
34 350 m 0
 34 566 197 716 410 716 c 0
 626 716 787 566 787 350 c 0
 787 134 630 -22 410 -22 c 0
 190 -22 34 134 34 350 c 0
224 776 m 1
 224 907 l 1
 596 907 l 1
 596 776 l 1
 224 776 l 1
EndSplineSet
EndChar

StartChar: omacron
Encoding: 333 333 321
Width: 589
VWidth: 0
Flags: HMW
LayerCount: 2
Fore
SplineSet
32 230 m 0
 32 375 144 470 294 470 c 0
 444 470 557 375 557 230 c 0
 557 85 444 -10 294 -10 c 0
 144 -10 32 85 32 230 c 0
188 230 m 0
 188 158 235 115 294 115 c 0
 353 115 402 158 402 230 c 0
 402 302 353 346 294 346 c 0
 235 346 188 302 188 230 c 0
110 530 m 1
 110 661 l 1
 480 661 l 1
 480 530 l 1
 110 530 l 1
EndSplineSet
EndChar

StartChar: Obreve
Encoding: 334 334 322
Width: 820
VWidth: 0
Flags: HMW
LayerCount: 2
Fore
SplineSet
213 350 m 0
 213 226 291 139 410 139 c 0
 529 139 608 226 608 350 c 0
 608 474 532 561 410 561 c 0
 291 561 213 474 213 350 c 0
34 350 m 0
 34 566 197 716 410 716 c 0
 626 716 787 566 787 350 c 0
 787 134 630 -22 410 -22 c 0
 190 -22 34 134 34 350 c 0
246 922 m 1
 345 922 l 1
 345 887 371 862 410 862 c 0
 449 862 476 887 476 922 c 1
 574 922 l 1
 574 840 515 776 410 776 c 0
 305 776 246 840 246 922 c 1
EndSplineSet
EndChar

StartChar: obreve
Encoding: 335 335 323
Width: 589
VWidth: 0
Flags: HMW
LayerCount: 2
Fore
SplineSet
32 230 m 0
 32 375 144 470 294 470 c 0
 444 470 557 375 557 230 c 0
 557 85 444 -10 294 -10 c 0
 144 -10 32 85 32 230 c 0
188 230 m 0
 188 158 235 115 294 115 c 0
 353 115 402 158 402 230 c 0
 402 302 353 346 294 346 c 0
 235 346 188 302 188 230 c 0
130 677 m 1
 229 677 l 1
 229 642 255 618 294 618 c 0
 333 618 360 642 360 677 c 1
 458 677 l 1
 458 595 399 530 294 530 c 0
 189 530 130 595 130 677 c 1
EndSplineSet
EndChar

StartChar: Racute
Encoding: 340 340 324
Width: 646
VWidth: 0
Flags: HMW
LayerCount: 2
Fore
SplineSet
248 318 m 1
 424 318 l 1
 643 0 l 1
 445 0 l 1
 248 318 l 1
74 700 m 1
 242 700 l 1
 242 0 l 1
 74 0 l 1
 74 700 l 1
180 556 m 1
 180 700 l 1
 329 700 l 2
 507 700 601 607 601 472 c 0
 601 337 507 243 329 243 c 2
 180 243 l 1
 180 374 l 1
 316 374 l 2
 384 374 426 408 426 466 c 0
 426 524 384 556 316 556 c 2
 180 556 l 1
469 926 m 1
 289 776 l 1
 204 818 l 1
 354 978 l 1
 469 926 l 1
EndSplineSet
EndChar

StartChar: uni0156
Encoding: 342 342 325
Width: 646
VWidth: 0
Flags: HMW
LayerCount: 2
Fore
SplineSet
248 318 m 1
 424 318 l 1
 643 0 l 1
 445 0 l 1
 248 318 l 1
74 700 m 1
 242 700 l 1
 242 0 l 1
 74 0 l 1
 74 700 l 1
180 556 m 1
 180 700 l 1
 329 700 l 2
 507 700 601 607 601 472 c 0
 601 337 507 243 329 243 c 2
 180 243 l 1
 180 374 l 1
 316 374 l 2
 384 374 426 408 426 466 c 0
 426 524 384 556 316 556 c 2
 180 556 l 1
328 -60 m 1
 478 -92 l 1
 353 -342 l 1
 240 -319 l 1
 328 -60 l 1
EndSplineSet
EndChar

StartChar: uni0157
Encoding: 343 343 326
Width: 410
VWidth: 0
Flags: HMW
LayerCount: 2
Fore
SplineSet
208 460 m 1
 208 0 l 1
 60 0 l 1
 60 460 l 1
 208 460 l 1
340 304 m 1
 324 320 308 330 282 330 c 0
 238 330 208 293 208 227 c 1
 172 280 l 1
 172 389 246 472 324 472 c 0
 357 472 390 458 406 434 c 1
 340 304 l 1
102 -60 m 1
 253 -92 l 1
 128 -342 l 1
 14 -319 l 1
 102 -60 l 1
EndSplineSet
EndChar

StartChar: Scedilla
Encoding: 350 350 327
Width: 624
VWidth: 0
Flags: HMW
LayerCount: 2
Fore
SplineSet
153 250 m 1
 201 166 248 124 322 124 c 0
 378 124 408 147 408 193 c 0
 408 252 344 270 264 302 c 0
 196 328 74 378 74 518 c 0
 74 636 173 716 321 716 c 0
 471 716 545 637 577 562 c 1
 450 490 l 1
 420 542 378 573 324 573 c 0
 276 573 247 550 247 514 c 0
 247 466 324 443 408 413 c 0
 506 379 586 317 586 196 c 0
 586 54 478 -22 318 -22 c 0
 190 -22 78 53 34 168 c 1
 153 250 l 1
292 60 m 1
 401 58 l 1
 316 -64 l 1
 327 -62 339 -62 352 -62 c 0
 392 -62 442 -92 442 -158 c 0
 442 -230 376 -267 312 -267 c 0
 256 -267 214 -258 168 -228 c 1
 214 -160 l 1
 239 -178 272 -186 292 -186 c 0
 326 -186 346 -174 346 -150 c 0
 346 -124 317 -118 286 -118 c 0
 276 -118 239 -120 204 -134 c 1
 292 60 l 1
EndSplineSet
EndChar

StartChar: scedilla
Encoding: 351 351 328
Width: 455
VWidth: 0
Flags: HMW
LayerCount: 2
Fore
SplineSet
82 176 m 1
 157 110 209 94 236 94 c 0
 262 94 281 106 281 129 c 0
 281 165 235 178 183 196 c 0
 117 220 52 248 52 338 c 0
 52 424 126 470 224 470 c 0
 303 470 370 440 422 402 c 1
 368 304 l 1
 332 340 278 366 241 366 c 0
 209 366 192 355 192 336 c 0
 192 300 247 292 305 270 c 0
 370 244 432 213 432 130 c 0
 432 25 366 -19 258 -19 c 0
 160 -19 84 20 19 76 c 1
 82 176 l 1
224 64 m 1
 335 60 l 1
 249 -61 l 1
 260 -59 271 -58 284 -58 c 0
 324 -58 377 -89 377 -155 c 0
 377 -227 309 -264 245 -264 c 0
 189 -264 148 -255 102 -225 c 1
 147 -156 l 1
 172 -174 205 -182 225 -182 c 0
 259 -182 279 -170 279 -146 c 0
 279 -120 250 -114 219 -114 c 0
 209 -114 173 -116 138 -130 c 1
 224 64 l 1
EndSplineSet
EndChar

StartChar: Zcaron
Encoding: 381 381 329
Width: 618
VWidth: 0
Flags: HMW
LayerCount: 2
Fore
SplineSet
56 548 m 1
 56 700 l 1
 606 700 l 1
 274 145 l 1
 570 145 l 1
 570 0 l 1
 9 0 l 1
 336 548 l 1
 56 548 l 1
331 901 m 1
 422 987 l 1
 528 916 l 1
 331 776 l 1
 134 916 l 1
 239 987 l 1
 331 901 l 1
EndSplineSet
EndChar

StartChar: zcaron
Encoding: 382 382 330
Width: 515
VWidth: 0
Flags: HMW
LayerCount: 2
Fore
SplineSet
282 656 m 1
 374 741 l 1
 480 670 l 1
 282 530 l 1
 85 670 l 1
 191 741 l 1
 282 656 l 1
258 323 m 1
 58 323 l 1
 58 460 l 1
 507 460 l 1
 276 137 l 1
 475 137 l 1
 475 0 l 1
 15 0 l 1
 258 323 l 1
EndSplineSet
EndChar

StartChar: Ydieresis
Encoding: 376 376 331
Width: 659
VWidth: 0
Flags: HMW
LayerCount: 2
Fore
SplineSet
102 868 m 0
 102 916 141 950 189 950 c 0
 237 950 278 916 278 868 c 0
 278 820 237 787 189 787 c 0
 141 787 102 820 102 868 c 0
382 868 m 0
 382 916 422 950 470 950 c 0
 518 950 558 916 558 868 c 0
 558 820 518 787 470 787 c 0
 422 787 382 820 382 868 c 0
466 700 m 1
 660 700 l 1
 416 285 l 1
 416 0 l 1
 244 0 l 1
 244 284 l 1
 -1 700 l 1
 193 700 l 1
 330 436 l 1
 466 700 l 1
EndSplineSet
EndChar

StartChar: Scaron
Encoding: 352 352 332
Width: 624
VWidth: 0
Flags: HMW
LayerCount: 2
Fore
SplineSet
153 250 m 1
 201 166 248 124 322 124 c 0
 378 124 408 147 408 193 c 0
 408 252 344 270 264 302 c 0
 196 328 74 384 74 520 c 0
 74 638 176 716 321 716 c 0
 471 716 549 633 577 562 c 1
 450 490 l 1
 420 542 382 573 328 573 c 0
 280 573 247 550 247 514 c 0
 247 466 324 443 408 413 c 0
 506 379 586 317 586 196 c 0
 586 54 482 -22 318 -22 c 0
 190 -22 78 53 34 168 c 1
 153 250 l 1
321 901 m 1
 412 987 l 1
 518 916 l 1
 321 776 l 1
 124 916 l 1
 230 987 l 1
 321 901 l 1
EndSplineSet
EndChar

StartChar: scaron
Encoding: 353 353 333
Width: 455
VWidth: 0
Flags: HMW
LayerCount: 2
Fore
SplineSet
82 175 m 1
 150 115 202 98 234 98 c 0
 261 98 281 105 281 128 c 0
 281 162 212 171 158 196 c 0
 98 224 42 256 42 336 c 0
 42 424 126 470 224 470 c 0
 303 470 373 440 422 402 c 1
 368 304 l 1
 332 340 272 360 235 360 c 0
 203 360 187 352 187 332 c 0
 187 304 247 290 305 268 c 0
 370 242 432 210 432 130 c 0
 432 25 367 -19 255 -19 c 0
 157 -19 76 20 19 76 c 1
 82 175 l 1
224 644 m 1
 316 729 l 1
 422 658 l 1
 224 518 l 1
 28 658 l 1
 133 729 l 1
 224 644 l 1
EndSplineSet
EndChar

StartChar: Lslash
Encoding: 321 321 334
Width: 533
VWidth: 0
Flags: HMW
LayerCount: 2
Fore
SplineSet
5 309 m 1
 -34 382 l 1
 330 627 l 1
 368 553 l 1
 5 309 l 1
74 700 m 1
 242 700 l 1
 242 145 l 1
 524 145 l 1
 524 0 l 1
 74 0 l 1
 74 700 l 1
EndSplineSet
EndChar

StartChar: lslash
Encoding: 322 322 335
Width: 270
VWidth: 0
Flags: HMW
LayerCount: 2
Fore
SplineSet
-8 309 m 1
 -46 382 l 1
 285 601 l 1
 324 527 l 1
 -8 309 l 1
60 780 m 1
 211 780 l 1
 211 0 l 1
 60 0 l 1
 60 780 l 1
EndSplineSet
EndChar

StartChar: uni0218
Encoding: 536 536 336
Width: 624
VWidth: 0
Flags: HMW
LayerCount: 2
Fore
SplineSet
153 250 m 1
 201 166 248 124 322 124 c 0
 378 124 408 147 408 193 c 0
 408 252 344 270 264 302 c 0
 196 328 74 384 74 520 c 0
 74 638 176 716 321 716 c 0
 471 716 549 633 577 562 c 1
 450 490 l 1
 420 542 382 573 328 573 c 0
 280 573 247 550 247 514 c 0
 247 466 324 443 408 413 c 0
 506 379 586 317 586 196 c 0
 586 54 482 -22 318 -22 c 0
 190 -22 78 53 34 168 c 1
 153 250 l 1
262 -70 m 1
 414 -102 l 1
 288 -352 l 1
 174 -329 l 1
 262 -70 l 1
EndSplineSet
EndChar

StartChar: uni0219
Encoding: 537 537 337
Width: 455
VWidth: 0
Flags: HMW
LayerCount: 2
Fore
SplineSet
82 175 m 1
 150 115 202 98 234 98 c 0
 261 98 281 105 281 128 c 0
 281 162 212 171 158 196 c 0
 98 224 42 256 42 336 c 0
 42 424 126 470 224 470 c 0
 303 470 373 440 422 402 c 1
 368 304 l 1
 332 340 272 360 235 360 c 0
 203 360 187 352 187 332 c 0
 187 304 247 290 305 268 c 0
 370 242 432 210 432 130 c 0
 432 25 367 -19 255 -19 c 0
 157 -19 76 20 19 76 c 1
 82 175 l 1
198 -67 m 1
 349 -100 l 1
 224 -350 l 1
 110 -326 l 1
 198 -67 l 1
EndSplineSet
EndChar

StartChar: pi
Encoding: 960 960 338
Width: 601
VWidth: 0
Flags: HMW
LayerCount: 2
Fore
SplineSet
90 430 m 1
 232 430 l 1
 232 0 l 1
 90 0 l 1
 90 430 l 1
30 460 m 1
 562 460 l 1
 562 335 l 1
 30 335 l 1
 30 460 l 1
340 430 m 1
 482 430 l 1
 482 178 l 2
 482 112 505 108 535 108 c 1
 535 -9 l 1
 408 -9 340 -1 340 121 c 2
 340 430 l 1
EndSplineSet
EndChar

StartChar: trademark
Encoding: 8482 8482 339
Width: 745
VWidth: 0
Flags: HMW
LayerCount: 2
Fore
SplineSet
30 624 m 1
 30 700 l 1
 306 700 l 1
 306 624 l 1
 210 624 l 1
 210 350 l 1
 126 350 l 1
 126 624 l 1
 30 624 l 1
602 594 m 1
 663 718 l 1
 720 350 l 1
 631 350 l 1
 602 594 l 1
364 718 m 1
 426 594 l 1
 397 350 l 1
 308 350 l 1
 364 718 l 1
663 718 m 1
 663 603 l 1
 514 382 l 1
 364 603 l 1
 364 718 l 1
 514 504 l 1
 663 718 l 1
EndSplineSet
EndChar

StartChar: uni2219
Encoding: 8729 8729 340
Width: 321
VWidth: 0
Flags: HMW
LayerCount: 2
Fore
SplineSet
68 442 m 0
 68 492 108 535 162 535 c 0
 216 535 255 492 255 442 c 0
 255 392 216 351 162 351 c 0
 108 351 68 392 68 442 c 0
EndSplineSet
EndChar

StartChar: agrave.alt
Encoding: 65537 -1 341
Width: 616
VWidth: 0
Flags: HMW
LayerCount: 2
Fore
SplineSet
410 460 m 1
 559 460 l 1
 559 0 l 1
 410 0 l 1
 410 460 l 1
32 230 m 0
 32 385 138 470 250 470 c 0
 365 470 450 379 450 230 c 0
 450 81 365 -10 250 -10 c 0
 138 -10 32 75 32 230 c 0
190 230 m 0
 190 158 240 111 300 111 c 0
 352 111 408 155 408 230 c 0
 408 305 352 349 300 349 c 0
 240 349 190 302 190 230 c 0
132 680 m 1
 247 733 l 1
 397 573 l 1
 312 530 l 1
 132 680 l 1
EndSplineSet
EndChar

StartChar: aacute.alt
Encoding: 65538 -1 342
Width: 616
VWidth: 0
Flags: HMW
LayerCount: 2
Fore
SplineSet
410 460 m 1
 559 460 l 1
 559 0 l 1
 410 0 l 1
 410 460 l 1
32 230 m 0
 32 385 138 470 250 470 c 0
 365 470 450 379 450 230 c 0
 450 81 365 -10 250 -10 c 0
 138 -10 32 75 32 230 c 0
190 230 m 0
 190 158 240 111 300 111 c 0
 352 111 408 155 408 230 c 0
 408 305 352 349 300 349 c 0
 240 349 190 302 190 230 c 0
449 680 m 1
 269 530 l 1
 184 573 l 1
 334 733 l 1
 449 680 l 1
EndSplineSet
EndChar

StartChar: acircumflex.alt
Encoding: 65539 -1 343
Width: 616
VWidth: 0
Flags: HMW
LayerCount: 2
Fore
SplineSet
410 460 m 1
 559 460 l 1
 559 0 l 1
 410 0 l 1
 410 460 l 1
32 230 m 0
 32 385 138 470 250 470 c 0
 365 470 450 379 450 230 c 0
 450 81 365 -10 250 -10 c 0
 138 -10 32 75 32 230 c 0
190 230 m 0
 190 158 240 111 300 111 c 0
 352 111 408 155 408 230 c 0
 408 305 352 349 300 349 c 0
 240 349 190 302 190 230 c 0
314 616 m 1
 223 530 l 1
 117 602 l 1
 314 742 l 1
 512 602 l 1
 406 530 l 1
 314 616 l 1
EndSplineSet
EndChar

StartChar: atilde.alt
Encoding: 65540 -1 344
Width: 616
VWidth: 0
Flags: HMW
LayerCount: 2
Fore
SplineSet
410 460 m 1
 559 460 l 1
 559 0 l 1
 410 0 l 1
 410 460 l 1
32 230 m 0
 32 385 138 470 250 470 c 0
 365 470 450 379 450 230 c 0
 450 81 365 -10 250 -10 c 0
 138 -10 32 75 32 230 c 0
190 230 m 0
 190 158 240 111 300 111 c 0
 352 111 408 155 408 230 c 0
 408 305 352 349 300 349 c 0
 240 349 190 302 190 230 c 0
124 596 m 1
 134 645 180 690 244 690 c 0
 310 690 324 639 380 639 c 0
 405 639 425 660 445 692 c 1
 516 618 l 1
 500 581 444 532 382 532 c 0
 327 532 292 586 242 586 c 0
 204 586 196 549 196 534 c 1
 124 596 l 1
EndSplineSet
EndChar

StartChar: adieresis.alt
Encoding: 65541 -1 345
Width: 616
VWidth: 0
Flags: HMW
LayerCount: 2
Fore
SplineSet
410 460 m 1
 559 460 l 1
 559 0 l 1
 410 0 l 1
 410 460 l 1
32 230 m 0
 32 385 138 470 250 470 c 0
 365 470 450 379 450 230 c 0
 450 81 365 -10 250 -10 c 0
 138 -10 32 75 32 230 c 0
190 230 m 0
 190 158 240 111 300 111 c 0
 352 111 408 155 408 230 c 0
 408 305 352 349 300 349 c 0
 240 349 190 302 190 230 c 0
342 612 m 0
 342 660 381 694 429 694 c 0
 477 694 517 660 517 612 c 0
 517 564 477 530 429 530 c 0
 381 530 342 564 342 612 c 0
98 612 m 0
 98 660 138 694 186 694 c 0
 234 694 274 660 274 612 c 0
 274 564 234 530 186 530 c 0
 138 530 98 564 98 612 c 0
EndSplineSet
EndChar

StartChar: aring.alt
Encoding: 65542 -1 346
Width: 616
VWidth: 0
Flags: HMW
LayerCount: 2
Fore
SplineSet
410 460 m 1
 559 460 l 1
 559 0 l 1
 410 0 l 1
 410 460 l 1
32 230 m 0
 32 385 138 470 250 470 c 0
 365 470 450 379 450 230 c 0
 450 81 365 -10 250 -10 c 0
 138 -10 32 75 32 230 c 0
190 230 m 0
 190 158 240 111 300 111 c 0
 352 111 408 155 408 230 c 0
 408 305 352 349 300 349 c 0
 240 349 190 302 190 230 c 0
182 646 m 0
 182 714 238 762 308 762 c 0
 378 762 432 714 432 646 c 0
 432 578 378 530 308 530 c 0
 238 530 182 578 182 646 c 0
261 646 m 0
 261 616 283 598 308 598 c 0
 333 598 354 616 354 646 c 0
 354 676 333 694 308 694 c 0
 283 694 261 676 261 646 c 0
EndSplineSet
EndChar

StartChar: amacron.alt
Encoding: 65543 -1 347
Width: 616
VWidth: 0
Flags: HMW
LayerCount: 2
Fore
SplineSet
410 460 m 1
 559 460 l 1
 559 0 l 1
 410 0 l 1
 410 460 l 1
32 230 m 0
 32 385 138 470 250 470 c 0
 365 470 450 379 450 230 c 0
 450 81 365 -10 250 -10 c 0
 138 -10 32 75 32 230 c 0
190 230 m 0
 190 158 240 111 300 111 c 0
 352 111 408 155 408 230 c 0
 408 305 352 349 300 349 c 0
 240 349 190 302 190 230 c 0
124 530 m 1
 124 661 l 1
 496 661 l 1
 496 530 l 1
 124 530 l 1
EndSplineSet
EndChar

StartChar: abreve.alt
Encoding: 65544 -1 348
Width: 616
VWidth: 0
Flags: HMW
LayerCount: 2
Fore
SplineSet
410 460 m 1
 559 460 l 1
 559 0 l 1
 410 0 l 1
 410 460 l 1
32 230 m 0
 32 385 138 470 250 470 c 0
 365 470 450 379 450 230 c 0
 450 81 365 -10 250 -10 c 0
 138 -10 32 75 32 230 c 0
190 230 m 0
 190 158 240 111 300 111 c 0
 352 111 408 155 408 230 c 0
 408 305 352 349 300 349 c 0
 240 349 190 302 190 230 c 0
136 677 m 1
 235 677 l 1
 235 642 261 618 300 618 c 0
 339 618 366 642 366 677 c 1
 464 677 l 1
 464 595 405 530 300 530 c 0
 195 530 136 595 136 677 c 1
EndSplineSet
EndChar

StartChar: aogonek.alt
Encoding: 65545 -1 349
Width: 616
VWidth: 0
Flags: HMW
LayerCount: 2
Fore
SplineSet
410 460 m 1
 559 460 l 1
 559 0 l 1
 410 0 l 1
 410 460 l 1
32 230 m 0
 32 385 138 470 250 470 c 0
 365 470 450 379 450 230 c 0
 450 81 365 -10 250 -10 c 0
 138 -10 32 75 32 230 c 0
190 230 m 0
 190 158 240 111 300 111 c 0
 352 111 408 155 408 230 c 0
 408 305 352 349 300 349 c 0
 240 349 190 302 190 230 c 0
532 -112 m 1
 566 -180 l 1
 551 -200 522 -220 466 -220 c 0
 400 -220 348 -185 348 -120 c 0
 348 -55 416 -11 486 25 c 1
 528 0 l 1
 476 -28 447 -63 447 -94 c 0
 447 -118 458 -132 482 -132 c 0
 502 -132 518 -125 532 -112 c 1
EndSplineSet
EndChar

StartChar: dagger
Encoding: 8224 8224 350
Width: 631
VWidth: 0
Flags: HMW
LayerCount: 2
Fore
SplineSet
90 540 m 1
 542 540 l 1
 542 415 l 1
 90 415 l 1
 90 540 l 1
245 700 m 1
 387 700 l 1
 387 -150 l 1
 245 -150 l 1
 245 700 l 1
EndSplineSet
EndChar

StartChar: daggerdbl
Encoding: 8225 8225 351
Width: 631
VWidth: 0
Flags: HMW
LayerCount: 2
Fore
SplineSet
90 157 m 1
 542 157 l 1
 542 32 l 1
 90 32 l 1
 90 157 l 1
90 540 m 1
 542 540 l 1
 542 415 l 1
 90 415 l 1
 90 540 l 1
245 700 m 1
 387 700 l 1
 387 -150 l 1
 245 -150 l 1
 245 700 l 1
EndSplineSet
EndChar

StartChar: ellipsis
Encoding: 8230 8230 352
Width: 924
VWidth: 0
Flags: HMW
LayerCount: 2
Fore
SplineSet
68 68 m 0
 68 118 108 160 162 160 c 0
 216 160 255 118 255 68 c 0
 255 18 216 -24 162 -24 c 0
 108 -24 68 18 68 68 c 0
368 68 m 0
 368 118 408 160 462 160 c 0
 516 160 555 118 555 68 c 0
 555 18 516 -24 462 -24 c 0
 408 -24 368 18 368 68 c 0
668 68 m 0
 668 118 708 160 762 160 c 0
 816 160 855 118 855 68 c 0
 855 18 816 -24 762 -24 c 0
 708 -24 668 18 668 68 c 0
EndSplineSet
EndChar

StartChar: uniFF10
Encoding: 65296 65296 353
Width: 629
VWidth: 0
Flags: HMW
LayerCount: 2
Fore
SplineSet
186 350 m 0
 186 218 237 132 314 132 c 0
 391 132 442 218 442 350 c 0
 442 482 391 568 314 568 c 0
 237 568 186 482 186 350 c 0
23 350 m 0
 23 578 142 713 314 713 c 0
 492 713 606 578 606 350 c 0
 606 122 492 -13 314 -13 c 0
 142 -13 23 122 23 350 c 0
EndSplineSet
EndChar

StartChar: uniFF11
Encoding: 65297 65297 354
Width: 629
VWidth: 0
Flags: HMW
LayerCount: 2
Fore
SplineSet
109 498 m 1
 109 646 l 1
 445 713 l 1
 445 0 l 1
 282 0 l 1
 282 541 l 1
 109 498 l 1
EndSplineSet
EndChar

StartChar: uniFF12
Encoding: 65298 65298 355
Width: 629
VWidth: 0
Flags: HMW
LayerCount: 2
Fore
SplineSet
13 0 m 1
 325 323 l 2
 381 383 416 424 416 480 c 0
 416 525 386 569 322 569 c 0
 256 569 212 517 212 442 c 1
 47 442 l 1
 47 591 144 714 326 714 c 0
 499 714 589 598 589 488 c 0
 589 413 548 353 488 301 c 2
 325 154 l 1
 606 154 l 1
 606 0 l 1
 13 0 l 1
EndSplineSet
EndChar

StartChar: uniFF13
Encoding: 65299 65299 356
Width: 629
VWidth: 0
Flags: HMW
LayerCount: 2
Fore
SplineSet
273 339 m 1
 273 414 l 1
 351 414 402 458 402 508 c 0
 402 550 377 578 324 578 c 0
 272 578 231 543 231 495 c 1
 76 495 l 1
 76 619 174 713 323 713 c 0
 480 713 570 628 570 520 c 0
 570 400 439 339 273 339 c 1
316 -16 m 0
 147 -16 46 98 46 222 c 1
 213 222 l 1
 213 153 264 120 322 120 c 0
 380 120 422 148 422 208 c 0
 422 266 375 306 273 306 c 1
 273 392 l 1
 458 392 590 333 590 191 c 0
 590 69 487 -16 316 -16 c 0
EndSplineSet
EndChar

StartChar: uniFF14
Encoding: 65300 65300 357
Width: 629
VWidth: 0
Flags: HMW
LayerCount: 2
Fore
SplineSet
12 124 m 1
 150 246 l 1
 428 246 l 0
 445 268 l 0
 610 268 l 1
 610 124 l 1
 12 124 l 1
170 174 m 1
 12 124 l 1
 388 700 l 1
 512 700 l 1
 512 0 l 1
 338 0 l 1
 338 160 l 0
 356 172 l 0
 356 455 l 1
 170 174 l 1
EndSplineSet
EndChar

StartChar: uniFF15
Encoding: 65301 65301 358
Width: 629
VWidth: 0
Flags: HMW
LayerCount: 2
Fore
SplineSet
590 224 m 0
 590 59 443 -13 308 -13 c 0
 179 -13 92 29 28 78 c 1
 94 217 l 1
 150 169 219 142 271 142 c 0
 355 142 406 174 406 242 c 0
 406 310 339 340 271 340 c 0
 217 340 145 332 74 296 c 1
 191 380 l 1
 243 436 306 453 378 453 c 0
 489 453 590 369 590 224 c 0
295 554 m 1
 238 380 l 1
 74 296 l 1
 172 700 l 1
 576 700 l 1
 576 554 l 1
 295 554 l 1
EndSplineSet
EndChar

StartChar: uniFF16
Encoding: 65302 65302 359
Width: 629
VWidth: 0
Flags: HMW
LayerCount: 2
Fore
SplineSet
196 246 m 0
 196 174 247 128 314 128 c 0
 381 128 432 174 432 246 c 0
 432 318 381 365 314 365 c 0
 247 365 196 318 196 246 c 0
313 697 m 1
 526 697 l 1
 300 444 l 1
 266 429 l 1
 304 465 332 473 382 473 c 0
 487 473 598 388 598 246 c 0
 598 74 470 -16 314 -16 c 0
 158 -16 30 74 30 246 c 0
 30 322 64 384 110 440 c 2
 313 697 l 1
EndSplineSet
EndChar

StartChar: uniFF17
Encoding: 65303 65303 360
Width: 629
VWidth: 0
Flags: HMW
LayerCount: 2
Fore
SplineSet
39 542 m 1
 39 700 l 1
 610 700 l 1
 271 0 l 1
 90 0 l 1
 362 542 l 1
 39 542 l 1
EndSplineSet
EndChar

StartChar: uniFF18
Encoding: 65304 65304 361
Width: 629
VWidth: 0
Flags: HMW
LayerCount: 2
Fore
SplineSet
91 531 m 0
 91 649 199 716 327 716 c 0
 455 716 564 649 564 531 c 0
 564 403 442 342 327 342 c 0
 212 342 91 403 91 531 c 0
250 515 m 0
 250 467 283 434 327 434 c 0
 371 434 405 467 405 515 c 0
 405 563 373 595 327 595 c 0
 281 595 250 563 250 515 c 0
66 190 m 0
 66 338 212 396 327 396 c 0
 442 396 588 338 588 190 c 0
 588 62 465 -16 327 -16 c 0
 189 -16 66 62 66 190 c 0
234 216 m 0
 234 154 275 121 327 121 c 0
 379 121 421 154 421 216 c 0
 421 268 379 308 327 308 c 0
 275 308 234 268 234 216 c 0
EndSplineSet
EndChar

StartChar: uniFF19
Encoding: 65305 65305 362
Width: 629
VWidth: 0
Flags: HMW
LayerCount: 2
Fore
SplineSet
432 454 m 0
 432 526 381 572 314 572 c 0
 247 572 196 526 196 454 c 0
 196 382 247 335 314 335 c 0
 381 335 432 382 432 454 c 0
316 3 m 1
 102 3 l 1
 328 256 l 1
 363 271 l 1
 325 235 296 227 246 227 c 0
 141 227 30 312 30 454 c 0
 30 626 158 716 314 716 c 0
 470 716 598 626 598 454 c 0
 598 378 563 316 517 260 c 2
 316 3 l 1
EndSplineSet
EndChar

StartChar: caron
Encoding: 711 711 363
Width: 480
VWidth: 0
Flags: HMW
LayerCount: 2
Fore
SplineSet
240 676 m 1
 332 762 l 1
 437 691 l 1
 240 551 l 1
 43 691 l 1
 148 762 l 1
 240 676 l 1
EndSplineSet
EndChar

StartChar: napostrophe
Encoding: 329 329 364
Width: 745
VWidth: 0
Flags: HMW
LayerCount: 2
Fore
SplineSet
382 460 m 1
 382 0 l 1
 231 0 l 1
 231 460 l 1
 382 460 l 1
530 280 m 2
 530 334 512 365 462 365 c 0
 414 365 382 334 382 280 c 1
 354 274 l 1
 354 383 408 470 522 470 c 0
 636 470 688 409 688 296 c 2
 688 0 l 1
 530 0 l 1
 530 280 l 2
112 700 m 1
 268 700 l 1
 165 446 l 1
 58 446 l 1
 112 700 l 1
EndSplineSet
EndChar

StartChar: IJ
Encoding: 306 306 365
Width: 623
VWidth: 0
Flags: HMW
LayerCount: 2
Fore
SplineSet
222 -64 m 1
 242 -82 272 -97 302 -97 c 0
 332 -97 367 -76 367 -16 c 2
 367 700 l 1
 549 700 l 1
 549 -54 l 2
 549 -188 444 -238 319 -238 c 0
 241 -238 170 -208 130 -182 c 1
 222 -64 l 1
74 700 m 1
 246 700 l 1
 246 0 l 1
 74 0 l 1
 74 700 l 1
EndSplineSet
EndChar

StartChar: ij
Encoding: 307 307 366
Width: 544
VWidth: 0
Flags: HMW
LayerCount: 2
Fore
SplineSet
319 632 m 0
 319 680 359 714 407 714 c 0
 455 714 495 680 495 632 c 0
 495 584 455 551 407 551 c 0
 359 551 319 584 319 632 c 0
239 -77 m 1
 253 -95 268 -103 286 -103 c 0
 316 -103 334 -82 334 -34 c 2
 334 460 l 1
 479 460 l 1
 479 -72 l 2
 479 -175 421 -238 306 -238 c 0
 238 -238 199 -208 178 -188 c 1
 239 -77 l 1
50 632 m 0
 50 680 90 714 138 714 c 0
 186 714 226 680 226 632 c 0
 226 584 186 551 138 551 c 0
 90 551 50 584 50 632 c 0
64 460 m 1
 211 460 l 1
 211 0 l 1
 64 0 l 1
 64 460 l 1
EndSplineSet
EndChar

StartChar: uni0237
Encoding: 567 567 367
Width: 271
VWidth: 0
Flags: HMW
LayerCount: 2
Fore
SplineSet
-33 -77 m 1
 -19 -95 -4 -103 14 -103 c 0
 44 -103 62 -82 62 -34 c 2
 62 460 l 1
 206 460 l 1
 206 -72 l 2
 206 -175 148 -238 33 -238 c 0
 -35 -238 -73 -208 -94 -188 c 1
 -33 -77 l 1
EndSplineSet
EndChar

StartChar: Sacute
Encoding: 346 346 368
Width: 624
VWidth: 0
Flags: HMW
LayerCount: 2
Fore
SplineSet
153 250 m 1
 201 166 248 124 322 124 c 0
 378 124 408 147 408 193 c 0
 408 252 344 270 264 302 c 0
 196 328 74 384 74 520 c 0
 74 638 176 716 321 716 c 0
 471 716 549 633 577 562 c 1
 450 490 l 1
 420 542 382 573 328 573 c 0
 280 573 247 550 247 514 c 0
 247 466 324 443 408 413 c 0
 506 379 586 317 586 196 c 0
 586 54 482 -22 318 -22 c 0
 190 -22 78 53 34 168 c 1
 153 250 l 1
501 926 m 1
 321 776 l 1
 236 818 l 1
 386 978 l 1
 501 926 l 1
EndSplineSet
EndChar

StartChar: sacute
Encoding: 347 347 369
Width: 455
VWidth: 0
Flags: HMW
LayerCount: 2
Fore
SplineSet
82 175 m 1
 150 115 202 98 234 98 c 0
 261 98 281 105 281 128 c 0
 281 162 212 171 158 196 c 0
 98 224 42 256 42 336 c 0
 42 424 126 470 224 470 c 0
 303 470 373 440 422 402 c 1
 368 304 l 1
 332 340 272 360 235 360 c 0
 203 360 187 352 187 332 c 0
 187 304 247 290 305 268 c 0
 370 242 432 210 432 130 c 0
 432 25 367 -19 255 -19 c 0
 157 -19 76 20 19 76 c 1
 82 175 l 1
404 680 m 1
 224 530 l 1
 140 573 l 1
 290 733 l 1
 404 680 l 1
EndSplineSet
EndChar

StartChar: Scircumflex
Encoding: 348 348 370
Width: 624
VWidth: 0
Flags: HMW
LayerCount: 2
Fore
SplineSet
153 250 m 1
 201 166 248 124 322 124 c 0
 378 124 408 147 408 193 c 0
 408 252 344 270 264 302 c 0
 196 328 74 384 74 520 c 0
 74 638 176 716 321 716 c 0
 471 716 549 633 577 562 c 1
 450 490 l 1
 420 542 382 573 328 573 c 0
 280 573 247 550 247 514 c 0
 247 466 324 443 408 413 c 0
 506 379 586 317 586 196 c 0
 586 54 482 -22 318 -22 c 0
 190 -22 78 53 34 168 c 1
 153 250 l 1
321 862 m 1
 230 776 l 1
 124 847 l 1
 321 987 l 1
 518 847 l 1
 412 776 l 1
 321 862 l 1
EndSplineSet
EndChar

StartChar: scircumflex
Encoding: 349 349 371
Width: 455
VWidth: 0
Flags: HMW
LayerCount: 2
Fore
SplineSet
82 175 m 1
 150 115 202 98 234 98 c 0
 261 98 281 105 281 128 c 0
 281 162 212 171 158 196 c 0
 98 224 42 256 42 336 c 0
 42 424 126 470 224 470 c 0
 303 470 373 440 422 402 c 1
 368 304 l 1
 332 340 272 360 235 360 c 0
 203 360 187 352 187 332 c 0
 187 304 247 290 305 268 c 0
 370 242 432 210 432 130 c 0
 432 25 367 -19 255 -19 c 0
 157 -19 76 20 19 76 c 1
 82 175 l 1
237 616 m 1
 146 530 l 1
 40 602 l 1
 237 742 l 1
 434 602 l 1
 328 530 l 1
 237 616 l 1
EndSplineSet
EndChar

StartChar: uni1E9E
Encoding: 7838 7838 372
Width: 889
VWidth: 0
Flags: HMW
LayerCount: 2
Fore
SplineSet
558 -16 m 0
 373 -16 302 113 302 222 c 1
 450 222 l 1
 450 162 492 120 558 120 c 0
 626 120 658 150 658 208 c 0
 658 276 600 306 510 306 c 1
 510 380 l 1
 688 380 826 324 826 185 c 0
 826 66 714 -16 558 -16 c 0
510 345 m 1
 510 416 l 1
 588 416 632 448 632 502 c 0
 632 550 585 580 485 580 c 0
 360 580 248 511 248 336 c 2
 248 0 l 1
 80 0 l 1
 80 362 l 2
 80 578 241 710 478 710 c 0
 686 710 806 636 806 522 c 0
 806 413 688 345 510 345 c 1
EndSplineSet
EndChar

StartChar: Zacute
Encoding: 377 377 373
Width: 618
VWidth: 0
Flags: HW
LayerCount: 2
Fore
SplineSet
56 548 m 1
 56 700 l 1
 606 700 l 1
 274 145 l 1
 570 145 l 1
 570 0 l 1
 9 0 l 1
 336 548 l 1
 56 548 l 1
503 926 m 1
 323 776 l 1
 238 818 l 1
 388 978 l 1
 503 926 l 1
EndSplineSet
EndChar

StartChar: zacute
Encoding: 378 378 374
Width: 521
VWidth: 0
Flags: HW
LayerCount: 2
Fore
SplineSet
257 323 m 1
 58 323 l 1
 58 460 l 1
 507 460 l 1
 278 137 l 1
 475 137 l 1
 475 0 l 1
 15 0 l 1
 257 323 l 1
455 688 m 1
 275 538 l 1
 189 580 l 1
 339 740 l 1
 455 688 l 1
EndSplineSet
EndChar

StartChar: Zdotaccent
Encoding: 379 379 375
Width: 618
VWidth: 0
Flags: HW
LayerCount: 2
Fore
SplineSet
56 548 m 1
 56 700 l 1
 606 700 l 1
 274 145 l 1
 570 145 l 1
 570 0 l 1
 9 0 l 1
 336 548 l 1
 56 548 l 1
244 858 m 0
 244 906 283 940 331 940 c 0
 379 940 418 906 418 858 c 0
 418 810 379 776 331 776 c 0
 283 776 244 810 244 858 c 0
EndSplineSet
EndChar

StartChar: zdotaccent
Encoding: 380 380 376
Width: 521
VWidth: 0
Flags: HW
LayerCount: 2
Fore
SplineSet
257 323 m 1
 58 323 l 1
 58 460 l 1
 507 460 l 1
 278 137 l 1
 475 137 l 1
 475 0 l 1
 15 0 l 1
 257 323 l 1
194 624 m 0
 194 672 234 706 282 706 c 0
 330 706 370 672 370 624 c 0
 370 576 330 542 282 542 c 0
 234 542 194 576 194 624 c 0
EndSplineSet
EndChar

StartChar: Tcaron
Encoding: 356 356 377
Width: 561
VWidth: 0
Flags: HW
LayerCount: 2
Fore
SplineSet
4 548 m 1
 4 700 l 1
 557 700 l 1
 557 548 l 1
 365 548 l 1
 365 0 l 1
 196 0 l 1
 196 548 l 1
 4 548 l 1
280 901 m 1
 372 987 l 1
 478 916 l 1
 280 776 l 1
 84 916 l 1
 189 987 l 1
 280 901 l 1
EndSplineSet
EndChar

StartChar: tcaron
Encoding: 357 357 378
Width: 483
VWidth: 0
Flags: HW
LayerCount: 2
Fore
SplineSet
5 460 m 1
 312 460 l 1
 312 335 l 1
 5 335 l 1
 5 460 l 1
86 620 m 1
 232 620 l 1
 232 0 l 1
 86 0 l 1
 86 620 l 1
380 786 m 1
 531 754 l 1
 406 504 l 1
 292 528 l 1
 380 786 l 1
EndSplineSet
EndChar

StartChar: Uring
Encoding: 366 366 379
Width: 699
VWidth: 0
Flags: HW
LayerCount: 2
Fore
SplineSet
69 700 m 1
 238 700 l 1
 238 242 l 2
 238 170 274 123 350 123 c 0
 426 123 463 170 463 242 c 2
 463 700 l 1
 632 700 l 1
 632 230 l 2
 632 54 508 -28 350 -28 c 0
 192 -28 69 54 69 230 c 2
 69 700 l 1
226 892 m 0
 226 960 280 1007 350 1007 c 0
 420 1007 475 960 475 892 c 0
 475 824 420 776 350 776 c 0
 280 776 226 824 226 892 c 0
304 892 m 0
 304 862 325 844 350 844 c 0
 375 844 396 862 396 892 c 0
 396 922 375 940 350 940 c 0
 325 940 304 922 304 892 c 0
EndSplineSet
EndChar

StartChar: uring
Encoding: 367 367 380
Width: 574
VWidth: 0
Flags: HW
LayerCount: 2
Fore
SplineSet
364 0 m 1
 364 460 l 1
 515 460 l 1
 515 0 l 1
 364 0 l 1
217 180 m 2
 217 126 234 95 284 95 c 0
 332 95 364 126 364 180 c 1
 390 186 l 1
 390 77 338 -10 224 -10 c 0
 110 -10 60 51 60 164 c 2
 60 460 l 1
 217 460 l 1
 217 180 l 2
162 646 m 0
 162 714 216 762 286 762 c 0
 356 762 412 714 412 646 c 0
 412 578 356 530 286 530 c 0
 216 530 162 578 162 646 c 0
240 646 m 0
 240 616 261 598 286 598 c 0
 311 598 333 616 333 646 c 0
 333 676 311 694 286 694 c 0
 261 694 240 676 240 646 c 0
EndSplineSet
EndChar

StartChar: Wcircumflex
Encoding: 372 372 381
Width: 1063
VWidth: 0
Flags: HW
LayerCount: 2
Fore
SplineSet
729 284 m 1
 860 700 l 1
 1060 700 l 1
 758 -41 l 1
 532 382 l 1
 306 -41 l 1
 4 700 l 1
 204 700 l 1
 336 284 l 1
 532 735 l 1
 729 284 l 1
532 881 m 1
 441 795 l 1
 335 866 l 1
 532 1006 l 1
 730 866 l 1
 624 795 l 1
 532 881 l 1
EndSplineSet
EndChar

StartChar: wcircumflex
Encoding: 373 373 382
Width: 760
VWidth: 0
Flags: HW
LayerCount: 2
Fore
SplineSet
-8 460 m 1
 151 460 l 1
 247 224 l 1
 378 495 l 1
 514 224 l 1
 610 460 l 1
 768 460 l 1
 531 -29 l 1
 379 244 l 1
 230 -29 l 1
 -8 460 l 1
378 641 m 1
 287 555 l 1
 181 626 l 1
 378 766 l 1
 576 626 l 1
 470 555 l 1
 378 641 l 1
EndSplineSet
EndChar

StartChar: Ycircumflex
Encoding: 374 374 383
Width: 659
VWidth: 0
Flags: HW
LayerCount: 2
Fore
SplineSet
466 700 m 1
 660 700 l 1
 416 285 l 1
 416 0 l 1
 244 0 l 1
 244 284 l 1
 -1 700 l 1
 193 700 l 1
 330 436 l 1
 466 700 l 1
330 862 m 1
 238 776 l 1
 132 847 l 1
 330 987 l 1
 527 847 l 1
 421 776 l 1
 330 862 l 1
EndSplineSet
EndChar

StartChar: ycircumflex
Encoding: 375 375 384
Width: 520
VWidth: 0
Flags: HW
LayerCount: 2
Fore
SplineSet
530 460 m 1
 230 -220 l 1
 78 -220 l 1
 190 38 l 1
 -9 460 l 1
 157 460 l 1
 306 91 l 1
 228 92 l 1
 374 460 l 1
 530 460 l 1
260 616 m 1
 169 530 l 1
 63 602 l 1
 260 742 l 1
 458 602 l 1
 352 530 l 1
 260 616 l 1
EndSplineSet
EndChar

StartChar: uni0123
Encoding: 291 291 385
Width: 570
VWidth: 0
Flags: HW
LayerCount: 2
Fore
SplineSet
42 -33 m 1
 188 -33 l 1
 192 -90 235 -118 294 -118 c 0
 358 -118 408 -75 408 10 c 2
 408 460 l 1
 553 460 l 1
 553 10 l 2
 553 -168 440 -239 300 -239 c 0
 128 -239 54 -155 42 -33 c 1
32 236 m 0
 32 391 138 470 250 470 c 0
 365 470 450 385 450 236 c 0
 450 87 365 2 250 2 c 0
 138 2 32 81 32 236 c 0
190 236 m 0
 190 164 240 124 300 124 c 0
 352 124 408 161 408 236 c 0
 408 311 352 349 300 349 c 0
 240 349 190 308 190 236 c 0
310 542 m 1
 165 597 l 1
 328 825 l 1
 436 784 l 1
 310 542 l 1
EndSplineSet
EndChar

StartChar: Hbar
Encoding: 294 294 386
Width: 785
VWidth: 0
Flags: HW
LayerCount: 2
Fore
SplineSet
121 294 m 1
 121 444 l 1
 650 444 l 1
 650 294 l 1
 121 294 l 1
544 700 m 1
 712 700 l 1
 712 0 l 1
 544 0 l 1
 544 700 l 1
74 700 m 1
 242 700 l 1
 242 0 l 1
 74 0 l 1
 74 700 l 1
5 537 m 1
 5 642 l 1
 782 642 l 1
 782 537 l 1
 5 537 l 1
EndSplineSet
EndChar

StartChar: hbar
Encoding: 295 295 387
Width: 568
VWidth: 0
Flags: HW
LayerCount: 2
Fore
SplineSet
211 780 m 1
 211 0 l 1
 60 0 l 1
 60 780 l 1
 211 780 l 1
358 280 m 2
 358 334 340 365 290 365 c 0
 242 365 211 334 211 280 c 1
 185 280 l 1
 185 389 237 477 351 477 c 0
 465 477 509 415 509 302 c 2
 509 0 l 1
 358 0 l 1
 358 280 l 2
5 598 m 1
 5 728 l 1
 336 728 l 1
 336 598 l 1
 5 598 l 1
EndSplineSet
EndChar

StartChar: Utilde
Encoding: 360 360 388
Width: 699
VWidth: 0
Flags: HW
LayerCount: 2
Fore
SplineSet
69 700 m 1
 238 700 l 1
 238 242 l 2
 238 170 274 123 350 123 c 0
 426 123 463 170 463 242 c 2
 463 700 l 1
 632 700 l 1
 632 230 l 2
 632 54 508 -28 350 -28 c 0
 192 -28 69 54 69 230 c 2
 69 700 l 1
154 842 m 1
 164 891 210 936 274 936 c 0
 340 936 354 884 410 884 c 0
 435 884 455 905 475 937 c 1
 546 863 l 1
 530 826 474 778 412 778 c 0
 357 778 322 831 272 831 c 0
 234 831 226 795 226 780 c 1
 154 842 l 1
EndSplineSet
EndChar

StartChar: utilde
Encoding: 361 361 389
Width: 574
VWidth: 0
Flags: HW
LayerCount: 2
Fore
SplineSet
364 0 m 1
 364 460 l 1
 515 460 l 1
 515 0 l 1
 364 0 l 1
217 180 m 2
 217 126 234 95 284 95 c 0
 332 95 364 126 364 180 c 1
 390 186 l 1
 390 77 338 -10 224 -10 c 0
 110 -10 60 51 60 164 c 2
 60 460 l 1
 217 460 l 1
 217 180 l 2
91 596 m 1
 101 645 147 690 211 690 c 0
 277 690 292 639 348 639 c 0
 373 639 392 660 412 692 c 1
 483 618 l 1
 467 581 412 532 350 532 c 0
 295 532 260 586 210 586 c 0
 172 586 163 549 163 534 c 1
 91 596 l 1
EndSplineSet
EndChar

StartChar: Umacron
Encoding: 362 362 390
Width: 699
VWidth: 0
Flags: HW
LayerCount: 2
Fore
SplineSet
69 700 m 1
 238 700 l 1
 238 242 l 2
 238 170 274 123 350 123 c 0
 426 123 463 170 463 242 c 2
 463 700 l 1
 632 700 l 1
 632 230 l 2
 632 54 508 -28 350 -28 c 0
 192 -28 69 54 69 230 c 2
 69 700 l 1
165 776 m 1
 165 907 l 1
 536 907 l 1
 536 776 l 1
 165 776 l 1
EndSplineSet
EndChar

StartChar: umacron
Encoding: 363 363 391
Width: 574
VWidth: 0
Flags: HW
LayerCount: 2
Fore
SplineSet
364 0 m 1
 364 460 l 1
 515 460 l 1
 515 0 l 1
 364 0 l 1
217 180 m 2
 217 126 234 95 284 95 c 0
 332 95 364 126 364 180 c 1
 390 186 l 1
 390 77 338 -10 224 -10 c 0
 110 -10 60 51 60 164 c 2
 60 460 l 1
 217 460 l 1
 217 180 l 2
102 530 m 1
 102 661 l 1
 474 661 l 1
 474 530 l 1
 102 530 l 1
EndSplineSet
EndChar

StartChar: Ubreve
Encoding: 364 364 392
Width: 699
VWidth: 0
Flags: HW
LayerCount: 2
Fore
SplineSet
69 700 m 1
 238 700 l 1
 238 242 l 2
 238 170 274 123 350 123 c 0
 426 123 463 170 463 242 c 2
 463 700 l 1
 632 700 l 1
 632 230 l 2
 632 54 508 -28 350 -28 c 0
 192 -28 69 54 69 230 c 2
 69 700 l 1
186 922 m 1
 285 922 l 1
 285 887 311 862 350 862 c 0
 389 862 416 887 416 922 c 1
 514 922 l 1
 514 840 455 776 350 776 c 0
 245 776 186 840 186 922 c 1
EndSplineSet
EndChar

StartChar: ubreve
Encoding: 365 365 393
Width: 574
VWidth: 0
Flags: HW
LayerCount: 2
Fore
SplineSet
364 0 m 1
 364 460 l 1
 515 460 l 1
 515 0 l 1
 364 0 l 1
217 180 m 2
 217 126 234 95 284 95 c 0
 332 95 364 126 364 180 c 1
 390 186 l 1
 390 77 338 -10 224 -10 c 0
 110 -10 60 51 60 164 c 2
 60 460 l 1
 217 460 l 1
 217 180 l 2
123 677 m 1
 222 677 l 1
 222 642 249 618 288 618 c 0
 327 618 353 642 353 677 c 1
 452 677 l 1
 452 595 393 530 288 530 c 0
 183 530 123 595 123 677 c 1
EndSplineSet
EndChar

StartChar: uni0400
Encoding: 1024 1024 394
Width: 550
VWidth: 0
Flags: HW
LayerCount: 2
Fore
SplineSet
186 0 m 1
 186 139 l 1
 539 139 l 1
 539 0 l 1
 186 0 l 1
186 561 m 1
 186 700 l 1
 539 700 l 1
 539 561 l 1
 186 561 l 1
186 300 m 1
 186 436 l 1
 519 436 l 1
 519 300 l 1
 186 300 l 1
74 700 m 1
 236 700 l 1
 236 0 l 1
 74 0 l 1
 74 700 l 1
126 926 m 1
 242 978 l 1
 392 818 l 1
 306 776 l 1
 126 926 l 1
EndSplineSet
EndChar

StartChar: uni0401
Encoding: 1025 1025 395
Width: 550
VWidth: 0
Flags: HW
LayerCount: 2
Fore
SplineSet
186 0 m 1
 186 139 l 1
 539 139 l 1
 539 0 l 1
 186 0 l 1
186 561 m 1
 186 700 l 1
 539 700 l 1
 539 561 l 1
 186 561 l 1
186 300 m 1
 186 436 l 1
 519 436 l 1
 519 300 l 1
 186 300 l 1
74 700 m 1
 236 700 l 1
 236 0 l 1
 74 0 l 1
 74 700 l 1
340 858 m 0
 340 906 380 940 428 940 c 0
 476 940 516 906 516 858 c 0
 516 810 476 776 428 776 c 0
 380 776 340 810 340 858 c 0
96 858 m 0
 96 906 136 940 184 940 c 0
 232 940 272 906 272 858 c 0
 272 810 232 776 184 776 c 0
 136 776 96 810 96 858 c 0
EndSplineSet
EndChar

StartChar: uni0403
Encoding: 1027 1027 396
Width: 505
VWidth: 0
Flags: HW
LayerCount: 2
Fore
SplineSet
80 700 m 1
 496 700 l 1
 496 548 l 1
 248 548 l 1
 248 0 l 1
 80 0 l 1
 80 700 l 1
468 926 m 1
 288 776 l 1
 202 818 l 1
 352 978 l 1
 468 926 l 1
EndSplineSet
EndChar

StartChar: uni040C
Encoding: 1036 1036 397
Width: 565
VWidth: 0
Flags: HW
LayerCount: 2
Fore
SplineSet
74 700 m 1
 248 700 l 1
 248 0 l 1
 74 0 l 1
 74 700 l 1
486 700 m 1
 685 700 l 1
 401 372 l 1
 700 0 l 1
 495 0 l 1
 200 367 l 1
 486 700 l 1
511 914 m 1
 331 764 l 1
 246 806 l 1
 396 966 l 1
 511 914 l 1
EndSplineSet
EndChar

StartChar: uni040D
Encoding: 1037 1037 398
Width: 792
VWidth: 0
Flags: HW
LayerCount: 2
Fore
SplineSet
714 524 m 1
 74 -35 l 1
 79 176 l 1
 720 735 l 1
 714 524 l 1
236 700 m 1
 236 131 l 1
 74 -35 l 1
 74 700 l 1
 236 700 l 1
720 735 m 1
 720 0 l 1
 557 0 l 1
 557 563 l 1
 720 735 l 1
249 908 m 1
 364 960 l 1
 514 800 l 1
 429 758 l 1
 249 908 l 1
EndSplineSet
EndChar

StartChar: uni040E
Encoding: 1038 1038 399
Width: 605
VWidth: 0
Flags: HW
LayerCount: 2
Fore
SplineSet
615 700 m 1
 286 0 l 1
 120 0 l 1
 214 213 l 1
 -9 700 l 1
 174 700 l 1
 332 283 l 1
 260 284 l 1
 446 700 l 1
 615 700 l 1
140 922 m 1
 238 922 l 1
 238 887 265 862 304 862 c 0
 343 862 369 887 369 922 c 1
 468 922 l 1
 468 840 409 776 304 776 c 0
 199 776 140 840 140 922 c 1
EndSplineSet
EndChar

StartChar: uni0410
Encoding: 1040 1040 400
Width: 733
VWidth: 0
Flags: HW
LayerCount: 2
Fore
SplineSet
184 136 m 1
 196 264 l 1
 543 264 l 1
 554 136 l 1
 184 136 l 1
367 443 m 1
 269 218 l 1
 277 180 l 1
 190 0 l 1
 -1 0 l 1
 367 744 l 1
 736 0 l 1
 544 0 l 1
 460 173 l 1
 466 216 l 1
 367 443 l 1
EndSplineSet
EndChar

StartChar: uni0411
Encoding: 1041 1041 401
Width: 671
VWidth: 0
Flags: HW
LayerCount: 2
Fore
SplineSet
127 300 m 1
 127 436 l 1
 394 436 l 2
 529 436 632 348 632 219 c 0
 632 90 529 0 394 0 c 2
 127 0 l 1
 127 139 l 1
 357 139 l 2
 423 139 460 164 460 219 c 0
 460 274 423 300 357 300 c 2
 127 300 l 1
80 700 m 1
 580 700 l 1
 580 561 l 1
 252 561 l 1
 252 0 l 1
 80 0 l 1
 80 700 l 1
EndSplineSet
EndChar

StartChar: uni0412
Encoding: 1042 1042 402
Width: 663
VWidth: 0
Flags: HW
LayerCount: 2
Fore
SplineSet
200 348 m 1
 200 422 l 1
 313 422 l 2
 371 422 404 449 404 497 c 0
 404 545 371 569 313 569 c 2
 242 569 l 1
 242 131 l 1
 329 131 l 2
 395 131 444 152 444 220 c 0
 444 282 395 304 329 304 c 2
 200 304 l 1
 200 396 l 1
 348 396 l 2
 483 396 620 338 620 196 c 0
 620 57 514 0 348 0 c 2
 74 0 l 1
 74 700 l 1
 332 700 l 2
 476 700 580 641 580 522 c 0
 580 410 476 348 332 348 c 2
 200 348 l 1
EndSplineSet
EndChar

StartChar: uni0413
Encoding: 1043 1043 403
Width: 505
VWidth: 0
Flags: HW
LayerCount: 2
Fore
SplineSet
80 700 m 1
 496 700 l 1
 496 548 l 1
 248 548 l 1
 248 0 l 1
 80 0 l 1
 80 700 l 1
EndSplineSet
EndChar

StartChar: uni0414
Encoding: 1044 1044 404
Width: 881
VWidth: 0
Flags: HW
LayerCount: 2
Fore
SplineSet
438 430 m 1
 293 30 l 1
 98 30 l 1
 438 735 l 1
 779 30 l 1
 584 30 l 1
 438 430 l 1
669 0 m 1
 208 0 l 1
 208 -110 l 1
 40 -110 l 1
 40 145 l 1
 837 145 l 1
 837 -110 l 1
 669 -110 l 1
 669 0 l 1
EndSplineSet
EndChar

StartChar: uni0415
Encoding: 1045 1045 405
Width: 602
VWidth: 0
Flags: HW
LayerCount: 2
Fore
SplineSet
186 0 m 1
 186 139 l 1
 539 139 l 1
 539 0 l 1
 186 0 l 1
186 561 m 1
 186 700 l 1
 539 700 l 1
 539 561 l 1
 186 561 l 1
186 300 m 1
 186 436 l 1
 519 436 l 1
 519 300 l 1
 186 300 l 1
74 700 m 1
 236 700 l 1
 236 0 l 1
 74 0 l 1
 74 700 l 1
EndSplineSet
EndChar

StartChar: uni0416
Encoding: 1046 1046 406
Width: 1084
VWidth: 0
Flags: HW
LayerCount: 2
Fore
SplineSet
212 700 m 1
 500 370 l 1
 197 0 l 1
 -1 0 l 1
 304 372 l 1
 14 700 l 1
 212 700 l 1
456 700 m 1
 631 700 l 1
 631 0 l 1
 456 0 l 1
 456 700 l 1
866 700 m 1
 1070 700 l 1
 780 372 l 1
 1085 0 l 1
 881 0 l 1
 588 370 l 1
 866 700 l 1
EndSplineSet
EndChar

StartChar: uni0417
Encoding: 1047 1047 407
Width: 667
VWidth: 0
Flags: HW
LayerCount: 2
Fore
SplineSet
304 339 m 1
 304 414 l 1
 402 414 452 452 452 502 c 0
 452 546 415 578 348 578 c 0
 276 578 233 543 233 495 c 1
 78 495 l 1
 78 619 173 713 348 713 c 0
 525 713 618 628 618 520 c 0
 618 400 478 339 304 339 c 1
353 -16 m 0
 142 -16 48 98 48 222 c 1
 214 222 l 1
 216 153 271 120 347 120 c 0
 423 120 472 148 472 208 c 0
 472 266 420 306 304 306 c 1
 304 392 l 1
 496 392 638 333 638 191 c 0
 638 69 542 -16 353 -16 c 0
EndSplineSet
EndChar

StartChar: uni0418
Encoding: 1048 1048 408
Width: 792
VWidth: 0
Flags: HW
LayerCount: 2
Fore
SplineSet
714 524 m 1
 74 -35 l 1
 79 176 l 1
 720 735 l 1
 714 524 l 1
236 700 m 1
 236 131 l 1
 74 -35 l 1
 74 700 l 1
 236 700 l 1
720 735 m 1
 720 0 l 1
 557 0 l 1
 557 563 l 1
 720 735 l 1
EndSplineSet
EndChar

StartChar: uni0419
Encoding: 1049 1049 409
Width: 792
VWidth: 0
Flags: HW
LayerCount: 2
Fore
SplineSet
714 524 m 1
 74 -35 l 1
 79 176 l 1
 720 735 l 1
 714 524 l 1
236 700 m 1
 236 131 l 1
 74 -35 l 1
 74 700 l 1
 236 700 l 1
720 735 m 1
 720 0 l 1
 557 0 l 1
 557 563 l 1
 720 735 l 1
257 918 m 1
 356 918 l 1
 356 883 382 858 421 858 c 0
 460 858 486 883 486 918 c 1
 586 918 l 1
 586 836 526 771 421 771 c 0
 316 771 257 836 257 918 c 1
EndSplineSet
EndChar

StartChar: uni041A
Encoding: 1050 1050 410
Width: 698
VWidth: 0
Flags: HW
LayerCount: 2
Fore
SplineSet
74 700 m 1
 248 700 l 1
 248 0 l 1
 74 0 l 1
 74 700 l 1
486 700 m 1
 685 700 l 1
 401 372 l 1
 700 0 l 1
 495 0 l 1
 200 367 l 1
 486 700 l 1
EndSplineSet
EndChar

StartChar: uni041B
Encoding: 1051 1051 411
Width: 768
VWidth: 0
Flags: HW
LayerCount: 2
Fore
SplineSet
690 700 m 25
 690 0 l 1
 518 0 l 1
 518 548 l 1
 285 548 l 25
 285 296 l 2
 285 98 204 0 10 0 c 1
 10 142 l 1
 76 142 116 198 116 286 c 2
 116 700 l 25
 690 700 l 25
EndSplineSet
EndChar

StartChar: uni041C
Encoding: 1052 1052 412
Width: 890
VWidth: 0
Flags: HW
LayerCount: 2
Fore
SplineSet
254 357 m 1
 212 0 l 1
 34 0 l 1
 146 735 l 1
 445 308 l 1
 744 735 l 1
 857 0 l 1
 679 0 l 1
 637 357 l 1
 445 65 l 1
 254 357 l 1
EndSplineSet
EndChar

StartChar: uni041D
Encoding: 1053 1053 413
Width: 785
VWidth: 0
Flags: HW
LayerCount: 2
Fore
SplineSet
121 294 m 1
 121 444 l 1
 650 444 l 1
 650 294 l 1
 121 294 l 1
544 700 m 1
 712 700 l 1
 712 0 l 1
 544 0 l 1
 544 700 l 1
74 700 m 1
 242 700 l 1
 242 0 l 1
 74 0 l 1
 74 700 l 1
EndSplineSet
EndChar

StartChar: uni041E
Encoding: 1054 1054 414
Width: 820
VWidth: 0
Flags: HW
LayerCount: 2
Fore
SplineSet
213 350 m 0
 213 226 291 139 410 139 c 0
 529 139 608 226 608 350 c 0
 608 474 532 561 410 561 c 0
 291 561 213 474 213 350 c 0
34 350 m 0
 34 566 197 716 410 716 c 0
 626 716 787 566 787 350 c 0
 787 134 630 -22 410 -22 c 0
 190 -22 34 134 34 350 c 0
EndSplineSet
EndChar

StartChar: uni041F
Encoding: 1055 1055 415
Width: 770
VWidth: 0
Flags: HW
LayerCount: 2
Fore
SplineSet
519 548 m 1
 252 548 l 1
 252 0 l 1
 80 0 l 1
 80 700 l 1
 691 700 l 1
 691 0 l 1
 519 0 l 1
 519 548 l 1
EndSplineSet
EndChar

StartChar: uni0420
Encoding: 1056 1056 416
Width: 621
VWidth: 0
Flags: HW
LayerCount: 2
Fore
SplineSet
74 700 m 1
 242 700 l 1
 242 0 l 1
 74 0 l 1
 74 700 l 1
180 561 m 1
 180 700 l 1
 316 700 l 2
 494 700 588 614 588 472 c 0
 588 330 494 243 316 243 c 2
 180 243 l 1
 180 382 l 1
 316 382 l 2
 384 382 426 414 426 472 c 0
 426 530 384 561 316 561 c 2
 180 561 l 1
EndSplineSet
EndChar

StartChar: uni0421
Encoding: 1057 1057 417
Width: 699
VWidth: 0
Flags: HW
LayerCount: 2
Fore
SplineSet
218 350 m 0
 218 221 314 144 428 144 c 0
 527 144 590 188 636 238 c 1
 636 54 l 1
 580 10 520 -16 418 -16 c 0
 193 -16 34 132 34 350 c 0
 34 568 193 716 418 716 c 0
 520 716 580 690 636 646 c 1
 636 462 l 1
 590 512 527 556 428 556 c 0
 314 556 218 479 218 350 c 0
EndSplineSet
EndChar

StartChar: uni0422
Encoding: 1058 1058 418
Width: 561
VWidth: 0
Flags: HW
LayerCount: 2
Fore
SplineSet
4 548 m 1
 4 700 l 1
 557 700 l 1
 557 548 l 1
 365 548 l 1
 365 0 l 1
 196 0 l 1
 196 548 l 1
 4 548 l 1
EndSplineSet
EndChar

StartChar: uni0423
Encoding: 1059 1059 419
Width: 617
VWidth: 0
Flags: HW
LayerCount: 2
Fore
SplineSet
627 700 m 1
 298 0 l 1
 126 0 l 1
 220 213 l 1
 -9 700 l 1
 180 700 l 1
 338 283 l 1
 266 284 l 1
 452 700 l 1
 627 700 l 1
EndSplineSet
EndChar

StartChar: uni0424
Encoding: 1060 1060 420
Width: 931
VWidth: 0
Flags: HW
LayerCount: 2
Fore
SplineSet
380 700 m 1
 552 700 l 1
 552 0 l 1
 380 0 l 1
 380 700 l 1
720 350 m 0
 720 442 648 473 534 473 c 2
 397 473 l 2
 283 473 212 442 212 350 c 0
 212 258 283 227 397 227 c 2
 534 227 l 2
 648 227 720 258 720 350 c 0
892 350 m 0
 892 181 750 80 566 80 c 2
 366 80 l 2
 182 80 40 181 40 350 c 0
 40 519 182 620 366 620 c 2
 566 620 l 2
 750 620 892 519 892 350 c 0
EndSplineSet
EndChar

StartChar: uni0425
Encoding: 1061 1061 421
Width: 684
VWidth: 0
Flags: HW
LayerCount: 2
Fore
SplineSet
458 700 m 1
 666 700 l 1
 448 358 l 1
 681 0 l 1
 472 0 l 1
 344 233 l 1
 212 0 l 1
 4 0 l 1
 244 358 l 1
 29 700 l 1
 237 700 l 1
 346 497 l 1
 458 700 l 1
EndSplineSet
EndChar

StartChar: uni0426
Encoding: 1062 1062 422
Width: 859
VWidth: 0
Flags: HW
LayerCount: 2
Fore
SplineSet
246 152 m 1
 544 152 l 1
 544 700 l 1
 716 700 l 1
 716 152 l 1
 826 152 l 1
 826 -134 l 1
 664 -134 l 1
 664 0 l 1
 74 0 l 1
 74 700 l 1
 246 700 l 1
 246 152 l 1
EndSplineSet
EndChar

StartChar: uni0427
Encoding: 1063 1063 423
Width: 717
VWidth: 0
Flags: HW
LayerCount: 2
Fore
SplineSet
308 221 m 1
 358 370 l 1
 526 370 l 1
 526 221 l 1
 308 221 l 1
462 700 m 1
 637 700 l 1
 637 0 l 1
 462 0 l 1
 462 700 l 1
244 700 m 1
 244 490 l 2
 244 412 290 370 358 370 c 1
 308 221 l 1
 156 221 74 333 74 468 c 2
 74 700 l 1
 244 700 l 1
EndSplineSet
EndChar

StartChar: uni0428
Encoding: 1064 1064 424
Width: 1081
VWidth: 0
Flags: HW
LayerCount: 2
Fore
SplineSet
832 152 m 1
 832 700 l 1
 1001 700 l 1
 1001 0 l 1
 80 0 l 1
 80 700 l 1
 248 700 l 1
 248 152 l 1
 459 152 l 1
 459 700 l 1
 622 700 l 1
 622 152 l 1
 832 152 l 1
EndSplineSet
EndChar

StartChar: uni0429
Encoding: 1065 1065 425
Width: 1150
VWidth: 0
Flags: HW
LayerCount: 2
Fore
SplineSet
832 152 m 1
 832 700 l 1
 1001 700 l 1
 1001 152 l 1
 1110 152 l 1
 1110 -134 l 1
 949 -134 l 1
 949 0 l 1
 80 0 l 1
 80 700 l 1
 248 700 l 1
 248 152 l 1
 459 152 l 1
 459 700 l 1
 622 700 l 1
 622 152 l 1
 832 152 l 1
EndSplineSet
EndChar

StartChar: uni042A
Encoding: 1066 1066 426
Width: 735
VWidth: 0
Flags: HW
LayerCount: 2
Fore
SplineSet
293 318 m 1
 293 457 l 1
 430 457 l 2
 608 457 702 370 702 228 c 0
 702 86 608 0 430 0 c 2
 293 0 l 1
 293 139 l 1
 430 139 l 2
 498 139 539 170 539 228 c 0
 539 286 498 318 430 318 c 2
 293 318 l 1
190 550 m 1
 10 550 l 1
 10 700 l 1
 358 700 l 1
 358 0 l 1
 190 0 l 1
 190 550 l 1
EndSplineSet
EndChar

StartChar: uni042B
Encoding: 1067 1067 427
Width: 907
VWidth: 0
Flags: HW
LayerCount: 2
Fore
SplineSet
662 700 m 1
 834 700 l 1
 834 0 l 1
 662 0 l 1
 662 700 l 1
74 700 m 1
 242 700 l 1
 242 0 l 1
 74 0 l 1
 74 700 l 1
180 318 m 1
 180 457 l 1
 316 457 l 2
 494 457 588 370 588 228 c 0
 588 86 494 0 316 0 c 2
 180 0 l 1
 180 139 l 1
 316 139 l 2
 384 139 426 170 426 228 c 0
 426 286 384 318 316 318 c 2
 180 318 l 1
EndSplineSet
EndChar

StartChar: uni042C
Encoding: 1068 1068 428
Width: 621
VWidth: 0
Flags: HW
LayerCount: 2
Fore
SplineSet
74 700 m 1
 242 700 l 1
 242 0 l 1
 74 0 l 1
 74 700 l 1
180 318 m 1
 180 457 l 1
 316 457 l 2
 494 457 588 370 588 228 c 0
 588 86 494 0 316 0 c 2
 180 0 l 1
 180 139 l 1
 316 139 l 2
 384 139 426 170 426 228 c 0
 426 286 384 318 316 318 c 2
 180 318 l 1
EndSplineSet
EndChar

StartChar: uni042D
Encoding: 1069 1069 429
Width: 699
VWidth: 0
Flags: HW
LayerCount: 2
Fore
SplineSet
136 282 m 1
 136 418 l 1
 510 418 l 1
 510 282 l 1
 136 282 l 1
501 350 m 0
 501 479 386 562 272 562 c 0
 173 562 104 519 64 481 c 1
 64 646 l 1
 120 690 180 716 282 716 c 0
 507 716 666 568 666 350 c 0
 666 132 507 -16 282 -16 c 0
 180 -16 120 10 64 54 c 1
 64 219 l 1
 104 181 173 138 272 138 c 0
 386 138 501 221 501 350 c 0
EndSplineSet
EndChar

StartChar: uni042E
Encoding: 1070 1070 430
Width: 1140
VWidth: 0
Flags: HW
LayerCount: 2
Fore
SplineSet
121 294 m 1
 121 444 l 1
 458 444 l 1
 458 294 l 1
 121 294 l 1
74 700 m 1
 242 700 l 1
 242 0 l 1
 74 0 l 1
 74 700 l 1
533 350 m 0
 533 226 612 139 731 139 c 0
 850 139 929 226 929 350 c 0
 929 474 853 561 731 561 c 0
 612 561 533 474 533 350 c 0
354 350 m 0
 354 566 518 716 731 716 c 0
 947 716 1108 566 1108 350 c 0
 1108 134 951 -22 731 -22 c 0
 511 -22 354 134 354 350 c 0
EndSplineSet
EndChar

StartChar: uni042F
Encoding: 1071 1071 431
Width: 646
VWidth: 0
Flags: HW
LayerCount: 2
Fore
SplineSet
398 318 m 1
 202 0 l 1
 4 0 l 1
 223 318 l 1
 398 318 l 1
573 700 m 1
 573 0 l 1
 404 0 l 1
 404 700 l 1
 573 700 l 1
467 556 m 1
 330 556 l 2
 262 556 220 524 220 466 c 0
 220 408 262 374 330 374 c 2
 467 374 l 1
 467 243 l 1
 318 243 l 2
 140 243 46 337 46 472 c 0
 46 607 140 700 318 700 c 2
 467 700 l 1
 467 556 l 1
EndSplineSet
EndChar

StartChar: uni0430
Encoding: 1072 1072 432
Width: 543
VWidth: 0
Flags: HW
LayerCount: 2
Fore
SplineSet
176 138 m 0
 176 104 206 88 242 88 c 0
 298 88 345 112 345 186 c 1
 361 130 l 1
 361 41 286 -10 191 -10 c 0
 93 -10 24 39 24 130 c 0
 24 221 102 279 223 279 c 0
 293 279 358 252 378 230 c 1
 378 159 l 1
 344 185 310 198 258 198 c 0
 206 198 176 174 176 138 c 0
117 319 m 1
 66 420 l 1
 118 445 193 473 276 473 c 0
 400 473 490 419 490 324 c 2
 490 0 l 1
 345 0 l 1
 345 294 l 2
 345 333 314 358 264 358 c 0
 198 358 139 332 117 319 c 1
EndSplineSet
Substitution2: "alt a" a.alt
EndChar

StartChar: uni0431
Encoding: 1073 1073 433
Width: 607
VWidth: 0
Flags: HW
LayerCount: 2
Fore
SplineSet
310 346 m 1
 323 470 l 1
 471 470 573 369 573 230 c 0
 573 91 470 -10 310 -10 c 0
 150 -10 35 91 35 290 c 1
 202 230 l 1
 202 158 251 115 310 115 c 0
 369 115 418 158 418 230 c 0
 418 302 369 346 310 346 c 1
135 230 m 1
 135 379 208 470 323 470 c 1
 310 346 l 1
 254 346 202 305 202 230 c 1
 135 230 l 1
35 290 m 1
 35 477 75 598 232 662 c 0
 323 699 370 732 380 780 c 1
 525 780 l 1
 515 691 433 614 324 572 c 0
 202 525 167 440 167 340 c 2
 192 231 l 1
 35 290 l 1
EndSplineSet
EndChar

StartChar: uni0432
Encoding: 1074 1074 434
Width: 523
VWidth: 0
Flags: HW
LayerCount: 2
Fore
SplineSet
162 240 m 1
 326 240 l 2
 421 240 494 214 494 125 c 0
 494 56 451 0 346 0 c 2
 162 0 l 1
 162 94 l 1
 295 94 l 2
 337 94 352 117 352 141 c 0
 352 165 337 186 295 186 c 2
 162 186 l 1
 162 240 l 1
162 220 m 1
 162 280 l 1
 285 280 l 2
 315 280 332 298 332 322 c 0
 332 346 315 366 285 366 c 2
 162 366 l 1
 162 460 l 1
 316 460 l 2
 401 460 474 424 474 335 c 0
 474 256 401 220 316 220 c 2
 162 220 l 1
75 460 m 1
 220 460 l 1
 220 0 l 1
 75 0 l 1
 75 460 l 1
EndSplineSet
EndChar

StartChar: uni0433
Encoding: 1075 1075 435
Width: 357
VWidth: 0
Flags: HW
LayerCount: 2
Fore
SplineSet
62 460 m 1
 356 460 l 1
 356 335 l 1
 210 335 l 1
 210 0 l 1
 62 0 l 1
 62 460 l 1
EndSplineSet
EndChar

StartChar: uni0434
Encoding: 1076 1076 436
Width: 704
VWidth: 0
Flags: HW
LayerCount: 2
Fore
SplineSet
350 279 m 1
 240 30 l 1
 94 61 l 1
 350 495 l 1
 606 61 l 1
 460 30 l 1
 350 279 l 1
518 0 m 1
 187 0 l 1
 187 -90 l 1
 40 -90 l 1
 40 118 l 1
 660 118 l 1
 660 -90 l 1
 518 -90 l 1
 518 0 l 1
EndSplineSet
EndChar

StartChar: uni0435
Encoding: 1077 1077 437
Width: 575
VWidth: 0
Flags: HW
LayerCount: 2
Fore
SplineSet
117 198 m 1
 117 282 l 1
 377 282 l 1
 370 337 342 369 288 369 c 0
 226 369 186 328 186 254 c 1
 184 230 l 1
 184 136 231 99 290 99 c 0
 344 99 384 120 406 158 c 1
 540 126 l 1
 494 44 425 -10 293 -10 c 0
 125 -10 32 91 32 230 c 0
 32 247 33 263 36 279 c 0
 55 392 140 470 290 470 c 0
 451 470 539 382 539 237 c 0
 539 229 540 214 538 198 c 1
 117 198 l 1
EndSplineSet
EndChar

StartChar: uni0436
Encoding: 1078 1078 438
Width: 879
VWidth: 0
Flags: HW
LayerCount: 2
Fore
SplineSet
686 460 m 1
 860 460 l 1
 662 266 l 1
 880 0 l 1
 706 0 l 1
 486 270 l 1
 686 460 l 1
511 460 m 1
 511 0 l 1
 368 0 l 1
 368 460 l 1
 511 460 l 1
194 460 m 1
 394 270 l 1
 174 0 l 1
 0 0 l 1
 218 266 l 1
 20 460 l 1
 194 460 l 1
EndSplineSet
EndChar

StartChar: uni0437
Encoding: 1079 1079 439
Width: 537
VWidth: 0
Flags: HW
LayerCount: 2
Fore
SplineSet
274 230 m 1
 274 288 l 1
 310 288 329 302 329 326 c 0
 329 350 308 361 282 361 c 0
 250 361 227 339 227 308 c 1
 90 308 l 1
 90 406 168 470 278 470 c 0
 402 470 473 403 473 334 c 0
 473 265 410 230 274 230 c 1
279 -10 m 0
 149 -10 70 56 60 158 c 1
 203 158 l 1
 213 118 240 97 279 97 c 0
 321 97 352 116 352 150 c 0
 352 184 326 202 274 202 c 1
 274 260 l 1
 410 260 493 214 493 135 c 0
 493 46 399 -10 279 -10 c 0
EndSplineSet
EndChar

StartChar: uni0438
Encoding: 1080 1080 440
Width: 591
VWidth: 0
Flags: HW
LayerCount: 2
Fore
SplineSet
525 330 m 1
 62 -35 l 1
 66 130 l 1
 530 495 l 1
 525 330 l 1
206 460 m 1
 206 106 l 1
 62 -35 l 1
 62 460 l 1
 206 460 l 1
530 495 m 1
 530 0 l 1
 385 0 l 1
 385 354 l 1
 530 495 l 1
EndSplineSet
EndChar

StartChar: uni0439
Encoding: 1081 1081 441
Width: 591
VWidth: 0
Flags: HW
LayerCount: 2
Fore
SplineSet
525 330 m 1
 62 -35 l 1
 66 130 l 1
 530 495 l 1
 525 330 l 1
206 460 m 1
 206 106 l 1
 62 -35 l 1
 62 460 l 1
 206 460 l 1
530 495 m 1
 530 0 l 1
 385 0 l 1
 385 354 l 1
 530 495 l 1
138 695 m 1
 238 695 l 1
 238 660 263 636 302 636 c 0
 341 636 368 660 368 695 c 1
 467 695 l 1
 467 613 407 549 302 549 c 0
 197 549 138 613 138 695 c 1
EndSplineSet
EndChar

StartChar: uni043A
Encoding: 1082 1082 442
Width: 576
VWidth: 0
Flags: HW
LayerCount: 2
Fore
SplineSet
58 460 m 1
 203 460 l 1
 203 0 l 1
 58 0 l 1
 58 460 l 1
370 460 m 1
 550 460 l 1
 354 270 l 1
 570 0 l 1
 393 0 l 1
 173 270 l 1
 370 460 l 1
EndSplineSet
EndChar

StartChar: uni043B
Encoding: 1083 1083 443
Width: 622
VWidth: 0
Flags: HW
LayerCount: 2
Fore
SplineSet
543 460 m 25
 543 0 l 1
 398 0 l 1
 398 323 l 1
 228 323 l 25
 228 160 l 2
 228 51 176 0 10 0 c 1
 10 135 l 1
 50 135 83 143 83 197 c 2
 83 460 l 25
 543 460 l 25
EndSplineSet
EndChar

StartChar: uni043C
Encoding: 1084 1084 444
Width: 656
VWidth: 0
Flags: HW
LayerCount: 2
Fore
SplineSet
500 0 m 1
 437 315 l 1
 513 495 l 1
 652 0 l 1
 500 0 l 1
296 131 m 1
 513 495 l 1
 523 292 l 1
 326 -31 l 1
 296 131 l 1
326 -31 m 1
 134 292 l 1
 144 495 l 1
 356 131 l 1
 326 -31 l 1
5 0 m 1
 144 495 l 1
 220 315 l 1
 157 0 l 1
 5 0 l 1
EndSplineSet
EndChar

StartChar: uni043D
Encoding: 1085 1085 445
Width: 614
VWidth: 0
Flags: HW
LayerCount: 2
Fore
SplineSet
106 186 m 1
 106 298 l 1
 478 298 l 1
 478 186 l 1
 106 186 l 1
410 460 m 1
 555 460 l 1
 555 0 l 1
 410 0 l 1
 410 460 l 1
60 460 m 1
 205 460 l 1
 205 0 l 1
 60 0 l 1
 60 460 l 1
EndSplineSet
EndChar

StartChar: uni043E
Encoding: 1086 1086 446
Width: 589
VWidth: 0
Flags: HW
LayerCount: 2
Fore
SplineSet
32 230 m 0
 32 375 144 470 294 470 c 0
 444 470 557 375 557 230 c 0
 557 85 444 -10 294 -10 c 0
 144 -10 32 85 32 230 c 0
188 230 m 0
 188 158 235 115 294 115 c 0
 353 115 402 158 402 230 c 0
 402 302 353 346 294 346 c 0
 235 346 188 302 188 230 c 0
EndSplineSet
EndChar

StartChar: uni043F
Encoding: 1087 1087 447
Width: 574
VWidth: 0
Flags: HW
LayerCount: 2
Fore
SplineSet
515 460 m 1
 515 0 l 1
 370 0 l 1
 370 329 l 1
 205 329 l 1
 205 0 l 1
 60 0 l 1
 60 460 l 1
 515 460 l 1
EndSplineSet
EndChar

StartChar: uni0440
Encoding: 1088 1088 448
Width: 616
VWidth: 0
Flags: HW
LayerCount: 2
Fore
SplineSet
209 -220 m 1
 58 -220 l 1
 58 460 l 1
 209 460 l 1
 209 -220 l 1
585 230 m 0
 585 68 478 -16 366 -16 c 0
 245 -16 173 81 173 230 c 0
 173 379 245 476 366 476 c 0
 478 476 585 392 585 230 c 0
426 230 m 0
 426 302 376 342 316 342 c 0
 264 342 209 305 209 230 c 0
 209 155 264 118 316 118 c 0
 376 118 426 158 426 230 c 0
EndSplineSet
EndChar

StartChar: uni0441
Encoding: 1089 1089 449
Width: 492
VWidth: 0
Flags: HW
LayerCount: 2
Fore
SplineSet
186 230 m 0
 186 156 240 110 308 110 c 0
 364 110 417 135 444 179 c 1
 444 32 l 1
 412 6 365 -10 296 -10 c 0
 142 -10 30 85 30 230 c 0
 30 375 142 470 296 470 c 0
 365 470 412 452 444 430 c 1
 444 282 l 1
 417 326 358 350 308 350 c 0
 240 350 186 298 186 230 c 0
EndSplineSet
EndChar

StartChar: uni0442
Encoding: 1090 1090 450
Width: 332
VWidth: 0
Flags: HW
LayerCount: 2
Fore
SplineSet
5 460 m 1
 328 460 l 1
 328 335 l 1
 5 335 l 1
 5 460 l 1
94 440 m 1
 239 440 l 1
 239 0 l 1
 94 0 l 1
 94 440 l 1
EndSplineSet
EndChar

StartChar: uni0443
Encoding: 1091 1091 451
Width: 520
VWidth: 0
Flags: HW
LayerCount: 2
Fore
SplineSet
530 460 m 1
 230 -220 l 1
 78 -220 l 1
 190 38 l 1
 -9 460 l 1
 157 460 l 1
 306 91 l 1
 228 92 l 1
 374 460 l 1
 530 460 l 1
EndSplineSet
EndChar

StartChar: uni0444
Encoding: 1092 1092 452
Width: 666
VWidth: 0
Flags: HW
LayerCount: 2
Fore
SplineSet
262 560 m 1
 404 560 l 1
 404 -100 l 1
 262 -100 l 1
 262 560 l 1
32 230 m 0
 32 375 144 470 333 470 c 0
 522 470 634 375 634 230 c 0
 634 85 522 -10 333 -10 c 0
 144 -10 32 85 32 230 c 0
169 230 m 0
 169 158 217 115 333 115 c 0
 449 115 498 158 498 230 c 0
 498 302 449 346 333 346 c 0
 217 346 169 302 169 230 c 0
EndSplineSet
EndChar

StartChar: uni0445
Encoding: 1093 1093 453
Width: 530
VWidth: 0
Flags: HW
LayerCount: 2
Fore
SplineSet
354 460 m 1
 522 460 l 1
 346 236 l 1
 532 0 l 1
 364 0 l 1
 268 134 l 1
 174 0 l 1
 0 0 l 1
 188 236 l 1
 10 460 l 1
 184 460 l 1
 268 339 l 1
 354 460 l 1
EndSplineSet
EndChar

StartChar: uni0446
Encoding: 1094 1094 454
Width: 620
VWidth: 0
Flags: HW
LayerCount: 2
Fore
SplineSet
522 125 m 1
 602 125 l 1
 602 -102 l 1
 460 -102 l 1
 460 0 l 1
 60 0 l 1
 60 460 l 1
 211 460 l 1
 211 125 l 1
 370 125 l 1
 370 460 l 1
 522 460 l 1
 522 125 l 1
EndSplineSet
EndChar

StartChar: uni0447
Encoding: 1095 1095 455
Width: 546
VWidth: 0
Flags: HW
LayerCount: 2
Fore
SplineSet
230 116 m 1
 273 240 l 1
 387 240 l 1
 387 116 l 1
 230 116 l 1
330 460 m 1
 482 460 l 1
 482 0 l 1
 330 0 l 1
 330 460 l 1
202 460 m 1
 202 316 l 2
 202 260 221 240 273 240 c 1
 230 116 l 1
 91 116 50 193 50 328 c 2
 50 460 l 1
 202 460 l 1
EndSplineSet
EndChar

StartChar: uni0448
Encoding: 1096 1096 456
Width: 836
VWidth: 0
Flags: HW
LayerCount: 2
Fore
SplineSet
490 125 m 1
 632 125 l 1
 632 460 l 1
 777 460 l 1
 777 0 l 1
 60 0 l 1
 60 460 l 1
 205 460 l 1
 205 125 l 1
 346 125 l 1
 346 460 l 1
 490 460 l 1
 490 125 l 1
EndSplineSet
EndChar

StartChar: uni0449
Encoding: 1097 1097 457
Width: 875
VWidth: 0
Flags: HW
LayerCount: 2
Fore
SplineSet
490 125 m 1
 631 125 l 1
 631 460 l 1
 776 460 l 1
 776 125 l 1
 856 125 l 1
 856 -102 l 1
 715 -102 l 1
 715 0 l 1
 60 0 l 1
 60 460 l 1
 205 460 l 1
 205 125 l 1
 346 125 l 1
 346 460 l 1
 490 460 l 1
 490 125 l 1
EndSplineSet
EndChar

StartChar: uni044A
Encoding: 1098 1098 458
Width: 611
VWidth: 0
Flags: HW
LayerCount: 2
Fore
SplineSet
254 207 m 1
 254 304 l 1
 397 304 l 2
 492 304 565 261 565 162 c 0
 565 63 492 0 397 0 c 2
 254 0 l 1
 254 116 l 1
 370 116 l 2
 404 116 424 134 424 162 c 0
 424 190 404 207 370 207 c 2
 254 207 l 1
146 335 m 1
 5 335 l 1
 5 460 l 1
 284 460 l 1
 284 0 l 1
 146 0 l 1
 146 335 l 1
EndSplineSet
EndChar

StartChar: uni044B
Encoding: 1099 1099 459
Width: 762
VWidth: 0
Flags: HW
LayerCount: 2
Fore
SplineSet
552 460 m 1
 704 460 l 1
 704 0 l 1
 552 0 l 1
 552 460 l 1
60 460 m 1
 211 460 l 1
 211 0 l 1
 60 0 l 1
 60 460 l 1
178 207 m 1
 178 304 l 1
 321 304 l 2
 416 304 489 261 489 162 c 0
 489 63 416 0 321 0 c 2
 178 0 l 1
 178 116 l 1
 294 116 l 2
 328 116 347 134 347 162 c 0
 347 190 328 207 294 207 c 2
 178 207 l 1
EndSplineSet
EndChar

StartChar: uni044C
Encoding: 1100 1100 460
Width: 544
VWidth: 0
Flags: HW
LayerCount: 2
Fore
SplineSet
66 460 m 1
 217 460 l 1
 217 0 l 1
 66 0 l 1
 66 460 l 1
184 207 m 1
 184 304 l 1
 327 304 l 2
 422 304 495 261 495 162 c 0
 495 63 422 0 327 0 c 2
 184 0 l 1
 184 116 l 1
 300 116 l 2
 334 116 353 134 353 162 c 0
 353 190 334 207 300 207 c 2
 184 207 l 1
EndSplineSet
EndChar

StartChar: uni044D
Encoding: 1101 1101 461
Width: 492
VWidth: 0
Flags: HW
LayerCount: 2
Fore
SplineSet
112 280 m 1
 406 280 l 1
 380 180 l 1
 112 180 l 1
 112 280 l 1
308 230 m 0
 308 317 254 368 186 368 c 0
 136 368 77 344 50 300 c 1
 50 430 l 1
 82 452 129 470 198 470 c 0
 352 470 464 375 464 230 c 0
 464 85 352 -10 198 -10 c 0
 129 -10 82 6 50 32 c 1
 50 160 l 1
 77 116 130 92 186 92 c 0
 254 92 308 137 308 230 c 0
EndSplineSet
EndChar

StartChar: uni044E
Encoding: 1102 1102 462
Width: 819
VWidth: 0
Flags: HW
LayerCount: 2
Fore
SplineSet
106 186 m 1
 106 298 l 1
 376 298 l 1
 376 186 l 1
 106 186 l 1
60 460 m 1
 205 460 l 1
 205 0 l 1
 60 0 l 1
 60 460 l 1
262 230 m 0
 262 375 376 470 526 470 c 0
 676 470 788 375 788 230 c 0
 788 85 676 -10 526 -10 c 0
 376 -10 262 85 262 230 c 0
418 230 m 0
 418 158 467 115 526 115 c 0
 585 115 633 158 633 230 c 0
 633 302 585 346 526 346 c 0
 467 346 418 302 418 230 c 0
EndSplineSet
EndChar

StartChar: uni044F
Encoding: 1103 1103 463
Width: 544
VWidth: 0
Flags: HW
LayerCount: 2
Fore
SplineSet
197 0 m 1
 40 0 l 1
 180 209 l 1
 324 209 l 1
 197 0 l 1
504 0 m 1
 353 0 l 1
 353 460 l 1
 504 460 l 1
 504 0 l 1
404 266 m 1
 404 166 l 1
 262 166 l 2
 167 166 75 211 75 316 c 0
 75 421 167 460 262 460 c 2
 404 460 l 1
 404 340 l 1
 283 340 l 2
 243 340 224 332 224 304 c 0
 224 276 243 266 283 266 c 2
 404 266 l 1
EndSplineSet
EndChar

